<svg width="301" height="125" viewBox="0 0 301 125" fill="none" xmlns="http://www.w3.org/2000/svg"><g clip-path="url(#clip0)"><path d="M91.276 92.808h-12.89V115h-22.12V92.808H10.564V77.06L57.512 7.92h20.874v67.31h12.89v17.578zm-35.01-17.579V57.066c0-3.027.123-7.421.367-13.183s.44-9.107.586-10.034h-.586a81.682 81.682 0 01-6.519 11.718L30.485 75.23h25.782zM289.276 92.808h-12.89V115h-22.119V92.808h-45.704V77.06l46.949-69.14h20.874v67.31h12.89v17.578zm-35.009-17.579V57.066c0-3.027.122-7.421.366-13.183s.439-9.107.586-10.034h-.586a81.724 81.724 0 01-6.519 11.718L228.485 75.23h25.782z" fill="#262626"/><circle cx="152.453" cy="60.547" r="46.047" stroke="#FF590F" stroke-width="15"/><path stroke="#FF590F" stroke-width="15" d="M113.913 95.995l74.5-69.844"/></g><defs><clipPath id="clip0"><path fill="#fff" d="M0 0h301v125H0z"/></clipPath></defs></svg>