<svg width="1440" height="320" viewBox="0 0 1440 320" fill="none" xmlns="http://www.w3.org/2000/svg">
<rect width="1440" height="320" fill="#262626"/>
<mask id="mask0" mask-type="alpha" maskUnits="userSpaceOnUse" x="466" y="0" width="977" height="318">
<rect x="466" width="977" height="317.525" rx="5" fill="#4E4E4E"/>
</mask>
<g mask="url(#mask0)">
<circle cx="1195" cy="158" r="143" stroke="#2C2C2C" stroke-width="42"/>
<circle cx="1195" cy="158" r="270.5" stroke="#2C2C2C" stroke-width="105"/>
<circle cx="1195" cy="158" r="440.5" stroke="#2C2C2C" stroke-width="105"/>
<circle cx="1194.35" cy="158.346" r="77.3458" fill="#2C2C2C"/>
</g>
<path d="M1194 109C1175.42 109 1160.31 124.111 1160.31 142.688C1160.31 161.266 1175.42 176.377 1194 176.377C1212.57 176.377 1227.69 161.266 1227.69 142.688C1227.69 124.111 1212.57 109 1194 109ZM1211.71 137.923L1205.89 145.212L1206.52 154.737C1206.6 155.796 1206.11 156.819 1205.24 157.438C1204.71 157.811 1204.09 158.001 1203.46 158.001C1203.06 158.001 1202.65 157.922 1202.27 157.756L1194 154.247L1185.74 157.756C1184.76 158.173 1183.63 158.056 1182.77 157.438C1181.9 156.819 1181.41 155.796 1181.48 154.737L1182.12 145.212L1176.3 137.923C1175.65 137.114 1175.46 136.03 1175.78 135.044C1176.11 134.058 1176.91 133.311 1177.91 133.047L1186.6 130.775L1191.37 122.751C1192.47 120.889 1195.53 120.889 1196.63 122.751L1201.39 130.775L1210.08 133.047C1211.08 133.311 1211.88 134.064 1212.22 135.044C1212.55 136.024 1212.35 137.108 1211.71 137.923Z" fill="url(#paint0_linear)"/>
<path d="M1159.54 162.553L1145.41 187.096C1144.79 188.174 1144.88 189.516 1145.63 190.496C1146.39 191.476 1147.66 191.917 1148.86 191.586L1166.84 186.753L1171.62 204.737C1171.94 205.931 1172.95 206.819 1174.18 206.985C1174.31 206.997 1174.45 207.003 1174.58 207.003C1175.67 207.003 1176.68 206.427 1177.23 205.472L1190.61 182.331C1177.32 181.204 1165.9 173.529 1159.54 162.553Z" fill="url(#paint1_linear)"/>
<path d="M1242.6 187.096L1228.45 162.553C1222.1 173.529 1210.68 181.204 1197.39 182.331L1210.76 205.472C1211.32 206.427 1212.33 207.003 1213.42 207.003C1213.54 207.003 1213.69 206.997 1213.81 206.979C1215.05 206.813 1216.05 205.925 1216.37 204.731L1221.16 186.747L1239.14 191.58C1240.34 191.911 1241.6 191.47 1242.36 190.49C1243.12 189.516 1243.21 188.174 1242.6 187.096Z" fill="url(#paint2_linear)"/>
<defs>
<linearGradient id="paint0_linear" x1="1194" y1="109" x2="1194" y2="176.377" gradientUnits="userSpaceOnUse">
<stop stop-color="#FF6666"/>
<stop offset="1" stop-color="#FFDC00"/>
</linearGradient>
<linearGradient id="paint1_linear" x1="1167.8" y1="162.553" x2="1167.8" y2="207.003" gradientUnits="userSpaceOnUse">
<stop stop-color="#FF6666"/>
<stop offset="1" stop-color="#FFDC00"/>
</linearGradient>
<linearGradient id="paint2_linear" x1="1220.2" y1="162.553" x2="1220.2" y2="207.003" gradientUnits="userSpaceOnUse">
<stop stop-color="#FF6666"/>
<stop offset="1" stop-color="#FFDC00"/>
</linearGradient>
</defs>
</svg>
