<svg width="1440" height="1059" viewBox="0 0 1440 1059" fill="none" xmlns="http://www.w3.org/2000/svg">
<path d="M543.493 301.009C553.495 306.782 553.495 321.218 543.493 326.991L51.5364 610.951C40.232 617.476 26.5645 607.45 29.3946 594.708L91.0212 317.252C91.497 315.11 91.497 312.89 91.0212 310.748L29.3946 33.2922C26.5645 20.5504 40.232 10.5236 51.5364 17.0486L543.493 301.009Z" fill="#182025"/>
<path d="M987.504 704.509C977.503 710.282 977.503 724.718 987.504 730.491L1388.46 961.95C1399.77 968.475 1413.44 958.449 1410.61 945.707L1360.65 720.752C1360.17 718.61 1360.17 716.39 1360.65 714.248L1410.61 489.293C1413.44 476.551 1399.77 466.525 1388.46 473.05L987.504 704.509Z" fill="#182025"/>
</svg>
