<svg width="174" height="174" viewBox="0 0 174 174" fill="none" xmlns="http://www.w3.org/2000/svg"><g clip-path="url(#clip0)"><path d="M164.25 174H9.75C4.365 174 0 169.635 0 164.25V36h174v128.25a9.75 9.75 0 01-9.75 9.75z" fill="#ECF0F1"/><path d="M174 36H0V9.75A9.75 9.75 0 019.75 0h154.5c5.385 0 9.75 4.365 9.75 9.75V36z" fill="#687492"/><path d="M24 12H12v12h12V12z" fill="#E64C3C"/><path d="M48 12H36v12h12V12z" fill="#F0C419"/><path d="M72 12H60v12h12V12z" fill="#24AE5F"/><path d="M159 51H15v57h144V51z" fill="#26B99A"/><path d="M60 96a2.992 2.992 0 01-2.12-.879 2.996 2.996 0 010-4.242l12-12a2.996 2.996 0 014.241 0 2.996 2.996 0 010 4.242l-12 12a2.992 2.992 0 01-2.12.88z" fill="#fff"/><path d="M84 96a2.992 2.992 0 01-2.12-.879l-12-12a2.996 2.996 0 010-4.241 2.996 2.996 0 014.241 0l12 12a2.996 2.996 0 010 4.241 2.992 2.992 0 01-2.12.88z" fill="#fff"/><path d="M78 90a2.992 2.992 0 01-2.12-.879 2.996 2.996 0 010-4.242l12-12a2.996 2.996 0 014.241 0 2.996 2.996 0 010 4.242l-12 12a2.993 2.993 0 01-2.12.88z" fill="#fff"/><path d="M102 90a2.991 2.991 0 01-2.12-.879l-12-12a2.996 2.996 0 010-4.241 2.996 2.996 0 014.241 0l12 12a2.997 2.997 0 010 4.241 2.993 2.993 0 01-2.121.88zM116.931 75h-5.862A3.069 3.069 0 01108 71.931V66.07A3.069 3.069 0 01111.069 63h5.862A3.069 3.069 0 01120 66.07v5.861a3.069 3.069 0 01-3.069 3.07z" fill="#fff"/><path d="M123 126H15a3 3 0 110-6h108a3 3 0 110 6zM159 126h-21a3 3 0 110-6h21a3 3 0 110 6zM159 138H51a3 3 0 110-6h108a3 3 0 110 6zM36 138H15a3 3 0 110-6h21a3 3 0 110 6zM123 150H15a3 3 0 110-6h108a3 3 0 110 6zM159 150h-21a3 3 0 110-6h21a3 3 0 110 6zM159 162H51a3 3 0 110-6h108a3 3 0 110 6zM36 162H15a3 3 0 110-6h21a3 3 0 110 6z" fill="#BDC3C7"/></g><defs><clipPath id="clip0"><path fill="#fff" d="M0 0h174v174H0z"/></clipPath></defs></svg>