<svg width="18" height="18" viewBox="0 0 18 18" fill="none" xmlns="http://www.w3.org/2000/svg">
<path d="M18 5.94141C18 4.76684 18 3.94513 18 3.86719C18 2.99486 17.2903 2.28516 16.418 2.28516H16.207V4.21875C16.207 4.50998 15.9709 4.74609 15.6797 4.74609C15.3885 4.74609 15.1523 4.50998 15.1523 4.21875C15.1523 3.62675 15.1523 1.99575 15.1523 1.40625C15.1523 1.11502 14.9162 0.878906 14.625 0.878906C14.3338 0.878906 14.0977 1.11502 14.0977 1.40625V2.28516H10.582V4.21875C10.582 4.50998 10.3459 4.74609 10.0547 4.74609C9.76345 4.74609 9.52734 4.50998 9.52734 4.21875C9.52734 3.62675 9.52734 1.99575 9.52734 1.40625C9.52734 1.11502 9.29123 0.878906 9 0.878906C8.70877 0.878906 8.47266 1.11502 8.47266 1.40625V2.28516H4.95703V4.21875C4.95703 4.50998 4.72092 4.74609 4.42969 4.74609C4.13845 4.74609 3.90234 4.50998 3.90234 4.21875C3.90234 3.62675 3.90234 1.99575 3.90234 1.40625C3.90234 1.11502 3.66623 0.878906 3.375 0.878906C3.08377 0.878906 2.84766 1.11502 2.84766 1.40625V2.28516H1.58203C0.709699 2.28516 0 2.99486 0 3.86719V5.94141H18Z" fill="#919191"/>
<path d="M0 6.99609V15.5391C0 16.4114 0.709699 17.1211 1.58203 17.1211H16.418C17.2903 17.1211 18 16.4114 18 15.5391C18 15.3132 18 10.3777 18 6.99609C17.6718 6.99609 0.181547 6.99609 0 6.99609ZM5.0625 14.3086H3.9375C3.64627 14.3086 3.41016 14.0725 3.41016 13.7812C3.41016 13.49 3.64627 13.2539 3.9375 13.2539H5.0625C5.35373 13.2539 5.58984 13.49 5.58984 13.7812C5.58984 14.0725 5.35373 14.3086 5.0625 14.3086ZM5.0625 12.0586H3.9375C3.64627 12.0586 3.41016 11.8225 3.41016 11.5312C3.41016 11.24 3.64627 11.0039 3.9375 11.0039H5.0625C5.35373 11.0039 5.58984 11.24 5.58984 11.5312C5.58984 11.8225 5.35373 12.0586 5.0625 12.0586ZM5.0625 9.80859H3.9375C3.64627 9.80859 3.41016 9.57248 3.41016 9.28125C3.41016 8.99002 3.64627 8.75391 3.9375 8.75391H5.0625C5.35373 8.75391 5.58984 8.99002 5.58984 9.28125C5.58984 9.57248 5.35373 9.80859 5.0625 9.80859ZM9.5625 14.3086H8.4375C8.14627 14.3086 7.91016 14.0725 7.91016 13.7812C7.91016 13.49 8.14627 13.2539 8.4375 13.2539H9.5625C9.85373 13.2539 10.0898 13.49 10.0898 13.7812C10.0898 14.0725 9.85373 14.3086 9.5625 14.3086ZM9.5625 12.0586H8.4375C8.14627 12.0586 7.91016 11.8225 7.91016 11.5312C7.91016 11.24 8.14627 11.0039 8.4375 11.0039H9.5625C9.85373 11.0039 10.0898 11.24 10.0898 11.5312C10.0898 11.8225 9.85373 12.0586 9.5625 12.0586ZM9.5625 9.80859H8.4375C8.14627 9.80859 7.91016 9.57248 7.91016 9.28125C7.91016 8.99002 8.14627 8.75391 8.4375 8.75391H9.5625C9.85373 8.75391 10.0898 8.99002 10.0898 9.28125C10.0898 9.57248 9.85373 9.80859 9.5625 9.80859ZM14.0625 14.3086H12.9375C12.6463 14.3086 12.4102 14.0725 12.4102 13.7812C12.4102 13.49 12.6463 13.2539 12.9375 13.2539H14.0625C14.3537 13.2539 14.5898 13.49 14.5898 13.7812C14.5898 14.0725 14.3537 14.3086 14.0625 14.3086ZM14.0625 12.0586H12.9375C12.6463 12.0586 12.4102 11.8225 12.4102 11.5312C12.4102 11.24 12.6463 11.0039 12.9375 11.0039H14.0625C14.3537 11.0039 14.5898 11.24 14.5898 11.5312C14.5898 11.8225 14.3537 12.0586 14.0625 12.0586ZM14.0625 9.80859H12.9375C12.6463 9.80859 12.4102 9.57248 12.4102 9.28125C12.4102 8.99002 12.6463 8.75391 12.9375 8.75391H14.0625C14.3537 8.75391 14.5898 8.99002 14.5898 9.28125C14.5898 9.57248 14.3537 9.80859 14.0625 9.80859Z" fill="#919191"/>
</svg>