<svg width="17" height="17" viewBox="0 0 17 17" fill="none" xmlns="http://www.w3.org/2000/svg">
<path d="M8.5 0C3.81291 0 0 3.81291 0 8.5C0 13.1871 3.81291 17 8.5 17C13.1871 17 17 13.1871 17 8.5C17 3.81291 13.1871 0 8.5 0ZM12.5425 12.8966C12.4044 13.0347 12.223 13.1042 12.0417 13.1042C11.8604 13.1042 11.6789 13.0347 11.5409 12.8966L7.99923 9.35498C7.86603 9.22256 7.79171 9.04253 7.79171 8.85421V4.25C7.79171 3.85831 8.10896 3.54171 8.5 3.54171C8.89104 3.54171 9.20829 3.85831 9.20829 4.25V8.56096L12.5425 11.895C12.8194 12.1721 12.8194 12.6197 12.5425 12.8966Z" fill="#909090"/>
</svg>