<svg width="139" height="196" viewBox="0 0 139 196" fill="none" xmlns="http://www.w3.org/2000/svg"><g clip-path="url(#clip0)"><path d="M32.713 0h21.076v8.805H41.526v8.804H53.79v8.805H32.713V0zm25.29 0H79.08v7.656H66.817v1.532H79.08v17.609H58.004v-8.04h12.262v-1.53H58.004V0h-.001zm25.292 0h21.076v7.656H92.109v1.532h12.262v17.609H83.295v-8.04h12.263v-1.53H83.295V0z" fill="#000"/><path fill-rule="evenodd" clip-rule="evenodd" d="M126.337 180.235L139 38.519H0l12.65 141.739L69.415 196l56.922-15.765z" fill="#264DE4"/><path d="M128 49H70l.5 135 46.5-12.5L128 49z" fill="#2965F1"/><path fill-rule="evenodd" clip-rule="evenodd" d="M29 102.677l1.56 17.383h60.308l-2.02 22.546-19.408 5.233-.016.005-19.38-5.227-1.24-13.865H31.337l2.438 27.295 35.646 9.886.08-.022v-.003l35.613-9.861 4.35-48.702.425-4.668 3.142-35.185H25.866l1.582 17.384H93.96l-1.583 17.801H29z" fill="#fff"/></g><defs><clipPath id="clip0"><path fill="#fff" d="M0 0h139v196H0z"/></clipPath></defs></svg>