<svg width="315" height="217" viewBox="0 0 315 217" fill="none" xmlns="http://www.w3.org/2000/svg"><path d="M244.077 36.07h0a42.645 42.645 0 0131.479 11.684 42.543 42.543 0 0113.223 30.823v91.346a42.554 42.554 0 01-13.337 30.925 42.629 42.629 0 01-31.657 11.572l-53.107-2.979c-49.94-2.801-107.342-6.02-145.951-8.187C22.151 199.984 4.5 181.331 4.5 158.757V88.34c0-22.687 17.82-41.395 40.518-42.507h0l38.188-1.873c51.887-2.544 116.965-5.735 160.871-7.89z" fill="#FD870B" stroke="#fff" stroke-width="9"/><path fill-rule="evenodd" clip-rule="evenodd" d="M231.274 148.199c8.429-3.441 14.795-3.553 23.76-3.242 5.421.186 11.028.571 16.449.397 2.139-.074 5.583-1.23 7.535.149 3.046 2.149 2.959 6.099 2.859 9.44-.174 6.36-.559 12.682-1.392 19.005-.435 3.279-1.293 7.341-4.116 9.415-4.625 3.391-10.232 2.944-15.653 3.093-5.844.162-12.583.658-18.128-1.776-12.968-5.714-13.403-26.122-11.725-37.388" fill="#fff"/><path fill-rule="evenodd" clip-rule="evenodd" d="M230.988 145.528c.497-4.335-.61-8.074-1.244-12.297-.646-4.348-.025-8.658-1.529-12.894-4.849-13.675-15.529-24.532-22.107-37.288-5.097-9.9-7.659-23.017-7.298-34.06.162-5.154 1.368-11.663 4.75-15.762 2.275-2.758 5.495-4.658 7.982-7.217 4.55-4.683 9.151-9.142 14.883-12.384 13.341-7.54 30.424-7.13 44.834-4.149 7.361 1.516 15.48 3.702 21.436 8.571 16.461 13.452 16.499 31.14 14.422 50.244-.783 7.217-2.026 15.29-4.811 22.048-3.333 8.099-8.331 15.34-12.135 23.191-2.512 5.179-4.029 10.446-5.62 15.936-.871 2.981-1.716 6.993-4.228 9.105-5.993 5.018-16.064 3.552-23.2 4.049-6.714.46-13.093 2.236-19.844 1.851" fill="#F1CE30"/><path fill-rule="evenodd" clip-rule="evenodd" d="M275.139 45.276l-.1.149c-3.046 5.217-3.867 11.8-4.488 17.812a34.008 34.008 0 002.039-4.273c1.591-4.161 2.959-9.18 2.549-13.688zm-40.459 4.943c-.708 1.28-.621 3.006-.497 4.422.435 4.931 2.462 9.85 6.13 13.229l.385.348-.273-1.64a68.073 68.073 0 00-1.095-5.217c-.397-1.615-.373-1.552-.895-3.167-.273-.833-.646-1.988-.982-2.808-.435-1.093-1.219-2.943-2.275-4.52a4.788 4.788 0 00-.498-.647zm25.203 87.719c-.137-11.415.46-16.47.062-29.438-.236-7.801-.497-15.663-.46-23.526a17.893 17.893 0 01-4.14.497 15.896 15.896 0 01-2.736-.211c.311 4.173.56 8.347.808 12.508.784 13.241 1.654 27.178-.795 40.382.447 0 .882-.013 1.33-.013 2.014-.025 3.979-.099 5.931-.199zm17.755-.894c.124-14.483 6.925-27.19 14.497-39.276 3.469-5.528 11.227-16.843 12.632-32.184 1.753-19.128-4.003-39.636-20.9-48.828-2.922-1.59-10.668-6.036-25.65-6.77-15.219-.732-28.634 4.286-33.235 7.006-16.573 9.813-21.335 30.495-19.682 48.518 1.393 15.253 10.146 26.147 13.789 31.513 8.43 12.409 16.039 25.55 15.989 41.002v.112c2.499.025 4.949.05 7.41.05 2.798-12.943 1.791-26.768 1.02-39.848-.336-5.626-.659-11.278-1.169-16.905-3.344-1.863-6.415-4.124-8.74-6.273-5.484-5.043-8.666-12.322-9.301-19.675-.397-4.608.697-10.086 4.302-13.403 2.164-1.987 4.34-2.583 6.329-2.509 1.927.075 3.805.833 5.496 2.236 2.934 2.447 5.333 7.403 6.328 9.9.398.993.87 2.41 1.194 3.416.634 1.95.597 1.875 1.081 3.825a87.814 87.814 0 011.244 5.925 182.455 182.455 0 011.417 10.062c1.219.372 2.437.584 3.606.584 1.554-.013 3.046-.435 4.463-1.119.162-3.54.398-7.055.759-10.57.796-7.776 1.952-16.545 5.955-23.414 1.02-1.752 2.823-4.1 4.899-5.391 2.338-1.453 4.961-1.863 7.659-.683 3.73 1.627 5.645 6.16 6.006 9.8.596 6.025-1.02 12.782-3.146 18.359-2.213 5.788-6.677 12.682-12.322 17.29l-.062.05c-.211 9.453.125 18.955.398 28.345.386 12.856-.186 17.949-.074 29.153 2.573-.136 5.172-.248 7.808-.298zm.223 9.937c-8.007.1-15.616.981-23.772 1.093-6.664.087-12.807.087-19.26.013.013 2.26.075 5.117.175 8.247l42.82-6.459c.013-.559.025-1.055.025-1.478l.012-1.416zm-.472 13.005l-42 6.335c.087 1.975.174 3.925.274 5.776l41.39-5.838c.112-2.112.224-4.236.336-6.273zm-.932 16.396l-24.084 3.404 23.897-.36c.062-.932.124-1.951.187-3.044zm-51.338-38.381h-.211l-.174 9.937h.136c.013 2.658.1 6.136.224 9.899l-6.117.92 1.492 9.825 5.035-.758c.087 1.963.175 3.876.262 5.677l-5.036.708 1.393 9.837 4.165-.584c.062 1.205.099 1.889.099 1.889l.274 4.757 58.946-.894.299-4.584s.261-4.136.597-9.676l7.646-1.081-1.392-9.837-5.67.807c.124-2.174.236-4.335.336-6.372l7.721-1.168-1.492-9.825-5.856.882.037-4.857h-.05l-.186-4.558c-.535-13.391 6.042-24.868 12.955-35.886 3.929-6.26 12.521-19.178 14.112-36.555 2.102-23.042-5.694-47.388-26.06-58.455-3.419-1.85-12.433-7.117-29.927-7.962-17.78-.87-33.409 5.204-38.78 8.384-19.918 11.8-26.508 36.308-24.519 57.97 1.604 17.452 11.29 30.048 15.467 36.184 7.311 10.744 14.324 21.973 14.274 35.376z" fill="#355DFA"/><g clip-path="url(#clip0)"><path d="M177.409 116.419c-5.652-19.42-12.026-29.453-12.129-29.633-.363-.444-9.37-11.222-31.079-19.195l-2.868 7.81c10.327 3.793 17.654 8.42 21.683 11.41-12.03-3.592-26.341-5.793-39.016-5.793-12.675 0-26.986 2.2-39.016 5.793 4.029-2.99 11.356-7.617 21.683-11.41l-2.868-7.81C72.09 75.564 63.084 86.342 62.72 86.786c-.103.18-6.477 10.213-12.128 29.633-5.448 18.714-7.517 45.114-7.592 46.172.485.759 11.648 19.818 42.071 19.818l7.711-11.166a82 82 0 01-24.418-11.013l4.61-6.926c12.166 8.097 26.353 12.378 41.026 12.378 14.673 0 28.86-4.281 41.026-12.378l4.61 6.926a82.002 82.002 0 01-24.418 11.013l7.711 11.166c30.423 0 41.586-19.059 42.071-19.818-.075-1.058-2.144-27.458-7.591-46.172zm-82.645 21.766h-8.32v-13.867h8.32v13.867zm46.792 0h-8.32v-13.867h8.32v13.867z" fill="#fff"/></g><defs><clipPath id="clip0"><path fill="#fff" transform="translate(43 54)" d="M0 0h142v142H0z"/></clipPath></defs></svg>