<svg width="370" height="383" viewBox="0 0 370 383" fill="none" xmlns="http://www.w3.org/2000/svg"><g opacity=".2" filter="url(#filter0_f)"><ellipse cx="175.316" cy="328.322" rx="157.971" ry="37.301" fill="#FFC200"/></g><g filter="url(#filter1_iiii)"><path d="M48.185 160.296c10.28 1.416 27.642 1.369 37.694 1.369l-5.14-23.955H58.122c-14.393 0-21.588 5.818-21.588 13.346 0 3.765 4.183 8.211 11.651 9.24z" fill="#FF6C2B"/></g><g filter="url(#filter2_f)"><path d="M78.682 154.136c-.822-5.201-15.42-13.004-24.33-14.031l4.455-3.422 7.196-4.448 16.106 4.448c.343 6.502-2.605 22.655-3.427 17.453z" fill="#FF3901"/></g><path d="M85.879 161.665c-10.052 0-27.414.047-37.694-1.369" stroke="url(#paint0_linear)" stroke-width="1.726"/><g filter="url(#filter3_f)"><path d="M311.465 328.363c0 20.754-59.532 37.578-132.969 37.578S45.527 347.699 45.527 326.945s59.532-36.16 132.969-36.16 132.969 16.824 132.969 37.578z" fill="url(#paint1_linear)"/></g><g opacity=".8" filter="url(#filter4_f)"><path d="M310.742 325.111c0 22.151-59.694 40.108-133.33 40.108-79.788 0-133.33-20.087-133.33-42.237 0-22.151 59.694-37.978 133.33-37.978 73.636 0 133.33 17.957 133.33 40.107z" fill="url(#paint2_linear)"/><path d="M309.016 325.111c0 4.703-3.175 9.528-9.752 14.206-6.532 4.645-16.096 8.9-28.07 12.502-23.927 7.197-57.084 11.674-93.782 11.674-39.77 0-72.907-5.008-96.04-12.723-11.575-3.861-20.552-8.369-26.601-13.193-6.068-4.84-8.963-9.805-8.963-14.595 0-4.688 3.158-9.377 9.724-13.853 6.526-4.449 16.087-8.441 28.065-11.78 23.932-6.671 57.099-10.619 93.815-10.619 36.698 0 69.855 4.477 93.782 11.674 11.974 3.602 21.538 7.856 28.07 12.502 6.577 4.677 9.752 9.502 9.752 14.205z" stroke="#EF4900" stroke-width="3.452"/></g><g filter="url(#filter5_f)"><path d="M51.999 89.8c4.41.685 23.258.343 31.481 0-2.056 8.213-3.084 32.51 1.074 45.857 3.16 10.145-1.373 7.87-10.624 7.87-67.506-20.19-53.456-60.57-42.834-60.57 9.253 0 10.7 5.26 20.903 6.843z" fill="url(#paint3_linear)"/></g><g filter="url(#filter6_iiii)"><path d="M51.999 89.8c5.438 1.027 23.258.343 31.481 0-2.056 8.213-3.084 32.51 1.074 45.857 3.16 10.145-1.373 7.87-10.624 7.87-67.506-20.19-53.456-60.57-42.834-60.57 9.253 0 10.758 4.928 20.903 6.843z" fill="url(#paint4_linear)"/></g><path d="M51.999 89.8c5.438 1.027 23.258.343 31.481 0-2.056 8.213-3.084 32.51 1.074 45.857 3.16 10.145-1.373 7.87-10.624 7.87-67.506-20.19-53.456-60.57-42.834-60.57 9.253 0 10.758 4.928 20.903 6.843z" stroke="url(#paint5_linear)" stroke-width=".863"/><g opacity=".4" filter="url(#filter7_f)"><path d="M23.901 277.674c0-73.643 57.34-91.826 86.011-91.712l160.37-5.133c21.931 0 31.183-31.826 50.03-31.826s37.074 37.169 31.868 101.295c-7.584 93.423-92.567 110.192-185.042 110.192-71.386 0-143.237-9.172-143.237-82.816z" fill="#FFC700"/><path d="M23.901 277.674c0-73.643 57.34-91.826 86.011-91.712l160.37-5.133c21.931 0 31.183-31.826 50.03-31.826s37.074 37.169 31.868 101.295c-7.584 93.423-92.567 110.192-185.042 110.192-71.386 0-143.237-9.172-143.237-82.816z" stroke="url(#paint6_linear)" stroke-width=".431"/></g><g filter="url(#filter8_iiiiiiii)"><path d="M23.901 277.674c0-73.643 52.726-91.712 86.011-91.712l160.37-5.133c21.931 0 31.183-31.826 50.03-31.826s37.074 37.169 31.868 101.295c-7.584 93.423-92.567 110.192-185.042 110.192-79.888 0-143.237-12.662-143.237-82.816z" fill="#FFC700"/></g><path d="M23.901 277.674c0-73.643 52.726-91.712 86.011-91.712l160.37-5.133c21.931 0 31.183-31.826 50.03-31.826s37.074 37.169 31.868 101.295c-7.584 93.423-92.567 110.192-185.042 110.192-79.888 0-143.237-12.662-143.237-82.816z" stroke="url(#paint7_linear)" stroke-opacity=".3" stroke-width=".431"/><g opacity=".4" filter="url(#filter9_f)"><path d="M273.365 57.975a41.241 41.241 0 01-2.251-2.93c-3.728-4.503-12.132-13.373-25.551-20.683-13.581-7.398-23.758-9.465-28.384-10.042a23.281 23.281 0 01-2.753-.224s.959 0 2.753.224c6.615.175 16.391-1.812 16.391-7.753 0-6.16.731-11.635 5.528-11.635 13.022 0 17.819 15.4 21.931 29.43 2.568 8.76 6.972 16.284 10.085 20.684 1.509 1.822 2.251 2.929 2.251 2.929z" fill="#FE9101"/></g><g filter="url(#filter10_iii)"><path d="M273.365 57.975c-.26-.304-.552-.661-.871-1.07-2.759-3.26-12.045-13.377-27.616-21.858-15.209-8.285-25.702-10.33-29.187-10.81a18.468 18.468 0 01-1.265-.141s.432.025 1.265.14c6.441.502 17.238-1.608 17.879-8.011.648-6.47.731-11.293 5.528-11.293 13.022 0 17.819 15.4 21.931 29.43 2.978 10.159 8.425 18.654 11.465 22.544.58.686.871 1.069.871 1.069z" fill="#FFF200"/></g><mask id="a" maskUnits="userSpaceOnUse" x="23" y="147" width="332" height="215"><path d="M24.198 277.332c-2.663-73.596 52.726-91.712 86.011-91.712l157.629-8.214c21.931 0 33.924-28.745 52.771-28.745s37.074 37.169 31.868 101.294c-7.584 93.424-92.566 110.192-185.042 110.192-79.888 0-140.697-12.633-143.237-82.815z" fill="#FFC700"/><path d="M24.198 277.332c-2.663-73.596 52.726-91.712 86.011-91.712l157.629-8.214c21.931 0 33.924-28.745 52.771-28.745s37.074 37.169 31.868 101.294c-7.584 93.424-92.566 110.192-185.042 110.192-79.888 0-140.697-12.633-143.237-82.815z" stroke="url(#paint8_linear)" stroke-opacity=".3" stroke-width="1.726"/><path d="M24.198 277.332c-2.663-73.596 52.726-91.712 86.011-91.712l157.629-8.214c21.931 0 33.924-28.745 52.771-28.745s37.074 37.169 31.868 101.294c-7.584 93.424-92.566 110.192-185.042 110.192-79.888 0-140.697-12.633-143.237-82.815z" stroke="url(#paint9_linear)" stroke-width="1.726"/></mask><g mask="url(#a)"><g filter="url(#filter11_dif)"><path d="M264.592 202.196c53.564-6.11 65.582-43.688 56.202-51.631-9.381-7.944-19.463 7.17-42.811 20.613-23.348 13.442-94.423 14.521-139.06 12.382-44.636-2.139-75.65 9.776-80.458 16.498-4.807 6.721 27.072 0 75.308 5.475 46.788 5.311 63.865 4.301 130.819-3.337z" fill="url(#paint10_linear)"/></g><g filter="url(#filter12_f)"><path d="M289.785 340.708c0 9.845-45.134 24.511-100.81 24.511-55.677 0-100.81-10.615-100.81-20.459 0-9.845 45.133 4.051 100.81 4.051 55.676 0 100.81-17.948 100.81-8.103z" fill="#FB8A00"/></g></g><g filter="url(#filter13_iiif)"><path d="M289.814 109.074c-.78 32.28-5.871 54.644-22.662 66.279 0 37.348-142.355 39.254-156.794 8.54-7.045-4.379-13.368-10.977-17.712-20.517-3.781-8.302 8.256-21.548 6.358-30.903-7.196-5.818-16.552-23.436-16.552-35.72 0-49.201 42.466-76.08 101.134-76.08 21.2 0 33.879 16.171 51.698 29.089 22.553 16.35 54.53 32.487 54.53 59.312z" fill="#FF8100"/></g><mask id="b" maskUnits="userSpaceOnUse" x="21" y="83" width="75" height="62"><path d="M51.314 90.485c5.438 1.026 23.258.342 31.481 0-2.056 8.213 8.178 32.51 12.336 45.856 3.16 10.145-12.635 7.871-21.886 7.871C5.739 124.021 19.789 83.64 30.41 83.64c9.253 0 10.758 4.93 20.903 6.845z" fill="url(#paint11_linear)" stroke="url(#paint12_linear)" stroke-width=".863"/></mask><g filter="url(#filter14_ddf)" mask="url(#b)"><path d="M74.85 130.523c-44.827-9.239-49.281-30.456-44.827-47.288l53.079 4.484c0 2.053-.444 10.367 2.36 21.318 3.65 14.256 39.221 31.758-10.612 21.486z" fill="url(#paint13_linear)"/></g><g filter="url(#filter15_iiii)"><path d="M290.111 109.074c0 25.556-3.02 50.461-22.274 65.937-28.099 22.586-121.648 28.404-155.126 10.251-6.721-4.177-15.092-11.102-19.601-19.491-3.131-5.824 6.462-24.675 4.42-31.483-4.42-8.898-14.735-22.36-14.735-42.233 0-43.72 42.419-72.066 101.088-72.066 66.349 0 106.228 39.885 106.228 89.085z" fill="#FFB600"/></g><g filter="url(#filter16_diiif)"><path d="M91.75 280.412c0-32.578 26.728-45.058 40.092-47.225 19.19-3.112 34.267 3.764 58.597 3.764 23.302 0 37.694-4.106 56.883-2.737 14.014.999 21.579 16.696 15.375 29.088-3.427 6.844-15.375 18.709-33.924 23.955 8.566 0 29.506-10.699 31.571-8.898 2.353 2.053 0 17.111-9.64 26.416-20.124 23.655-66.328 28.338-85.623 28.338-25.015 0-73.331-11.978-73.331-52.701z" fill="url(#paint14_linear)"/><path d="M91.75 280.412c0-32.578 26.728-45.058 40.092-47.225 19.19-3.112 34.267 3.764 58.597 3.764 23.302 0 37.694-4.106 56.883-2.737 14.014.999 21.579 16.696 15.375 29.088-3.427 6.844-15.375 18.709-33.924 23.955 8.566 0 29.506-10.699 31.571-8.898 2.353 2.053 0 17.111-9.64 26.416-20.124 23.655-66.328 28.338-85.623 28.338-25.015 0-73.331-11.978-73.331-52.701z" stroke="#ED9600" stroke-width=".863"/></g><g opacity=".5" filter="url(#filter17_f)"><path d="M229.458 285.203c11.993-1.369 30.155-12.662 33.924-23.955" stroke="url(#paint15_linear)" stroke-width="2.589"/></g><g filter="url(#filter18_ddiif)"><path d="M120.535 79.534c3.723-9.24 2.631-14.426-.685-15.742-6.9-2.737-13.764 1.425-19.534 8.898-7.927 10.266-9.592 24.959-3.426 27.719 9.939 4.449 21.286-15.021 23.645-20.875z" fill="url(#paint16_linear)"/><path d="M120.535 79.534c3.723-9.24 2.631-14.426-.685-15.742-6.9-2.737-13.764 1.425-19.534 8.898-7.927 10.266-9.592 24.959-3.426 27.719 9.939 4.449 21.286-15.021 23.645-20.875z" stroke="url(#paint17_linear)" stroke-width=".863"/></g><g opacity=".95" filter="url(#filter19_ddif)"><ellipse rx="5.577" ry="7.963" transform="rotate(34.282 -64.549 214.144) skewX(-.072)" fill="#fff"/><path d="M113.658 76.457c-1.197 1.752-2.768 2.982-4.323 3.569-1.556.587-3.054.517-4.178-.249-1.125-.766-1.735-2.135-1.755-3.796-.019-1.66.556-3.569 1.753-5.32 1.197-1.751 2.768-2.982 4.323-3.568 1.556-.587 3.054-.518 4.178.248 1.125.767 1.735 2.135 1.755 3.796.019 1.66-.556 3.57-1.753 5.32z" stroke="#000" stroke-width=".863"/></g><g opacity=".9" filter="url(#filter20_if)"><ellipse rx="3.039" ry="4.339" transform="rotate(29.009 -116.914 234.925) skewX(-.065)" fill="#fff"/><path d="M101.539 87.434c-.545.979-1.307 1.695-2.081 2.07-.775.378-1.522.4-2.099.08-.577-.32-.953-.965-1.042-1.82-.09-.856.116-1.88.66-2.86.545-.979 1.307-1.695 2.081-2.071.775-.377 1.522-.4 2.099-.08.577.321.953.965 1.042 1.822.089.855-.116 1.88-.66 2.859z" stroke="#000" stroke-width=".863"/></g><g filter="url(#filter21_f)"><path d="M102.285 166.36c4.807 1.717 14.421 1.717 14.421-12.014.439-19.523-10.454-32.297-19.228-35.56-1.469-.546-3.204-1.169-4.166-.826-2.884 1.373 2.18 2.883-3.204 3.433-6.73.686-12.454 9.954-12.454 24.372 0 12.135 8.608 16.478 12.454 18.195 3.076 1.373 9.4 2.4 12.177 2.4z" fill="#FF5A11"/><path d="M92.877 116.741l-.062.022-.059.028c-.913.435-1.652 1.111-1.697 2.151-.018.404.083.75.165.978-.292.065-.696.129-1.248.185-3.947.403-7.37 3.291-9.757 7.709-2.399 4.439-3.86 10.584-3.86 17.951 0 6.412 2.29 10.844 5.134 13.888 2.815 3.012 6.124 4.612 8.087 5.489 1.681.75 4.153 1.372 6.493 1.806 2.235.414 4.482.68 5.988.705 2.59.876 6.471 1.323 9.816-.349 3.576-1.788 6.12-5.769 6.123-12.943.444-19.983-10.708-33.306-20.07-36.788-.727-.27-1.595-.589-2.416-.791-.759-.186-1.766-.352-2.637-.041zm-1.426 3.747l-.002-.011a.055.055 0 01.002.011z" stroke="url(#paint18_linear)" stroke-width="2.589"/></g><g filter="url(#filter22_ddiif)"><path d="M102.285 166.361c4.807 1.716 14.421 1.716 14.421-12.015.439-19.523-10.455-32.297-19.228-35.56-1.47-.546-3.205-1.169-4.166-.826-2.884 1.373 2.18 2.884-3.205 3.433-6.73.686-13.138 9.955-13.138 24.372s9.293 17.163 13.138 18.879c3.077 1.373 9.4 1.717 12.178 1.717z" fill="#FF5A11"/><path d="M93.022 117.147l-.041.015-.04.019c-.849.404-1.416.972-1.451 1.78-.015.341.074.637.15.844.04.105.083.205.116.284l.048.112c-.078.031-.19.068-.343.106-.326.083-.79.161-1.441.227-3.738.382-7.228 3.118-9.752 7.462-2.534 4.361-4.162 10.439-4.162 17.769 0 7.419 2.402 11.942 5.39 14.824 2.51 2.419 5.406 3.636 7.347 4.453.335.14.641.269.913.39 1.67.745 4.135 1.185 6.457 1.443a58.58 58.58 0 005.924.348c2.527.87 6.315 1.311 9.547-.305 3.385-1.692 5.882-5.491 5.884-12.562.443-19.829-10.623-32.969-19.79-36.379-.728-.271-1.574-.581-2.368-.775-.751-.185-1.647-.319-2.388-.055z" stroke="url(#paint19_linear)" stroke-width="1.726"/></g><g filter="url(#filter23_iif)"><path d="M110.551 146.265c0 8.127-6.597 14.715-14.735 14.715-8.138 0-14.735-6.588-14.735-14.715 0-17.453 6.597-22.586 14.735-22.586 8.138 0 14.735 14.459 14.735 22.586z" fill="url(#paint20_radial)"/></g><g filter="url(#filter24_f)"><path d="M247.897 201.195c10.786-6.04 23.333-14.285 28.36-19.415 1.256 2.821 11.938-1.842 11.334 4.314-.754 7.696-52.211 22.111-39.694 15.101z" fill="url(#paint21_linear)"/></g><g opacity=".4" filter="url(#filter25_f)"><path d="M250.487 17.2c2.616 5.193 5.973 14.93 2.615 16.216-3.357 1.285-12.335-5.208-14.774-11.561-2.439-6.354-1.694-12.546 1.664-13.831 3.358-1.286 6.942 2.121 10.495 9.176z" fill="url(#paint22_radial)"/></g><g filter="url(#filter26_f)"><ellipse cx="192.449" cy="107.253" rx="59.968" ry="42.092" fill="url(#paint23_radial)"/></g><defs><filter id="filter0_f" x=".086" y="273.762" width="350.46" height="109.119" filterUnits="userSpaceOnUse" color-interpolation-filters="sRGB"><feFlood flood-opacity="0" result="BackgroundImageFix"/><feBlend in="SourceGraphic" in2="BackgroundImageFix" result="shape"/><feGaussianBlur stdDeviation="8.629" result="effect1_foregroundBlur"/></filter><filter id="filter1_iiii" x="33.083" y="134.258" width="52.796" height="30.858" filterUnits="userSpaceOnUse" color-interpolation-filters="sRGB"><feFlood flood-opacity="0" result="BackgroundImageFix"/><feBlend in="SourceGraphic" in2="BackgroundImageFix" result="shape"/><feColorMatrix in="SourceAlpha" values="0 0 0 0 0 0 0 0 0 0 0 0 0 0 0 0 0 0 127 0" result="hardAlpha"/><feOffset dx="-12.081" dy="-6.903"/><feGaussianBlur stdDeviation="1.726"/><feComposite in2="hardAlpha" operator="arithmetic" k2="-1" k3="1"/><feColorMatrix values="0 0 0 0 0.979167 0 0 0 0 0.262906 0 0 0 0 0.0367188 0 0 0 1 0"/><feBlend in2="shape" result="effect1_innerShadow"/><feColorMatrix in="SourceAlpha" values="0 0 0 0 0 0 0 0 0 0 0 0 0 0 0 0 0 0 127 0" result="hardAlpha"/><feOffset dy="-4.315"/><feGaussianBlur stdDeviation="1.726"/><feComposite in2="hardAlpha" operator="arithmetic" k2="-1" k3="1"/><feColorMatrix values="0 0 0 0 1 0 0 0 0 0.545098 0 0 0 0 0.309804 0 0 0 1 0"/><feBlend in2="effect1_innerShadow" result="effect2_innerShadow"/><feColorMatrix in="SourceAlpha" values="0 0 0 0 0 0 0 0 0 0 0 0 0 0 0 0 0 0 127 0" result="hardAlpha"/><feOffset dx="-10.355" dy="-3.452"/><feGaussianBlur stdDeviation="1.726"/><feComposite in2="hardAlpha" operator="arithmetic" k2="-1" k3="1"/><feColorMatrix values="0 0 0 0 1 0 0 0 0 0.32549 0 0 0 0 0.00392157 0 0 0 1 0"/><feBlend in2="effect2_innerShadow" result="effect3_innerShadow"/><feColorMatrix in="SourceAlpha" values="0 0 0 0 0 0 0 0 0 0 0 0 0 0 0 0 0 0 127 0" result="hardAlpha"/><feOffset dy="3.452"/><feGaussianBlur stdDeviation="1.726"/><feComposite in2="hardAlpha" operator="arithmetic" k2="-1" k3="1"/><feColorMatrix values="0 0 0 0 1 0 0 0 0 0.596078 0 0 0 0 0.32549 0 0 0 1 0"/><feBlend in2="effect3_innerShadow" result="effect4_innerShadow"/></filter><filter id="filter2_f" x="50.901" y="128.783" width="34.687" height="29.82" filterUnits="userSpaceOnUse" color-interpolation-filters="sRGB"><feFlood flood-opacity="0" result="BackgroundImageFix"/><feBlend in="SourceGraphic" in2="BackgroundImageFix" result="shape"/><feGaussianBlur stdDeviation="1.726" result="effect1_foregroundBlur"/></filter><filter id="filter3_f" x="36.898" y="282.156" width="283.196" height="92.415" filterUnits="userSpaceOnUse" color-interpolation-filters="sRGB"><feFlood flood-opacity="0" result="BackgroundImageFix"/><feBlend in="SourceGraphic" in2="BackgroundImageFix" result="shape"/><feGaussianBlur stdDeviation="4.315" result="effect1_foregroundBlur"/></filter><filter id="filter4_f" x="38.904" y="279.826" width="277.015" height="90.57" filterUnits="userSpaceOnUse" color-interpolation-filters="sRGB"><feFlood flood-opacity="0" result="BackgroundImageFix"/><feBlend in="SourceGraphic" in2="BackgroundImageFix" result="shape"/><feGaussianBlur stdDeviation="2.589" result="effect1_foregroundBlur"/></filter><filter id="filter5_f" x="20.416" y="81.23" width="66.865" height="64.241" filterUnits="userSpaceOnUse" color-interpolation-filters="sRGB"><feFlood flood-opacity="0" result="BackgroundImageFix"/><feBlend in="SourceGraphic" in2="BackgroundImageFix" result="shape"/><feGaussianBlur stdDeviation=".863" result="effect1_foregroundBlur"/></filter><filter id="filter6_iiii" x="18.259" y="79.073" width="69.453" height="65.967" filterUnits="userSpaceOnUse" color-interpolation-filters="sRGB"><feFlood flood-opacity="0" result="BackgroundImageFix"/><feBlend in="SourceGraphic" in2="BackgroundImageFix" result="shape"/><feColorMatrix in="SourceAlpha" values="0 0 0 0 0 0 0 0 0 0 0 0 0 0 0 0 0 0 127 0" result="hardAlpha"/><feOffset dx="-3.452" dy="-9.492"/><feGaussianBlur stdDeviation="1.726"/><feComposite in2="hardAlpha" operator="arithmetic" k2="-1" k3="1"/><feColorMatrix values="0 0 0 0 0.979167 0 0 0 0 0.262906 0 0 0 0 0.0367188 0 0 0 1 0"/><feBlend in2="shape" result="effect1_innerShadow"/><feColorMatrix in="SourceAlpha" values="0 0 0 0 0 0 0 0 0 0 0 0 0 0 0 0 0 0 127 0" result="hardAlpha"/><feOffset dy="-4.315"/><feGaussianBlur stdDeviation="1.726"/><feComposite in2="hardAlpha" operator="arithmetic" k2="-1" k3="1"/><feColorMatrix values="0 0 0 0 1 0 0 0 0 0.545098 0 0 0 0 0.309804 0 0 0 1 0"/><feBlend in2="effect1_innerShadow" result="effect2_innerShadow"/><feColorMatrix in="SourceAlpha" values="0 0 0 0 0 0 0 0 0 0 0 0 0 0 0 0 0 0 127 0" result="hardAlpha"/><feOffset dx="-13.807" dy="-34.517"/><feGaussianBlur stdDeviation="1.726"/><feComposite in2="hardAlpha" operator="arithmetic" k2="-1" k3="1"/><feColorMatrix values="0 0 0 0 1 0 0 0 0 0.415686 0 0 0 0 0.172549 0 0 0 0.2 0"/><feBlend in2="effect2_innerShadow" result="effect3_innerShadow"/><feColorMatrix in="SourceAlpha" values="0 0 0 0 0 0 0 0 0 0 0 0 0 0 0 0 0 0 127 0" result="hardAlpha"/><feOffset dx="1.726" dy=".863"/><feGaussianBlur stdDeviation="1.726"/><feComposite in2="hardAlpha" operator="arithmetic" k2="-1" k3="1"/><feColorMatrix values="0 0 0 0 1 0 0 0 0 0.364706 0 0 0 0 0.0470588 0 0 0 0.3 0"/><feBlend in2="effect3_innerShadow" result="effect4_innerShadow"/></filter><filter id="filter7_f" x="15.056" y="140.158" width="346.871" height="229.177" filterUnits="userSpaceOnUse" color-interpolation-filters="sRGB"><feFlood flood-opacity="0" result="BackgroundImageFix"/><feBlend in="SourceGraphic" in2="BackgroundImageFix" result="shape"/><feGaussianBlur stdDeviation="4.315" result="effect1_foregroundBlur"/></filter><filter id="filter8_iiiiiiii" x="2.112" y="94.423" width="405.55" height="310.292" filterUnits="userSpaceOnUse" color-interpolation-filters="sRGB"><feFlood flood-opacity="0" result="BackgroundImageFix"/><feBlend in="SourceGraphic" in2="BackgroundImageFix" result="shape"/><feColorMatrix in="SourceAlpha" values="0 0 0 0 0 0 0 0 0 0 0 0 0 0 0 0 0 0 127 0" result="hardAlpha"/><feOffset dy="-13.807"/><feGaussianBlur stdDeviation="14.67"/><feComposite in2="hardAlpha" operator="arithmetic" k2="-1" k3="1"/><feColorMatrix values="0 0 0 0 0.988235 0 0 0 0 0.552941 0 0 0 0 0 0 0 0 1 0"/><feBlend in2="shape" result="effect1_innerShadow"/><feColorMatrix in="SourceAlpha" values="0 0 0 0 0 0 0 0 0 0 0 0 0 0 0 0 0 0 127 0" result="hardAlpha"/><feOffset dx="111.318" dy="-69.034"/><feGaussianBlur stdDeviation="27.182"/><feComposite in2="hardAlpha" operator="arithmetic" k2="-1" k3="1"/><feColorMatrix values="0 0 0 0 0.988235 0 0 0 0 0.552941 0 0 0 0 0 0 0 0 0.2 0"/><feBlend in2="effect1_innerShadow" result="effect2_innerShadow"/><feColorMatrix in="SourceAlpha" values="0 0 0 0 0 0 0 0 0 0 0 0 0 0 0 0 0 0 127 0" result="hardAlpha"/><feOffset dx="31.065" dy="44.009"/><feGaussianBlur stdDeviation="26.751"/><feComposite in2="hardAlpha" operator="arithmetic" k2="-1" k3="1"/><feColorMatrix values="0 0 0 0 1 0 0 0 0 0.892484 0 0 0 0 0.216667 0 0 0 1 0"/><feBlend in2="effect2_innerShadow" result="effect3_innerShadow"/><feColorMatrix in="SourceAlpha" values="0 0 0 0 0 0 0 0 0 0 0 0 0 0 0 0 0 0 127 0" result="hardAlpha"/><feOffset dx="6.903" dy="14.67"/><feGaussianBlur stdDeviation="26.751"/><feComposite in2="hardAlpha" operator="arithmetic" k2="-1" k3="1"/><feColorMatrix values="0 0 0 0 1 0 0 0 0 0.862745 0 0 0 0 0 0 0 0 1 0"/><feBlend in2="effect3_innerShadow" result="effect4_innerShadow"/><feColorMatrix in="SourceAlpha" values="0 0 0 0 0 0 0 0 0 0 0 0 0 0 0 0 0 0 127 0" result="hardAlpha"/><feOffset dx="-21.573" dy="1.726"/><feGaussianBlur stdDeviation="40.558"/><feComposite in2="hardAlpha" operator="arithmetic" k2="-1" k3="1"/><feColorMatrix values="0 0 0 0 1 0 0 0 0 0.87451 0 0 0 0 0 0 0 0 1 0"/><feBlend in2="effect4_innerShadow" result="effect5_innerShadow"/><feColorMatrix in="SourceAlpha" values="0 0 0 0 0 0 0 0 0 0 0 0 0 0 0 0 0 0 127 0" result="hardAlpha"/><feOffset dx="18.984" dy="8.629"/><feGaussianBlur stdDeviation="13.807"/><feComposite in2="hardAlpha" operator="arithmetic" k2="-1" k3="1"/><feColorMatrix values="0 0 0 0 1 0 0 0 0 0.929412 0 0 0 0 0 0 0 0 1 0"/><feBlend in2="effect5_innerShadow" result="effect6_innerShadow"/><feColorMatrix in="SourceAlpha" values="0 0 0 0 0 0 0 0 0 0 0 0 0 0 0 0 0 0 127 0" result="hardAlpha"/><feOffset dy="-18.984"/><feGaussianBlur stdDeviation="7.335"/><feComposite in2="hardAlpha" operator="arithmetic" k2="-1" k3="1"/><feColorMatrix values="0 0 0 0 1 0 0 0 0 0.741176 0 0 0 0 0 0 0 0 0.4 0"/><feBlend in2="effect6_innerShadow" result="effect7_innerShadow"/><feColorMatrix in="SourceAlpha" values="0 0 0 0 0 0 0 0 0 0 0 0 0 0 0 0 0 0 127 0" result="hardAlpha"/><feOffset dy="-13.323"/><feGaussianBlur stdDeviation="8.438"/><feComposite in2="hardAlpha" operator="arithmetic" k2="-1" k3="1"/><feColorMatrix values="0 0 0 0 1 0 0 0 0 0.87451 0 0 0 0 0.0941176 0 0 0 1 0"/><feBlend in2="effect7_innerShadow" result="effect8_innerShadow"/></filter><filter id="filter9_f" x="212.7" y="3.206" width="62.392" height="56.495" filterUnits="userSpaceOnUse" color-interpolation-filters="sRGB"><feFlood flood-opacity="0" result="BackgroundImageFix"/><feBlend in="SourceGraphic" in2="BackgroundImageFix" result="shape"/><feGaussianBlur stdDeviation=".863" result="effect1_foregroundBlur"/></filter><filter id="filter10_iii" x="210.111" y="4.932" width="65.843" height="58.22" filterUnits="userSpaceOnUse" color-interpolation-filters="sRGB"><feFlood flood-opacity="0" result="BackgroundImageFix"/><feBlend in="SourceGraphic" in2="BackgroundImageFix" result="shape"/><feColorMatrix in="SourceAlpha" values="0 0 0 0 0 0 0 0 0 0 0 0 0 0 0 0 0 0 127 0" result="hardAlpha"/><feOffset dx="-4.315" dy="5.178"/><feGaussianBlur stdDeviation="8.629"/><feComposite in2="hardAlpha" operator="arithmetic" k2="-1" k3="1"/><feColorMatrix values="0 0 0 0 1 0 0 0 0 0.956863 0 0 0 0 0 0 0 0 1 0"/><feBlend in2="shape" result="effect1_innerShadow"/><feColorMatrix in="SourceAlpha" values="0 0 0 0 0 0 0 0 0 0 0 0 0 0 0 0 0 0 127 0" result="hardAlpha"/><feOffset dx="4.315" dy="1.726"/><feGaussianBlur stdDeviation="1.294"/><feComposite in2="hardAlpha" operator="arithmetic" k2="-1" k3="1"/><feColorMatrix values="0 0 0 0 1 0 0 0 0 0.784314 0 0 0 0 0 0 0 0 0.2 0"/><feBlend in2="effect1_innerShadow" result="effect2_innerShadow"/><feColorMatrix in="SourceAlpha" values="0 0 0 0 0 0 0 0 0 0 0 0 0 0 0 0 0 0 127 0" result="hardAlpha"/><feOffset dx="-.863" dy="4.315"/><feGaussianBlur stdDeviation="1.726"/><feComposite in2="hardAlpha" operator="arithmetic" k2="-1" k3="1"/><feColorMatrix values="0 0 0 0 1 0 0 0 0 1 0 0 0 0 1 0 0 0 0.4 0"/><feBlend in2="effect2_innerShadow" result="effect3_innerShadow"/></filter><filter id="filter11_dif" x="12.842" y="130.66" width="328.555" height="104.753" filterUnits="userSpaceOnUse" color-interpolation-filters="sRGB"><feFlood flood-opacity="0" result="BackgroundImageFix"/><feColorMatrix in="SourceAlpha" values="0 0 0 0 0 0 0 0 0 0 0 0 0 0 0 0 0 0 127 0"/><feOffset dx="-27.441" dy="8.852"/><feGaussianBlur stdDeviation="8.852"/><feColorMatrix values="0 0 0 0 1 0 0 0 0 0.498039 0 0 0 0 0 0 0 0 0.4 0"/><feBlend in2="BackgroundImageFix" result="effect1_dropShadow"/><feBlend in="SourceGraphic" in2="effect1_dropShadow" result="shape"/><feColorMatrix in="SourceAlpha" values="0 0 0 0 0 0 0 0 0 0 0 0 0 0 0 0 0 0 127 0" result="hardAlpha"/><feOffset dx="3.541" dy="7.967"/><feGaussianBlur stdDeviation="1.77"/><feComposite in2="hardAlpha" operator="arithmetic" k2="-1" k3="1"/><feColorMatrix values="0 0 0 0 1 0 0 0 0 0.337255 0 0 0 0 0 0 0 0 0.6 0"/><feBlend in2="shape" result="effect2_innerShadow"/><feGaussianBlur stdDeviation="8.852" result="effect3_foregroundBlur"/></filter><filter id="filter12_f" x="45.018" y="294.611" width="287.914" height="113.754" filterUnits="userSpaceOnUse" color-interpolation-filters="sRGB"><feFlood flood-opacity="0" result="BackgroundImageFix"/><feBlend in="SourceGraphic" in2="BackgroundImageFix" result="shape"/><feGaussianBlur stdDeviation="21.573" result="effect1_foregroundBlur"/></filter><filter id="filter13_iiif" x="79.864" y="-33.691" width="264.315" height="257.109" filterUnits="userSpaceOnUse" color-interpolation-filters="sRGB"><feFlood flood-opacity="0" result="BackgroundImageFix"/><feBlend in="SourceGraphic" in2="BackgroundImageFix" result="shape"/><feColorMatrix in="SourceAlpha" values="0 0 0 0 0 0 0 0 0 0 0 0 0 0 0 0 0 0 127 0" result="hardAlpha"/><feOffset dy="-13.807"/><feGaussianBlur stdDeviation="14.67"/><feComposite in2="hardAlpha" operator="arithmetic" k2="-1" k3="1"/><feColorMatrix values="0 0 0 0 0.988235 0 0 0 0 0.552941 0 0 0 0 0 0 0 0 1 0"/><feBlend in2="shape" result="effect1_innerShadow"/><feColorMatrix in="SourceAlpha" values="0 0 0 0 0 0 0 0 0 0 0 0 0 0 0 0 0 0 127 0" result="hardAlpha"/><feOffset dx="111.318" dy="-69.034"/><feGaussianBlur stdDeviation="27.182"/><feComposite in2="hardAlpha" operator="arithmetic" k2="-1" k3="1"/><feColorMatrix values="0 0 0 0 0.988235 0 0 0 0 0.552941 0 0 0 0 0 0 0 0 0.2 0"/><feBlend in2="effect1_innerShadow" result="effect2_innerShadow"/><feColorMatrix in="SourceAlpha" values="0 0 0 0 0 0 0 0 0 0 0 0 0 0 0 0 0 0 127 0" result="hardAlpha"/><feOffset dx="31.065" dy="18.122"/><feGaussianBlur stdDeviation="26.751"/><feComposite in2="hardAlpha" operator="arithmetic" k2="-1" k3="1"/><feColorMatrix values="0 0 0 0 1 0 0 0 0 0.862745 0 0 0 0 0 0 0 0 1 0"/><feBlend in2="effect2_innerShadow" result="effect3_innerShadow"/><feGaussianBlur stdDeviation="1.294" result="effect4_foregroundBlur"/></filter><filter id="filter14_ddf" x="25.213" y="79.784" width="82.857" height="64.179" filterUnits="userSpaceOnUse" color-interpolation-filters="sRGB"><feFlood flood-opacity="0" result="BackgroundImageFix"/><feColorMatrix in="SourceAlpha" values="0 0 0 0 0 0 0 0 0 0 0 0 0 0 0 0 0 0 127 0"/><feOffset dx="3.452" dy="6.903"/><feGaussianBlur stdDeviation="1.726"/><feColorMatrix values="0 0 0 0 1 0 0 0 0 1 0 0 0 0 1 0 0 0 0.1 0"/><feBlend in2="BackgroundImageFix" result="effect1_dropShadow"/><feColorMatrix in="SourceAlpha" values="0 0 0 0 0 0 0 0 0 0 0 0 0 0 0 0 0 0 127 0"/><feOffset dy="3.452"/><feGaussianBlur stdDeviation="1.726"/><feColorMatrix values="0 0 0 0 1 0 0 0 0 1 0 0 0 0 1 0 0 0 0.25 0"/><feBlend in2="effect1_dropShadow" result="effect2_dropShadow"/><feBlend in="SourceGraphic" in2="effect2_dropShadow" result="shape"/><feGaussianBlur stdDeviation="1.726" result="effect3_foregroundBlur"/></filter><filter id="filter15_iiii" x="79.343" y="6.182" width="217.671" height="243.32" filterUnits="userSpaceOnUse" color-interpolation-filters="sRGB"><feFlood flood-opacity="0" result="BackgroundImageFix"/><feBlend in="SourceGraphic" in2="BackgroundImageFix" result="shape"/><feColorMatrix in="SourceAlpha" values="0 0 0 0 0 0 0 0 0 0 0 0 0 0 0 0 0 0 127 0" result="hardAlpha"/><feOffset dy="-13.807"/><feGaussianBlur stdDeviation="14.67"/><feComposite in2="hardAlpha" operator="arithmetic" k2="-1" k3="1"/><feColorMatrix values="0 0 0 0 0.988235 0 0 0 0 0.552941 0 0 0 0 0 0 0 0 1 0"/><feBlend in2="shape" result="effect1_innerShadow"/><feColorMatrix in="SourceAlpha" values="0 0 0 0 0 0 0 0 0 0 0 0 0 0 0 0 0 0 127 0" result="hardAlpha"/><feOffset dx="6.903" dy="62.131"/><feGaussianBlur stdDeviation="26.751"/><feComposite in2="hardAlpha" operator="arithmetic" k2="-1" k3="1"/><feColorMatrix values="0 0 0 0 1 0 0 0 0 0.862745 0 0 0 0 0 0 0 0 1 0"/><feBlend in2="effect1_innerShadow" result="effect2_innerShadow"/><feColorMatrix in="SourceAlpha" values="0 0 0 0 0 0 0 0 0 0 0 0 0 0 0 0 0 0 127 0" result="hardAlpha"/><feOffset dx="6.04" dy="-7.766"/><feGaussianBlur stdDeviation="4.746"/><feComposite in2="hardAlpha" operator="arithmetic" k2="-1" k3="1"/><feColorMatrix values="0 0 0 0 1 0 0 0 0 0.509804 0 0 0 0 0 0 0 0 0.5 0"/><feBlend in2="effect2_innerShadow" result="effect3_innerShadow"/><feColorMatrix in="SourceAlpha" values="0 0 0 0 0 0 0 0 0 0 0 0 0 0 0 0 0 0 127 0" result="hardAlpha"/><feOffset dx="-3.452" dy="21.573"/><feGaussianBlur stdDeviation="12.512"/><feComposite in2="hardAlpha" operator="arithmetic" k2="-1" k3="1"/><feColorMatrix values="0 0 0 0 1 0 0 0 0 0.952941 0 0 0 0 0 0 0 0 1 0"/><feBlend in2="effect3_innerShadow" result="effect4_innerShadow"/></filter><filter id="filter16_diiif" x="74.499" y="219.554" width="222.683" height="137.005" filterUnits="userSpaceOnUse" color-interpolation-filters="sRGB"><feFlood flood-opacity="0" result="BackgroundImageFix"/><feColorMatrix in="SourceAlpha" values="0 0 0 0 0 0 0 0 0 0 0 0 0 0 0 0 0 0 127 0"/><feOffset dy="6.196"/><feGaussianBlur stdDeviation="8.409"/><feColorMatrix values="0 0 0 0 1 0 0 0 0 0.661333 0 0 0 0 0.00392157 0 0 0 1 0"/><feBlend in2="BackgroundImageFix" result="effect1_dropShadow"/><feBlend in="SourceGraphic" in2="effect1_dropShadow" result="shape"/><feColorMatrix in="SourceAlpha" values="0 0 0 0 0 0 0 0 0 0 0 0 0 0 0 0 0 0 127 0" result="hardAlpha"/><feOffset dx="31.867" dy="18.589"/><feGaussianBlur stdDeviation="27.441"/><feComposite in2="hardAlpha" operator="arithmetic" k2="-1" k3="1"/><feColorMatrix values="0 0 0 0 1 0 0 0 0 0.862745 0 0 0 0 0 0 0 0 1 0"/><feBlend in2="shape" result="effect2_innerShadow"/><feColorMatrix in="SourceAlpha" values="0 0 0 0 0 0 0 0 0 0 0 0 0 0 0 0 0 0 127 0" result="hardAlpha"/><feOffset dx="19.474" dy="15.048"/><feGaussianBlur stdDeviation="11.065"/><feComposite in2="hardAlpha" operator="arithmetic" k2="-1" k3="1"/><feColorMatrix values="0 0 0 0 1 0 0 0 0 0.929412 0 0 0 0 0 0 0 0 0.5 0"/><feBlend in2="effect2_innerShadow" result="effect3_innerShadow"/><feColorMatrix in="SourceAlpha" values="0 0 0 0 0 0 0 0 0 0 0 0 0 0 0 0 0 0 127 0" result="hardAlpha"/><feOffset dx="-4.426" dy="-15.934"/><feGaussianBlur stdDeviation="6.196"/><feComposite in2="hardAlpha" operator="arithmetic" k2="-1" k3="1"/><feColorMatrix values="0 0 0 0 1 0 0 0 0 0.8 0 0 0 0 0 0 0 0 1 0"/><feBlend in2="effect3_innerShadow" result="effect4_innerShadow"/><feGaussianBlur stdDeviation="1.77" result="effect5_foregroundBlur"/></filter><filter id="filter17_f" x="227.585" y="259.113" width="38.751" height="29.102" filterUnits="userSpaceOnUse" color-interpolation-filters="sRGB"><feFlood flood-opacity="0" result="BackgroundImageFix"/><feBlend in="SourceGraphic" in2="BackgroundImageFix" result="shape"/><feGaussianBlur stdDeviation=".863" result="effect1_foregroundBlur"/></filter><filter id="filter18_ddiif" x="90.99" y="61.651" width="34.041" height="41.571" filterUnits="userSpaceOnUse" color-interpolation-filters="sRGB"><feFlood flood-opacity="0" result="BackgroundImageFix"/><feColorMatrix in="SourceAlpha" values="0 0 0 0 0 0 0 0 0 0 0 0 0 0 0 0 0 0 127 0"/><feOffset dy=".863"/><feColorMatrix values="0 0 0 0 0 0 0 0 0 0 0 0 0 0 0 0 0 0 1 0"/><feBlend in2="BackgroundImageFix" result="effect1_dropShadow"/><feColorMatrix in="SourceAlpha" values="0 0 0 0 0 0 0 0 0 0 0 0 0 0 0 0 0 0 127 0"/><feOffset dx="1.294" dy="-.431"/><feGaussianBlur stdDeviation=".216"/><feColorMatrix values="0 0 0 0 0 0 0 0 0 0 0 0 0 0 0 0 0 0 1 0"/><feBlend in2="effect1_dropShadow" result="effect2_dropShadow"/><feBlend in="SourceGraphic" in2="effect2_dropShadow" result="shape"/><feColorMatrix in="SourceAlpha" values="0 0 0 0 0 0 0 0 0 0 0 0 0 0 0 0 0 0 127 0" result="hardAlpha"/><feOffset dy="1.726"/><feGaussianBlur stdDeviation=".863"/><feComposite in2="hardAlpha" operator="arithmetic" k2="-1" k3="1"/><feColorMatrix values="0 0 0 0 1 0 0 0 0 1 0 0 0 0 1 0 0 0 0.25 0"/><feBlend in2="shape" result="effect3_innerShadow"/><feColorMatrix in="SourceAlpha" values="0 0 0 0 0 0 0 0 0 0 0 0 0 0 0 0 0 0 127 0" result="hardAlpha"/><feOffset dx="-1.726" dy=".863"/><feGaussianBlur stdDeviation=".863"/><feComposite in2="hardAlpha" operator="arithmetic" k2="-1" k3="1"/><feColorMatrix values="0 0 0 0 1 0 0 0 0 1 0 0 0 0 1 0 0 0 0.25 0"/><feBlend in2="effect3_innerShadow" result="effect4_innerShadow"/><feGaussianBlur stdDeviation=".216" result="effect5_foregroundBlur"/></filter><filter id="filter19_ddif" x="99.519" y="63.683" width="19.776" height="25.793" filterUnits="userSpaceOnUse" color-interpolation-filters="sRGB"><feFlood flood-opacity="0" result="BackgroundImageFix"/><feColorMatrix in="SourceAlpha" values="0 0 0 0 0 0 0 0 0 0 0 0 0 0 0 0 0 0 127 0"/><feOffset dy="5.178"/><feGaussianBlur stdDeviation="1.726"/><feColorMatrix values="0 0 0 0 0 0 0 0 0 0 0 0 0 0 0 0 0 0 0.25 0"/><feBlend in2="BackgroundImageFix" result="effect1_dropShadow"/><feColorMatrix in="SourceAlpha" values="0 0 0 0 0 0 0 0 0 0 0 0 0 0 0 0 0 0 127 0"/><feOffset dx="-.863" dy="-.863"/><feGaussianBlur stdDeviation=".863"/><feColorMatrix values="0 0 0 0 0 0 0 0 0 0 0 0 0 0 0 0 0 0 0.8 0"/><feBlend in2="effect1_dropShadow" result="effect2_dropShadow"/><feBlend in="SourceGraphic" in2="effect2_dropShadow" result="shape"/><feColorMatrix in="SourceAlpha" values="0 0 0 0 0 0 0 0 0 0 0 0 0 0 0 0 0 0 127 0" result="hardAlpha"/><feOffset dx=".863" dy="-5.178"/><feGaussianBlur stdDeviation="1.294"/><feComposite in2="hardAlpha" operator="arithmetic" k2="-1" k3="1"/><feColorMatrix values="0 0 0 0 0 0 0 0 0 0 0 0 0 0 0 0 0 0 0.15 0"/><feBlend in2="shape" result="effect3_innerShadow"/><feGaussianBlur stdDeviation=".647" result="effect4_foregroundBlur"/></filter><filter id="filter20_if" x="94.571" y="79.511" width="9.375" height="12.022" filterUnits="userSpaceOnUse" color-interpolation-filters="sRGB"><feFlood flood-opacity="0" result="BackgroundImageFix"/><feBlend in="SourceGraphic" in2="BackgroundImageFix" result="shape"/><feColorMatrix in="SourceAlpha" values="0 0 0 0 0 0 0 0 0 0 0 0 0 0 0 0 0 0 127 0" result="hardAlpha"/><feOffset dx=".863" dy="-5.178"/><feGaussianBlur stdDeviation="1.294"/><feComposite in2="hardAlpha" operator="arithmetic" k2="-1" k3="1"/><feColorMatrix values="0 0 0 0 0 0 0 0 0 0 0 0 0 0 0 0 0 0 0.05 0"/><feBlend in2="shape" result="effect1_innerShadow"/><feGaussianBlur stdDeviation=".647" result="effect2_foregroundBlur"/></filter><filter id="filter21_f" x="74.203" y="114.411" width="45.968" height="56.181" filterUnits="userSpaceOnUse" color-interpolation-filters="sRGB"><feFlood flood-opacity="0" result="BackgroundImageFix"/><feBlend in="SourceGraphic" in2="BackgroundImageFix" result="shape"/><feGaussianBlur stdDeviation=".431" result="effect1_foregroundBlur"/></filter><filter id="filter22_ddiif" x="74.38" y="110.096" width="54.42" height="63.085" filterUnits="userSpaceOnUse" color-interpolation-filters="sRGB"><feFlood flood-opacity="0" result="BackgroundImageFix"/><feColorMatrix in="SourceAlpha" values="0 0 0 0 0 0 0 0 0 0 0 0 0 0 0 0 0 0 127 0"/><feOffset dx="2.589" dy="-.863"/><feGaussianBlur stdDeviation=".431"/><feColorMatrix values="0 0 0 0 1 0 0 0 0 1 0 0 0 0 1 0 0 0 0.4 0"/><feBlend in2="BackgroundImageFix" result="effect1_dropShadow"/><feColorMatrix in="SourceAlpha" values="0 0 0 0 0 0 0 0 0 0 0 0 0 0 0 0 0 0 127 0"/><feOffset dx="5.178" dy="-.863"/><feGaussianBlur stdDeviation="2.589"/><feColorMatrix values="0 0 0 0 0.996078 0 0 0 0 0.584314 0 0 0 0 0 0 0 0 0.5 0"/><feBlend in2="effect1_dropShadow" result="effect2_dropShadow"/><feBlend in="SourceGraphic" in2="effect2_dropShadow" result="shape"/><feColorMatrix in="SourceAlpha" values="0 0 0 0 0 0 0 0 0 0 0 0 0 0 0 0 0 0 127 0" result="hardAlpha"/><feOffset dx="3.452" dy="3.452"/><feGaussianBlur stdDeviation="3.883"/><feComposite in2="hardAlpha" operator="arithmetic" k2="-1" k3="1"/><feColorMatrix values="0 0 0 0 1 0 0 0 0 0.596078 0 0 0 0 0.368627 0 0 0 1 0"/><feBlend in2="shape" result="effect3_innerShadow"/><feColorMatrix in="SourceAlpha" values="0 0 0 0 0 0 0 0 0 0 0 0 0 0 0 0 0 0 127 0" result="hardAlpha"/><feOffset dx="-.863" dy="2.589"/><feGaussianBlur stdDeviation="1.294"/><feComposite in2="hardAlpha" operator="arithmetic" k2="-1" k3="1"/><feColorMatrix values="0 0 0 0 0.929167 0 0 0 0 0.22398 0 0 0 0 0.0271007 0 0 0 0.6 0"/><feBlend in2="effect3_innerShadow" result="effect4_innerShadow"/><feGaussianBlur stdDeviation=".431" result="effect5_foregroundBlur"/></filter><filter id="filter23_iif" x="72.452" y="115.05" width="46.728" height="55.422" filterUnits="userSpaceOnUse" color-interpolation-filters="sRGB"><feFlood flood-opacity="0" result="BackgroundImageFix"/><feBlend in="SourceGraphic" in2="BackgroundImageFix" result="shape"/><feColorMatrix in="SourceAlpha" values="0 0 0 0 0 0 0 0 0 0 0 0 0 0 0 0 0 0 127 0" result="hardAlpha"/><feOffset dx="-2.589" dy=".863"/><feGaussianBlur stdDeviation="1.726"/><feComposite in2="hardAlpha" operator="arithmetic" k2="-1" k3="1"/><feColorMatrix values="0 0 0 0 1 0 0 0 0 0.294118 0 0 0 0 0 0 0 0 1 0"/><feBlend in2="shape" result="effect1_innerShadow"/><feColorMatrix in="SourceAlpha" values="0 0 0 0 0 0 0 0 0 0 0 0 0 0 0 0 0 0 127 0" result="hardAlpha"/><feOffset dx="6.04" dy="9.492"/><feGaussianBlur stdDeviation="5.178"/><feComposite in2="hardAlpha" operator="arithmetic" k2="-1" k3="1"/><feColorMatrix values="0 0 0 0 1 0 0 0 0 0.635294 0 0 0 0 0.407843 0 0 0 0.5 0"/><feBlend in2="effect1_innerShadow" result="effect2_innerShadow"/><feGaussianBlur stdDeviation="4.315" result="effect3_foregroundBlur"/></filter><filter id="filter24_f" x="242.484" y="178.328" width="48.584" height="28.188" filterUnits="userSpaceOnUse" color-interpolation-filters="sRGB"><feFlood flood-opacity="0" result="BackgroundImageFix"/><feBlend in="SourceGraphic" in2="BackgroundImageFix" result="shape"/><feGaussianBlur stdDeviation="1.726" result="effect1_foregroundBlur"/></filter><filter id="filter25_f" x="229.99" y=".853" width="31.426" height="39.63" filterUnits="userSpaceOnUse" color-interpolation-filters="sRGB"><feFlood flood-opacity="0" result="BackgroundImageFix"/><feBlend in="SourceGraphic" in2="BackgroundImageFix" result="shape"/><feGaussianBlur stdDeviation="3.452" result="effect1_foregroundBlur"/></filter><filter id="filter26_f" x="106.594" y="39.273" width="171.711" height="135.96" filterUnits="userSpaceOnUse" color-interpolation-filters="sRGB"><feFlood flood-opacity="0" result="BackgroundImageFix"/><feBlend in="SourceGraphic" in2="BackgroundImageFix" result="shape"/><feGaussianBlur stdDeviation="12.944" result="effect1_foregroundBlur"/></filter><linearGradient id="paint0_linear" x1="48.185" y1="160.296" x2="82.794" y2="161.668" gradientUnits="userSpaceOnUse"><stop stop-color="#FB4E12" stop-opacity="0"/><stop offset="1" stop-color="#FB4E12"/></linearGradient><linearGradient id="paint1_linear" x1="64.868" y1="337.668" x2="311.465" y2="337.668" gradientUnits="userSpaceOnUse"><stop stop-color="#FA6C00" stop-opacity=".33"/><stop offset=".512" stop-color="#F45800"/><stop offset="1" stop-color="#F25900" stop-opacity=".4"/></linearGradient><linearGradient id="paint2_linear" x1="69.826" y1="345.165" x2="310.742" y2="345.165" gradientUnits="userSpaceOnUse"><stop stop-color="#FF980B" stop-opacity=".44"/><stop offset=".493" stop-color="#F55700"/><stop offset="1" stop-color="#FEA11C" stop-opacity=".28"/></linearGradient><linearGradient id="paint3_linear" x1="52.679" y1="82.956" x2="52.679" y2="143.527" gradientUnits="userSpaceOnUse"><stop stop-color="#FF995C"/><stop offset="1" stop-color="#FF590F"/></linearGradient><linearGradient id="paint4_linear" x1="52.679" y1="82.956" x2="52.679" y2="143.527" gradientUnits="userSpaceOnUse"><stop stop-color="#FF995C"/><stop offset="1" stop-color="#FF590F"/></linearGradient><linearGradient id="paint5_linear" x1="53.848" y1="80.218" x2="53.848" y2="143.745" gradientUnits="userSpaceOnUse"><stop stop-color="#FF641C" stop-opacity="0"/><stop offset="1" stop-color="#FF641C"/></linearGradient><linearGradient id="paint6_linear" x1="188.491" y1="149.003" x2="188.491" y2="360.49" gradientUnits="userSpaceOnUse"><stop stop-color="#FFBC00"/><stop offset=".851" stop-color="#EDB001"/><stop offset="1" stop-color="#FD870B"/></linearGradient><linearGradient id="paint7_linear" x1="188.491" y1="149.003" x2="188.491" y2="360.49" gradientUnits="userSpaceOnUse"><stop stop-color="#FFBC00"/><stop offset=".851" stop-color="#EDB001"/><stop offset="1" stop-color="#FD870B"/></linearGradient><linearGradient id="paint8_linear" x1="188.789" y1="148.661" x2="188.789" y2="360.147" gradientUnits="userSpaceOnUse"><stop stop-color="#FFBC00"/><stop offset=".851" stop-color="#EDB001"/><stop offset="1" stop-color="#FD870B"/></linearGradient><linearGradient id="paint9_linear" x1="188.789" y1="148.661" x2="188.789" y2="360.147" gradientUnits="userSpaceOnUse"><stop stop-color="#fff" stop-opacity="0"/><stop offset="1" stop-color="#FF5D16"/></linearGradient><linearGradient id="paint10_linear" x1="323.693" y1="192.122" x2="72.043" y2="216.948" gradientUnits="userSpaceOnUse"><stop stop-color="#FB0" stop-opacity=".3"/><stop offset=".243" stop-color="#FFA000"/><stop offset=".552" stop-color="#FF7D00"/><stop offset="1" stop-color="#FF9C00"/></linearGradient><linearGradient id="paint11_linear" x1="51.994" y1="83.64" x2="51.994" y2="144.212" gradientUnits="userSpaceOnUse"><stop stop-color="#FF995C"/><stop offset="1" stop-color="#FF590F"/></linearGradient><linearGradient id="paint12_linear" x1="53.163" y1="80.903" x2="53.163" y2="144.43" gradientUnits="userSpaceOnUse"><stop stop-color="#FF641C" stop-opacity="0"/><stop offset="1" stop-color="#FF641C"/></linearGradient><linearGradient id="paint13_linear" x1="38.59" y1="90.142" x2="80.008" y2="124.418" gradientUnits="userSpaceOnUse"><stop stop-color="#FF9853"/><stop offset="1" stop-color="#FF501C"/></linearGradient><linearGradient id="paint14_linear" x1="145.846" y1="265.013" x2="355.89" y2="232.074" gradientUnits="userSpaceOnUse"><stop stop-color="#FFB400"/><stop offset="1" stop-color="#FFD300"/></linearGradient><linearGradient id="paint15_linear" x1="268.522" y1="261.591" x2="230.874" y2="295.52" gradientUnits="userSpaceOnUse"><stop stop-color="#fff" stop-opacity="0"/><stop offset=".498" stop-color="#FFEB01"/><stop offset="1" stop-color="#fff" stop-opacity="0"/></linearGradient><linearGradient id="paint16_linear" x1="107.912" y1="63.219" x2="107.912" y2="101.064" gradientUnits="userSpaceOnUse"><stop stop-color="#5B545A"/><stop offset="1" stop-color="#262C34"/></linearGradient><linearGradient id="paint17_linear" x1="112.949" y1="60.028" x2="108.086" y2="101.069" gradientUnits="userSpaceOnUse"><stop stop-color="#5A4A54"/><stop offset="1"/></linearGradient><linearGradient id="paint18_linear" x1="96.844" y1="117.862" x2="122.206" y2="165.659" gradientUnits="userSpaceOnUse"><stop stop-color="#FF3500"/><stop offset=".305" stop-color="#FF914F"/><stop offset="1" stop-color="#FF4D0A"/></linearGradient><linearGradient id="paint19_linear" x1="102.326" y1="117.862" x2="83.081" y2="165.153" gradientUnits="userSpaceOnUse"><stop stop-color="#FF3500"/><stop offset=".305" stop-color="#FF914F"/><stop offset="1" stop-color="#FF4D0A"/></linearGradient><linearGradient id="paint21_linear" x1="287.591" y1="181.78" x2="254.8" y2="203.353" gradientUnits="userSpaceOnUse"><stop stop-color="#FFB801"/><stop offset="1" stop-color="#FFB801" stop-opacity="0"/></linearGradient><radialGradient id="paint20_radial" cx="0" cy="0" r="1" gradientUnits="userSpaceOnUse" gradientTransform="matrix(34.52173 14.71508 -14.7014 34.48962 95.816 146.265)"><stop stop-color="#FF3601"/><stop offset="1" stop-color="#FF6011" stop-opacity="0"/></radialGradient><radialGradient id="paint22_radial" cx="0" cy="0" r="1" gradientUnits="userSpaceOnUse" gradientTransform="rotate(38.649 91.986 359.833) scale(19.3063 8.99144)"><stop stop-color="#FF7A00"/><stop offset="1" stop-color="#FFEF00"/></radialGradient><radialGradient id="paint23_radial" cx="0" cy="0" r="1" gradientUnits="userSpaceOnUse" gradientTransform="rotate(125.618 83.752 110.806) scale(51.779 93.3503)"><stop stop-color="#FFB200"/><stop offset="1" stop-color="#FFB400" stop-opacity="0"/></radialGradient></defs></svg>