<svg width="14" height="14" viewBox="0 0 14 14" fill="none" xmlns="http://www.w3.org/2000/svg">
<g clip-path="url(#clip0)">
<path d="M11.0833 7.02693C10.7607 7.02693 10.5 7.2883 10.5 7.61023V12.2769C10.5 12.5983 10.2386 12.8602 9.9167 12.8602H1.75C1.42796 12.8602 1.1667 12.5983 1.1667 12.2769V4.11023C1.1667 3.78883 1.42796 3.52693 1.75 3.52693H6.4167C6.73927 3.52693 7 3.26556 7 2.94363C7 2.6216 6.73927 2.36023 6.4167 2.36023H1.75C0.785172 2.36023 0 3.1454 0 4.11023V12.2769C0 13.2418 0.785172 14.0269 1.75 14.0269H9.9167C10.8815 14.0269 11.6667 13.2418 11.6667 12.2769V7.61023C11.6667 7.28766 11.4059 7.02693 11.0833 7.02693Z" fill="#3E66FB"/>
<path d="M5.46916 6.49557C5.42836 6.53638 5.40091 6.58829 5.38927 6.64426L4.97687 8.707C4.95764 8.8026 4.98798 8.90118 5.05676 8.97061C5.1122 9.02605 5.18686 9.05574 5.26334 9.05574C5.28192 9.05574 5.30126 9.05403 5.32048 9.04997L7.38259 8.63757C7.43973 8.62582 7.49164 8.59848 7.53191 8.55757L12.1472 3.94225L10.0851 1.88025L5.46916 6.49557Z" fill="#3E66FB"/>
<path d="M13.573 0.453922C13.0043 -0.114849 12.0791 -0.114849 11.5109 0.453922L10.7036 1.2612L12.7657 3.32331L13.573 2.51592C13.8484 2.2412 14 1.87484 14 1.48519C14 1.09554 13.8484 0.729176 13.573 0.453922Z" fill="#3E66FB"/>
</g>
<defs>
<clipPath id="clip0">
<rect width="14" height="14" fill="white"/>
</clipPath>
</defs>
</svg>
