<svg width="39" height="52" viewBox="0 0 39 52" fill="none" xmlns="http://www.w3.org/2000/svg">
<g clip-path="url(#clip0)">
<path opacity="0.05" d="M35.7585 46.7907C35.7585 49.6657 28.4792 52.0808 19.5014 51.9974C10.3207 51.9114 2.96508 49.55 3.24426 46.7907C3.53226 43.9265 10.5235 41.584 19.5014 41.584C28.4792 41.5867 35.7585 43.9157 35.7585 46.7907Z" fill="black"/>
<path opacity="0.05" d="M19.5014 50.4109C26.6719 50.4109 32.4848 48.5494 32.4848 46.2531C32.4848 43.9567 26.6719 42.0952 19.5014 42.0952C12.3309 42.0952 6.51807 43.9567 6.51807 46.2531C6.51807 48.5494 12.3309 50.4109 19.5014 50.4109Z" fill="black"/>
<path opacity="0.05" d="M19.5013 49.3078C24.4158 49.3078 28.3998 48.0604 28.3998 46.5216C28.3998 44.9828 24.4158 43.7354 19.5013 43.7354C14.5868 43.7354 10.6028 44.9828 10.6028 46.5216C10.6028 48.0604 14.5868 49.3078 19.5013 49.3078Z" fill="black"/>
<path d="M19.5031 0C26.0565 0 37.7262 8.64112 38.9194 26.5823C40.1154 44.5234 28.1665 48.0627 19.5031 48.0627C10.8397 48.0627 -1.10916 44.5261 0.0869022 26.5823C1.28003 8.64112 12.9498 0 19.5031 0Z" fill="#FCCE6C"/>
<path d="M3.19116 40.9465C4.11686 42.2831 5.2042 43.3858 6.40026 44.2895C20.1036 41.7668 31.7175 34.9356 38.841 25.6948C38.6735 23.7907 38.3972 21.9888 38.0093 20.2998C30.9005 30.7213 18.2551 38.4265 3.19116 40.9465Z" fill="#D9B057"/>
<path d="M1.88642 38.6684C17.3207 35.9897 30.1747 27.8542 37.0661 16.9459C36.8839 16.3973 36.6899 15.8621 36.4842 15.3403C29.54 26.2244 16.6477 34.3169 1.18994 36.9472C1.39859 37.5496 1.63369 38.1224 1.88642 38.6684Z" fill="#C4A04F"/>
<path d="M8.34277 45.5399C9.28317 46.0562 10.2647 46.4758 11.2639 46.8147C22.4487 44.3538 32.1083 38.9938 38.8733 31.8184C38.9468 31.0466 38.9879 30.2397 38.9967 29.3979C31.7381 37.4259 20.9059 43.2942 8.34277 45.5399Z" fill="#FFEDCB"/>
<path d="M7.29028 7.14293C10.3789 5.28185 13.1971 3.15183 15.6863 0.795898C12.9591 1.85015 9.94396 3.95597 7.29028 7.14293Z" fill="#D9B057"/>
<path d="M4.61915 10.9721C4.14308 11.7897 3.69051 12.6476 3.26733 13.5566C10.6935 10.3831 17.0294 5.81377 21.7109 0.292388C21.079 0.13909 20.4766 0.0476501 19.9035 0.0180664C15.7952 4.42872 10.5936 8.16164 4.61915 10.9721Z" fill="#FFEDCB"/>
<path d="M26.301 22.1469C26.0013 22.3971 25.9837 22.8247 26.257 23.0963C26.401 23.2415 26.6008 23.3141 26.7977 23.3141C26.974 23.3141 27.1533 23.255 27.2943 23.1366L27.3149 23.1178C27.6146 22.8677 27.6235 22.4508 27.3472 22.1765C27.071 21.9022 26.6008 21.8968 26.301 22.1469Z" fill="#FFEDCB"/>
<path d="M21.3551 27.2705C21.4991 27.2705 21.6431 27.2329 21.7724 27.1522L21.7959 27.136C22.1309 26.9263 22.2014 26.5148 21.9722 26.2082C21.743 25.9016 21.2728 25.8343 20.9378 26.0441C20.6028 26.2539 20.5205 26.6735 20.7497 26.98C20.8937 27.171 21.1229 27.2705 21.3551 27.2705Z" fill="#FFEDCB"/>
<path d="M24.7521 24.2745C24.4994 23.9841 24.038 23.933 23.7206 24.1616C23.7177 24.1643 23.6942 24.1804 23.6912 24.1831C23.3768 24.4171 23.3268 24.8393 23.5825 25.1298C23.7265 25.2938 23.941 25.3799 24.1556 25.3799C24.3172 25.3799 24.4818 25.3315 24.6169 25.2293L24.1791 24.6887L24.6346 25.2158C24.949 24.9899 25.0019 24.565 24.7521 24.2745Z" fill="#FFEDCB"/>
<path d="M34.2619 15.8458L33.6683 15.4477L34.2736 15.8296C34.5058 15.523 34.4206 15.1062 34.0856 14.8937C33.7506 14.6812 33.295 14.7592 33.0629 15.0658C33.0599 15.0685 33.0423 15.0927 33.0423 15.0954C32.816 15.4047 32.9042 15.8216 33.2421 16.0286C33.3685 16.1066 33.5096 16.1443 33.6506 16.1443C33.8857 16.1416 34.1179 16.0367 34.2619 15.8458Z" fill="#FFEDCB"/>
<path d="M35.1317 13.3581C35.2492 13.4226 35.3785 13.4522 35.5078 13.4522C35.5637 13.4522 35.6166 13.4441 35.6724 13.4334C35.4814 13.0246 35.2845 12.6239 35.0788 12.2339C34.9994 12.2877 34.9289 12.3549 34.879 12.4356C34.6703 12.7556 34.7849 13.1671 35.1317 13.3581Z" fill="#FFEDCB"/>
<path d="M31.0004 17.5884C30.7417 17.8761 30.7858 18.2984 31.1003 18.535C31.2384 18.6372 31.403 18.6883 31.5675 18.6883C31.7791 18.6883 31.9907 18.605 32.1347 18.4436C32.1376 18.4409 32.1553 18.4194 32.1582 18.4194C32.4109 18.1316 32.3551 17.7201 32.0407 17.4862C31.7262 17.2522 31.256 17.3033 31.0004 17.5884Z" fill="#FFEDCB"/>
<path d="M28.7344 19.9552C28.4611 20.2296 28.4817 20.6518 28.7785 20.9046C28.9196 21.0229 29.0988 21.0821 29.2752 21.0821C29.4721 21.0821 29.6719 21.0095 29.8159 20.867L29.2957 20.3936L29.8276 20.8589C30.1098 20.5899 30.098 20.165 29.8041 19.9068C29.5103 19.6486 29.0459 19.6594 28.7638 19.9283C28.7609 19.9283 28.7374 19.9525 28.7344 19.9552Z" fill="#FFEDCB"/>
<path d="M16.0594 29.5378C15.8772 29.207 15.4363 29.0699 15.0749 29.2366C15.0719 29.2393 15.0396 29.2527 15.0367 29.2554C14.6781 29.4276 14.54 29.8337 14.7281 30.1618C14.8603 30.3904 15.116 30.5222 15.3805 30.5222C15.4951 30.5222 15.6127 30.4979 15.7214 30.4442L15.404 29.8364L15.7332 30.4388C16.0917 30.272 16.2386 29.8686 16.0594 29.5378Z" fill="#FFEDCB"/>
<path d="M12.93 30.9279C12.7713 30.5863 12.3393 30.4276 11.9661 30.5729C11.9632 30.5729 11.9367 30.5836 11.9338 30.5863C11.5606 30.7342 11.3901 31.1296 11.5547 31.4711C11.6752 31.7239 11.9455 31.8746 12.2277 31.8746C12.3246 31.8746 12.4246 31.8557 12.5215 31.8181L12.2541 31.1914L12.5421 31.81C12.9153 31.6648 13.0887 31.2694 12.93 30.9279Z" fill="#FFEDCB"/>
<path d="M8.74813 31.7347C8.3661 31.8584 8.16332 32.2403 8.29557 32.5899C8.40136 32.867 8.68642 33.0418 8.98911 33.0418C9.06846 33.0418 9.15074 33.031 9.23009 33.0041C9.23302 33.0041 9.26241 32.9934 9.26829 32.9934C9.64739 32.867 9.82959 32.4877 9.69441 32.1408C9.55923 31.7912 9.13017 31.6137 8.74813 31.7347Z" fill="#FFEDCB"/>
<path d="M18.0518 27.7359C17.7021 27.9241 17.5846 28.3356 17.7903 28.6557C17.9284 28.8681 18.1723 28.9891 18.4251 28.9891C18.5514 28.9891 18.6778 28.9596 18.7953 28.8977C18.7983 28.8977 18.8247 28.8816 18.8247 28.8816C19.1715 28.6906 19.2744 28.2872 19.0686 27.9699C18.8629 27.6471 18.4016 27.5476 18.0518 27.7359Z" fill="#FFEDCB"/>
<path d="M2.3122 34.8198C2.36215 34.8198 2.41505 34.8144 2.46795 34.8037C2.47089 34.8037 2.50321 34.7956 2.50615 34.7956C2.89994 34.7122 3.1321 34.3572 3.04394 33.9968C2.95578 33.6365 2.55317 33.4105 2.15938 33.4885C1.76265 33.5665 1.50992 33.9242 1.59514 34.2873C1.66861 34.6046 1.97424 34.8198 2.3122 34.8198Z" fill="#FFEDCB"/>
<path d="M5.87965 33.9994C5.88259 33.9994 5.91492 33.9913 5.91786 33.9886C6.30577 33.8838 6.51148 33.5153 6.39981 33.1603C6.28814 32.8053 5.87084 32.6036 5.47998 32.7031C5.08913 32.8026 4.86285 33.1737 4.97158 33.5314C5.06268 33.8273 5.35656 34.0209 5.67982 34.0209C5.74741 34.0263 5.81206 34.0182 5.87965 33.9994Z" fill="#FFEDCB"/>
<path d="M31.8113 7.26694C30.9562 6.22883 30.0657 5.30366 29.1547 4.48877C23.1773 13.7996 12.8388 21.0583 0.269858 24.5788C0.196389 25.235 0.128798 25.8993 0.084717 26.5824C0.0347585 27.3247 0.0112486 28.04 0.00537109 28.7312C14.0173 25.4232 25.543 17.5405 31.8113 7.26694Z" fill="#D9B057"/>
<path d="M0.692871 21.7329C12.054 18.0968 21.408 11.3598 27.0916 2.8451C26.7007 2.57078 26.3099 2.31259 25.9219 2.07861C20.353 9.89408 11.6426 16.1147 1.14544 19.6674C0.980868 20.3398 0.825114 21.0256 0.692871 21.7329Z" fill="#C4A04F"/>
<path d="M0.0319824 30.4147C0.0613698 31.0441 0.10839 31.6519 0.173042 32.2408C15.1107 29.3712 27.5121 21.3702 34.236 10.7255C33.9774 10.2898 33.7099 9.86485 33.4366 9.45605C26.6981 19.7727 14.5846 27.5344 0.0319824 30.4147Z" fill="#FFEDCB"/>
<path d="M2.10626 16.5586C2.22675 16.8114 2.49712 16.962 2.77924 16.962C2.87621 16.962 2.97613 16.9431 3.07311 16.9055L2.80568 16.2788L3.09368 16.8974C3.4669 16.7522 3.64029 16.3568 3.48159 16.0153C3.3229 15.6737 2.89091 15.515 2.51769 15.6603C2.51475 15.6603 2.4883 15.671 2.48536 15.6737C2.44128 15.6926 2.40014 15.7141 2.36193 15.7383C2.2679 15.9884 2.17386 16.2439 2.08569 16.4994C2.09157 16.5182 2.09451 16.537 2.10626 16.5586Z" fill="#FFEDCB"/>
<path d="M16.853 7.23434C16.5533 7.48446 16.5357 7.91207 16.809 8.18371C16.953 8.32893 17.1528 8.40155 17.3497 8.40155C17.526 8.40155 17.7053 8.34238 17.8463 8.22405L17.8669 8.20522C18.1667 7.95511 18.1755 7.53825 17.8992 7.26392C17.6289 6.99229 17.1528 6.98422 16.853 7.23434Z" fill="#FFEDCB"/>
<path d="M5.92957 15.6091C6.04418 15.6091 6.16173 15.5849 6.27046 15.5311L5.95308 14.9233L6.28222 15.5257C6.64368 15.359 6.79356 14.9555 6.61135 14.6247C6.42915 14.2939 5.98834 14.1568 5.62688 14.3235C5.62394 14.3262 5.59161 14.3397 5.58868 14.3424C5.23015 14.5145 5.09203 14.9206 5.28011 15.2487C5.40941 15.4773 5.66508 15.6091 5.92957 15.6091Z" fill="#FFEDCB"/>
<path d="M8.6036 12.8228C8.25389 13.0111 8.13634 13.4225 8.34205 13.7426C8.48018 13.955 8.72409 14.0761 8.97682 14.0761C9.10319 14.0761 9.22955 14.0465 9.3471 13.9846C9.35004 13.9846 9.37649 13.9685 9.37649 13.9685C9.72326 13.7775 9.82612 13.3741 9.62041 13.0568C9.41469 12.734 8.95331 12.6345 8.6036 12.8228Z" fill="#FFEDCB"/>
<path d="M20.3703 5.95136L19.8502 5.47803L20.3821 5.9433C20.6642 5.67435 20.6524 5.24942 20.3586 4.99124C20.0647 4.73574 19.6004 4.74381 19.3183 5.01275C19.3153 5.01544 19.2918 5.03965 19.2889 5.04234C19.0156 5.31666 19.0361 5.7389 19.333 5.99171C19.474 6.11004 19.6533 6.16921 19.8296 6.16921C20.0265 6.16921 20.2234 6.09659 20.3703 5.95136Z" fill="#FFEDCB"/>
<path d="M21.5521 2.67575C21.2935 2.96352 21.3376 3.38576 21.652 3.62243C21.7901 3.72463 21.9547 3.77573 22.1193 3.77573C22.3309 3.77573 22.5425 3.69235 22.6865 3.53099C22.6894 3.5283 22.707 3.50678 22.71 3.50678C22.9627 3.21902 22.9069 2.80753 22.5924 2.57355C22.278 2.33957 21.8078 2.39067 21.5521 2.67575Z" fill="#FFEDCB"/>
<path d="M15.3044 9.36178C15.0546 9.06863 14.5903 9.02022 14.2729 9.24882C14.2699 9.25151 14.2464 9.26765 14.2435 9.27034C13.929 9.50432 13.8791 9.92656 14.1347 10.217C14.2787 10.3811 14.4933 10.4671 14.7078 10.4671C14.8694 10.4671 15.034 10.4187 15.1692 10.3165L14.7313 9.77595L15.1868 10.3031C15.5013 10.0772 15.5542 9.65224 15.3044 9.36178Z" fill="#FFEDCB"/>
<path d="M11.9071 12.3579C12.0511 12.3579 12.1951 12.3202 12.3244 12.2396L12.3479 12.2234C12.6829 12.0137 12.7534 11.6022 12.5242 11.2956C12.295 10.989 11.8248 10.9218 11.4898 11.1315C11.1548 11.3413 11.0725 11.7608 11.3017 12.0674C11.4457 12.2584 11.6749 12.3579 11.9071 12.3579Z" fill="#FFEDCB"/>
<path d="M30.4122 42.186C30.5562 42.186 30.7002 42.1484 30.8295 42.0677L30.853 42.0516C31.188 41.8418 31.2586 41.4303 31.0293 41.1237C30.8001 40.8171 30.3299 40.7499 29.9949 40.9597C29.6599 41.1694 29.5776 41.589 29.8068 41.8956C29.9508 42.0838 30.1801 42.186 30.4122 42.186Z" fill="#FFEDCB"/>
<path d="M35.3582 37.06C35.0584 37.3101 35.0408 37.7378 35.3141 38.0094C35.4581 38.1546 35.6579 38.2272 35.8548 38.2272C36.0311 38.2272 36.2104 38.1681 36.3515 38.0497L36.372 38.0309C36.6718 37.7808 36.6806 37.3639 36.4044 37.0896C36.134 36.8207 35.6579 36.8099 35.3582 37.06Z" fill="#FFEDCB"/>
<path d="M21.2846 46.7876C21.3815 46.7876 21.4814 46.7688 21.5784 46.7312L21.311 46.1045L21.599 46.7231C21.9722 46.5779 22.1456 46.1825 21.9869 45.841C21.8282 45.4994 21.3962 45.3407 21.023 45.486C21.0201 45.486 20.9936 45.4967 20.9907 45.4994C20.6175 45.6473 20.447 46.0427 20.6116 46.3842C20.7291 46.637 20.9995 46.7876 21.2846 46.7876Z" fill="#FFEDCB"/>
<path d="M27.1092 42.649C26.7595 42.8372 26.642 43.2487 26.8477 43.5687C26.9858 43.7812 27.2297 43.9022 27.4824 43.9022C27.6088 43.9022 27.7352 43.8727 27.8527 43.8108C27.8557 43.8108 27.8821 43.7947 27.8821 43.7947C28.2289 43.6037 28.3317 43.2003 28.126 42.8829C27.9203 42.5602 27.4589 42.4607 27.1092 42.649Z" fill="#FFEDCB"/>
<path d="M25.1167 44.4509C24.9345 44.1201 24.4937 43.983 24.1322 44.1497C24.1293 44.1524 24.097 44.1658 24.094 44.1685C23.7355 44.3406 23.5974 44.7467 23.7855 45.0749C23.9177 45.3035 24.1734 45.4352 24.4379 45.4352C24.5525 45.4352 24.67 45.411 24.7788 45.3572L24.4614 44.7494L24.7905 45.3519C25.149 45.1878 25.2989 44.7844 25.1167 44.4509Z" fill="#FFEDCB"/>
<path d="M14.4932 47.6349C14.7371 47.678 14.9839 47.7183 15.2278 47.7559C15.0427 47.6134 14.7841 47.5543 14.5372 47.6188C14.5226 47.6242 14.5108 47.6295 14.4932 47.6349Z" fill="#FFEDCB"/>
<path d="M17.805 46.6507C17.423 46.7744 17.2202 47.1563 17.3525 47.506C17.4582 47.783 17.7433 47.9578 18.046 47.9578C18.1253 47.9578 18.2076 47.947 18.287 47.9201C18.2899 47.9201 18.3193 47.9094 18.3252 47.9094C18.7043 47.783 18.8865 47.4038 18.7513 47.0568C18.6161 46.7072 18.1871 46.5297 17.805 46.6507Z" fill="#FFEDCB"/>
<path d="M37.8236 34.8387C37.8207 34.8414 37.7972 34.8656 37.7942 34.8683C37.5209 35.1426 37.5415 35.5649 37.8383 35.8177C37.9206 35.8876 38.0176 35.9333 38.1175 35.9629C38.238 35.5353 38.3497 35.0969 38.4466 34.6397C38.2233 34.6155 37.9911 34.68 37.8236 34.8387Z" fill="#FFEDCB"/>
<path d="M33.2306 39.6045L33.6861 40.1316C34.0035 39.9003 34.0593 39.4781 33.8095 39.1876C33.5568 38.8972 33.0954 38.846 32.778 39.0747C32.7751 39.0773 32.7515 39.0935 32.7486 39.0962C32.4342 39.3301 32.3842 39.7524 32.6399 40.0428C32.7839 40.2069 32.9984 40.293 33.2129 40.293C33.3746 40.293 33.5391 40.2446 33.6743 40.1424L33.2306 39.6045Z" fill="#FFEDCB"/>
<path opacity="0.1" d="M38.9177 26.5819C38.4093 18.9547 36.0054 13.0138 32.9109 8.69727C33.8161 14.1433 33.4546 20.7055 30.9361 28.123C26.049 42.5195 17.0947 46.169 8.95435 45.8543C12.331 47.5299 16.1601 48.057 19.5015 48.057C28.1649 48.0624 40.1138 44.5258 38.9177 26.5819Z" fill="black"/>
<path opacity="0.1" d="M38.9174 26.5822C38.5618 21.2572 37.2806 16.7605 35.4909 13.0571C36.1227 16.7658 36.2638 20.9237 35.723 25.5118C33.4925 44.4185 21.3085 47.6834 11.6636 46.9465C14.2879 47.7749 17.0268 48.0627 19.4983 48.0627C28.1646 48.0627 40.1135 44.5261 38.9174 26.5822Z" fill="black"/>
<path opacity="0.1" d="M15.8766 14.2281C17.6327 10.536 17.2201 6.81158 14.9551 5.90935C12.6902 5.00712 9.43051 7.26875 7.67447 10.9609C5.91843 14.653 6.33099 18.3774 8.59595 19.2796C10.8609 20.1819 14.1206 17.9202 15.8766 14.2281Z" fill="white"/>
<path opacity="0.2" d="M14.1852 12.8848C13.0303 15.3133 10.8879 16.8006 9.398 16.2062C7.90806 15.6119 7.63769 13.1645 8.79262 10.7359C9.94754 8.30739 12.0899 6.82014 13.5798 7.4145C15.0698 8.00618 15.3401 10.4562 14.1852 12.8848Z" fill="white"/>
</g>
<defs>
<clipPath id="clip0">
<rect width="39" height="52" fill="white"/>
</clipPath>
</defs>
</svg>
