<svg width="20" height="20" viewBox="0 0 20 20" fill="none" xmlns="http://www.w3.org/2000/svg">
<path d="M6.84007 5.68082L8.9687 3.55219V14.8125C8.9687 15.086 9.07735 15.3483 9.27074 15.5417C9.46414 15.7351 9.72644 15.8438 9.99995 15.8438C10.2734 15.8438 10.5358 15.7351 10.7291 15.5417C10.9225 15.3483 11.0312 15.086 11.0312 14.8125V3.55219L13.1598 5.68082C13.2555 5.77701 13.3692 5.85337 13.4944 5.90554C13.6196 5.95772 13.7539 5.98467 13.8896 5.98485C14.0253 5.98503 14.1596 5.95845 14.285 5.90662C14.4104 5.85479 14.5243 5.77873 14.6202 5.6828C14.7161 5.58688 14.7922 5.47297 14.844 5.34759C14.8959 5.22222 14.9224 5.08786 14.9223 4.9522C14.9221 4.81654 14.8951 4.68224 14.8429 4.55702C14.7908 4.43179 14.7144 4.31808 14.6182 4.22242L10.7292 0.333315C10.6334 0.237549 10.5197 0.161583 10.3946 0.109754C10.2695 0.0579258 10.1354 0.03125 9.99995 0.03125C9.86451 0.03125 9.73041 0.0579258 9.60529 0.109754C9.48017 0.161583 9.36648 0.237549 9.27072 0.333315L5.38167 4.22242C5.28548 4.31808 5.20911 4.43179 5.15694 4.55702C5.10477 4.68224 5.07782 4.81654 5.07764 4.9522C5.07745 5.08786 5.10404 5.22222 5.15587 5.34759C5.2077 5.47297 5.28376 5.58688 5.37968 5.6828C5.47561 5.77873 5.58952 5.85479 5.71489 5.90662C5.84026 5.95845 5.97463 5.98503 6.11029 5.98485C6.24595 5.98467 6.38024 5.95772 6.50547 5.90554C6.6307 5.85337 6.7444 5.77701 6.84007 5.68082Z" fill="black"/>
<path d="M18.9375 8.96875C18.664 8.96875 18.4017 9.0774 18.2083 9.2708C18.0149 9.46419 17.9062 9.7265 17.9062 10V17.9062H2.09375V10C2.09375 9.7265 1.9851 9.46419 1.7917 9.2708C1.59831 9.0774 1.336 8.96875 1.0625 8.96875C0.788996 8.96875 0.526693 9.0774 0.333296 9.2708C0.139899 9.46419 0.03125 9.7265 0.03125 10V18.25C0.03125 18.7058 0.212332 19.143 0.53466 19.4653C0.856988 19.7877 1.29416 19.9688 1.75 19.9688H18.25C18.7058 19.9688 19.143 19.7877 19.4653 19.4653C19.7877 19.143 19.9688 18.7058 19.9688 18.25V10C19.9688 9.7265 19.8601 9.46419 19.6667 9.2708C19.4733 9.0774 19.211 8.96875 18.9375 8.96875Z" fill="black"/>
</svg>