<svg width="143" height="199" viewBox="0 0 143 199" fill="none" xmlns="http://www.w3.org/2000/svg"><path d="M13.821 183.064L.995 39.1h141.01l-12.826 143.887L71.384 199" fill="#E65027"/><path d="M14.132 0h8.94v8.862h8.24V0h8.94v26.818h-8.94v-8.94H23.15v8.94h-9.017V0zm37.934 8.94h-7.89V0h24.76v8.94h-7.93v17.878h-8.94V8.94zM72.86 0h9.367l5.752 9.445L93.733 0h9.367v26.818h-8.94V13.526l-6.257 9.639-6.258-9.64v13.293H72.86V0zm34.67 0h8.939v17.957h12.671v8.861h-21.61V0z" fill="#000"/><path d="M128.5 50.5h-58l.5 135 46.5-12.5 11-122.5z" fill="#F16529"/><path d="M27.19 68.523H71.5v17.646H46.547l1.633 18.073H71.5v17.607H32.01l-4.82-53.326zm5.598 62.187h17.724l1.243 14.109 19.745 5.286v18.423l-36.224-10.105" fill="#EBEBEB"/><path d="M115.653 68.523h-44.23v17.646h42.598l1.632-17.646zm-3.226 35.719H71.422v17.646h21.766l-2.06 22.931-19.706 5.286v18.345l36.147-10.027" fill="#fff"/></svg>