<svg width="482" height="377" viewBox="0 0 482 377" fill="none" xmlns="http://www.w3.org/2000/svg"><path opacity=".6" d="M270.025 268.026H12.054c-6.342 0-11.483-5.129-11.483-11.458V40.498c0-6.328 5.14-11.457 11.483-11.457h257.971c6.342 0 11.482 5.13 11.482 11.458v216.069c0 6.329-5.14 11.458-11.482 11.458z" fill="#11215B"/><path d="M281.507 55.557H.568V37.593c0-4.725 3.838-8.555 8.573-8.555h263.793c4.735 0 8.573 3.83 8.573 8.555v17.964z" fill="#699DEE"/><path d="M11.93 42.138a3.174 3.174 0 013.179-3.171 3.174 3.174 0 013.178 3.171 3.174 3.174 0 01-3.178 3.172 3.174 3.174 0 01-3.178-3.172zM25.265 42.138a3.174 3.174 0 013.178-3.171 3.176 3.176 0 013.178 3.171 3.174 3.174 0 01-3.178 3.172 3.174 3.174 0 01-3.178-3.172zM38.599 42.138a3.174 3.174 0 013.178-3.171 3.174 3.174 0 013.178 3.171 3.174 3.174 0 01-3.178 3.172 3.174 3.174 0 01-3.178-3.172z" fill="#DDE7FE"/><path opacity=".5" d="M102.469 76.6H22.832v79.471h79.637V76.6z" fill="#CDE0FB"/><path opacity=".5" d="M187.468 82.524h-63.343a3.008 3.008 0 01-3.011-3.004 3.008 3.008 0 013.011-3.004h63.343a3.007 3.007 0 013.01 3.004 3.007 3.007 0 01-3.01 3.004zM263.217 78.495h-63.343a3.008 3.008 0 01-3.011-3.004 3.008 3.008 0 013.011-3.004h63.343a3.007 3.007 0 013.01 3.004 3.007 3.007 0 01-3.01 3.004z" fill="#7C9AF2"/><g opacity=".3" fill="#BDD1F9"><path opacity=".3" d="M200.008 105.644h-76.944a1.948 1.948 0 01-1.95-1.946c0-1.075.873-1.946 1.95-1.946h76.944c1.077 0 1.95.871 1.95 1.946a1.948 1.948 0 01-1.95 1.946zM229.257 105.644h-20.312a1.948 1.948 0 01-1.95-1.946c0-1.075.873-1.946 1.95-1.946h20.312c1.077 0 1.95.871 1.95 1.946a1.948 1.948 0 01-1.95 1.946zM152.095 117.717h-29.031a1.948 1.948 0 01-1.95-1.946c0-1.074.873-1.946 1.95-1.946h29.031a1.946 1.946 0 110 3.892zM199.118 117.717h-39.781a1.948 1.948 0 01-1.95-1.946c0-1.074.873-1.946 1.95-1.946h39.781c1.077 0 1.95.872 1.95 1.946a1.948 1.948 0 01-1.95 1.946zM229.257 117.717h-20.312a1.948 1.948 0 01-1.95-1.946c0-1.074.873-1.946 1.95-1.946h20.312c1.077 0 1.95.872 1.95 1.946a1.948 1.948 0 01-1.95 1.946zM162.457 128.156h-39.393a1.948 1.948 0 01-1.95-1.946c0-1.075.873-1.946 1.95-1.946h39.393c1.077 0 1.95.871 1.95 1.946a1.948 1.948 0 01-1.95 1.946zM237.681 128.156h-64.427a1.948 1.948 0 01-1.95-1.946c0-1.075.873-1.946 1.95-1.946h64.427c1.077 0 1.95.871 1.95 1.946a1.948 1.948 0 01-1.95 1.946z"/></g><g opacity=".3" fill="#BDD1F9"><path opacity=".3" d="M200.008 143.997h-76.944a1.948 1.948 0 01-1.95-1.946c0-1.074.873-1.946 1.95-1.946h76.944c1.077 0 1.95.872 1.95 1.946a1.948 1.948 0 01-1.95 1.946zM229.257 143.997h-20.312a1.948 1.948 0 01-1.95-1.946c0-1.074.873-1.946 1.95-1.946h20.312c1.077 0 1.95.872 1.95 1.946a1.948 1.948 0 01-1.95 1.946zM152.095 156.071h-29.031a1.948 1.948 0 01-1.95-1.946c0-1.075.873-1.946 1.95-1.946h29.031a1.947 1.947 0 110 3.892zM199.118 156.071h-39.781a1.948 1.948 0 01-1.95-1.946c0-1.075.873-1.946 1.95-1.946h39.781c1.077 0 1.95.871 1.95 1.946a1.948 1.948 0 01-1.95 1.946z"/></g><path d="M58.539 88.446h8.225l22.22 50.755h-9.378l-5.12-12.167h-23.88l-5.195 12.167h-9.09l22.218-50.755zm12.698 30.741l-8.73-20.156-8.657 20.156h17.387z" fill="#BDD1F9"/><path d="M67.317 172.08H22.832v8.569h44.485v-8.569z" fill="#F99746"/><path d="M67.317 180.649H22.832v8.569h44.485v-8.569z" fill="#ED7D2B"/><path d="M67.317 189.22H22.832v8.569h44.485v-8.569z" fill="#474FEA"/><path d="M100.095 176.931H75.62a1.852 1.852 0 01-1.854-1.85c0-1.022.83-1.85 1.854-1.85h24.475a1.85 1.85 0 110 3.7zM91.851 183.454H75.62a1.852 1.852 0 01-1.854-1.85c0-1.022.83-1.85 1.854-1.85H91.85c1.025 0 1.855.828 1.855 1.85 0 1.022-.83 1.85-1.855 1.85z" fill="#BDD1F9"/><path d="M67.317 216.391H22.832v17.511h44.485v-17.511z" fill="#F99746"/><path d="M67.317 229.577H22.832v12.524h44.485v-12.524z" fill="#B5453C"/><path d="M22.832 216.391l15.96 13.378-15.96 12.334v-25.712z" fill="#474FEA"/><path d="M100.095 221.243H75.62a1.853 1.853 0 01-1.854-1.851c0-1.022.83-1.85 1.854-1.85h24.475a1.85 1.85 0 110 3.701zM91.851 227.768H75.62a1.852 1.852 0 01-1.854-1.851c0-1.022.83-1.85 1.854-1.85H91.85a1.852 1.852 0 110 3.701z" fill="#BDD1F9"/><path d="M284.345 50.681s1.158 13.78-1.989 13.572c-3.145-.208-9.357-6.273-21.892-5.287-12.536.986-27.872 3.724-37.143-12.648-9.271-16.373 11.856-21.083 11.856-21.083l49.168 25.446z" fill="#233862"/><path d="M257.698 49.674l63.161 5.182 1.315-2.803-60.556-44.605L200.45.313l-1.176 2.511 58.424 46.849z" fill="#2B478B"/><path d="M300.683 97.142a2.453 2.453 0 00-3.03-1.678 2.443 2.443 0 00-1.679 3.023 2.45 2.45 0 004.709-1.345z" fill="#F99746"/><path d="M298.576 97.82c2.533-.197 3.126 22.806 3.126 22.806s-1.653.775-2.464.593c-.813-.182-1.226-3.289-1.226-3.289l-.079 3.258s-2.777.096-3.742-.579c0 0 .377-22.476 4.385-22.79z" fill="#F99746"/><path d="M299.403 98.339l-.458-50.257-.326-.244-32.994-24.353-1.185 1.599 32.665 24.11.737 49.056 1.561.089z" fill="#F99746"/><path d="M341.966 335.441H203.21v-52.61h139.219c11.252 0 20.374 9.103 20.374 20.331v11.485c0 11.482-9.328 20.794-20.837 20.794z" fill="#FCECDB"/><path d="M481.836 304.476v7.916c0 4.23-1.065 8.189-2.926 11.595-3.739 6.851-10.693 11.454-18.654 11.454h-261.32c-1.73 0-3.13-1.496-3.13-3.342v-1.185c0-1.843 1.4-3.341 3.13-3.341h159.298a21.697 21.697 0 002.236-3.588c1.492-3.002 2.334-6.425 2.334-10.059v-10.06c0-1.85-.223-3.645-.645-5.355a21.578 21.578 0 00-3.694-7.812H198.936c-1.73 0-3.13-1.496-3.13-3.344v-1.183c0-1.848 1.4-3.344 3.13-3.344H461.57c9.254 0 17.062 6.628 19.485 15.681.508 1.898.781 3.899.781 5.967z" fill="#270754"/><path d="M481.055 298.512H362.159a21.575 21.575 0 00-3.694-7.813H198.936c-1.73 0-3.13-1.496-3.13-3.344v-1.183c0-1.848 1.4-3.344 3.13-3.344H461.57c9.254 0 17.062 6.628 19.485 15.684z" fill="#270754"/><path d="M203.21 309.135l19.35.885-19.35.532v-1.417zM203.21 317.39l46.032.883-46.032.534v-1.417z" fill="#F4D2B8"/><path d="M182.935 376.25h136.211v-40.921H181.733c-10.206 0-18.479 8.255-18.479 18.44v2.844c.002 10.845 8.812 19.637 19.681 19.637z" fill="#F99746"/><path d="M312.584 376.25h155.242v-40.922H312.157c-10.377 0-18.789 8.395-18.789 18.749v3c.003 10.589 8.604 19.173 19.216 19.173z" fill="#FCECDB"/><path d="M283.114 376.25h189.953a2.853 2.853 0 002.855-2.849v-.426a2.853 2.853 0 00-2.855-2.848H283.114a2.852 2.852 0 00-2.854 2.848v.426a2.852 2.852 0 002.854 2.849zM283.114 341.449h189.953a2.853 2.853 0 002.855-2.849v-.426a2.853 2.853 0 00-2.855-2.848H283.114a2.852 2.852 0 00-2.854 2.848v.426a2.852 2.852 0 002.854 2.849z" fill="#F99746"/><path d="M467.829 355.789l-21.151.689 21.151.414v-1.103zM467.828 346.373l-50.318.687 50.318.414v-1.101z" fill="#F4D2B8"/><path d="M418.028 346.923s2.157 1.759 2.872 4.648c.127.505.206 1.046.223 1.616.119 3.839 0 12.531 0 12.531l6.366-4.345 6.349 4.345v-11.779c0-2.226-.545-4.395-1.557-5.812-.489-.687-1.084-1.204-1.758-1.204h-12.495z" fill="#270754"/><path d="M418.028 346.923s2.157 1.759 2.871 4.648l12.759.173s-.501-4.139-3.133-4.821h-12.497z" fill="#568CDB"/><path d="M302.262 282.941H168.197V222.82h134.554c11.898 0 21.543 9.625 21.543 21.497v16.643c0 12.138-9.864 21.981-22.032 21.981z" fill="#FCECDB"/><path d="M324.371 246.146v12.94c-.034 5.527-2.6 10.322-6.371 12.885-1.856 1.257-4.003 1.977-6.282 1.977H164.094c-1.73 0-3.133 1.671-3.133 3.734v1.528c0 2.06 1.403 3.734 3.133 3.734h255.023c7.319 0 13.785-4.335 17.69-10.97 2.464-4.182 3.91-9.273 3.91-14.772v-10.208c0-3.768-.722-7.335-2.015-10.511-3.279-8.083-10.225-13.658-18.265-13.658H164.094c-1.73 0-3.133 1.668-3.133 3.729v1.527c0 2.061 1.403 3.734 3.133 3.734h148.075c3.538 0 6.743 1.796 8.98 4.668 1.977 2.542 3.2 5.929 3.222 9.663z" fill="#131781"/><path d="M160.958 277.682v1.527c0 2.061 1.403 3.734 3.133 3.734h255.023c7.318 0 13.785-4.335 17.69-10.97H317.999c-1.856 1.257-4.003 1.977-6.282 1.977H164.093c-1.732-.002-3.135 1.669-3.135 3.732z" fill="#131781"/><path d="M168.197 252.879l18.926 1.01-18.926.611v-1.621zM168.197 239.044l45.025 1.01-45.025.608v-1.618z" fill="#F4D2B8"/><path d="M212.757 239.853s-2.972 1.905-3.956 5.041a6.716 6.716 0 00-.309 1.752c-.163 4.163 0 13.586 0 13.586l-8.772-4.71-8.75 4.71v-12.77c0-2.415.751-4.763 2.144-6.302.677-.744 1.497-1.307 2.423-1.307h17.22z" fill="#F99746"/><path d="M212.757 239.853s-2.972 1.905-3.956 5.041l-17.579.187s.69-4.488 4.317-5.228h17.218z" fill="#ED7D2B"/><path d="M319.54 272.392c4.403 7.775 9.99 10.805 9.99 10.805l23.329.165c.003-.002-36.678-16.901-33.319-10.97z" fill="#233862"/><path d="M337.035 332.434c.602.699.674 1.477.37 2.305 0 .003-.003.01-.007.012-.569 1.53-2.418 3.232-4.565 4.926-.274.218-.518.417-.732.601-.055.048-.112.096-.163.146-.043.038-.084.077-.127.113-2.005 1.816-1.257 2.242-4.862 5.933-4.109 4.206-6.918 4.263-7.714 3.871-.674-.333.715-2.571 2.255-5.084l.223-.366c.204-.336.408-.673.611-1.011 1.804-3.025 1.358-4.454.967-8.981-.317-3.676-5.584-20.57-5.584-20.57l7.827-1.288s2.259 13.438 4.838 15.523c1.379 1.11 2.931 1.137 4.26 1.962.093.058.187.118.276.177.755.508 1.523 1.03 2.127 1.731z" fill="#FFB27D"/><path d="M337.035 332.434c.602.699.674 1.477.369 2.305 0 .003-.002.01-.007.012-.693 1.527-2.497 3.22-4.572 4.912-.271.223-.511.426-.724.615-.056.048-.113.096-.164.146-.043.038-.084.077-.127.113-2.005 1.816-1.257 2.242-4.862 5.933-4.109 4.206-6.917 4.264-7.714 3.871-.674-.333.715-2.571 2.255-5.084.796-.285 4.495-1.755 7.309-5.295 2.477-3.112 4.144-7.119 5.833-9.433.094.057.187.117.276.177.756.505 1.523 1.027 2.128 1.728z" fill="#233862"/><path d="M274.037 327.118c-.499 2.406-3.936 1.98-7.772 1.015-3.835-.965-2.931.155-8.395-.486-5.464-.642-7.107-2.688-7.268-3.502-.144-.72 2.56-.955 5.462-1.269.364-.038.731-.081 1.098-.122 3.277-.387 5.688-2.477 8.672-4.186 2.828-1.621 7.076-8.27 7.076-8.27l7.495.646s-3.979 5.939-5.519 8.521c-.907 1.52-.873 3.538-.772 5.097.05.845.1 1.709-.077 2.556z" fill="#FFB27D"/><path d="M266.265 328.133c-3.835-.965-2.931.155-8.395-.486-5.464-.642-7.107-2.688-7.268-3.502-.144-.721 2.56-.955 5.462-1.269l.026.055s3.265 2.344 7.815 2.485c3.711.117 7.647-.917 10.209-.857.052.847.1 1.714-.077 2.559-.499 2.405-3.936 1.979-7.772 1.015zM303.118 279.463l6.879 18.876 8.981 24.647s2.483.256 4.867-.409c2.195-.615 4.72-2.253 4.72-2.253s-2.355-26.413-6.989-41.599c-1.188-3.896-2.528-7.054-4.018-8.834-7.292-8.718-14.44 9.572-14.44 9.572z" fill="#233862"/><path d="M310.458 249.612c4.603-1.446 17.693.543 30.835 3.207l2.787-4.516 28.441-2.016s9.232 20.825 4.005 34.016c-.767 1.939-2.643 2.746-5.2 2.77l-.002.004s-16.966.295-22.459.256c-14.137-.1-29.848-9.907-31.887-10.331-3.337-.689-4.721 5.97-8.113 12.948-3.391 6.979-31.63 30.789-31.63 30.789s-4.316.012-6.093-.668c-1.912-.73-2.605-1.666-2.605-1.666s31.54-61.531 41.921-64.793z" fill="#2B478B"/><path d="M344.523 209.241c10.084 5.632 30.537 17.308 30.645 17.234 0 0 7.527 2.891 11.83.084 7.169-4.68 11.087-17.383-1.888-28.43-6.471-5.51-11.086-6.872-11.727-15.599-.348-4.735-6.721-20.401-17.503-19.032-.901.115-1.808.194-2.715.158-1.257-.05-3.336.12-5.476 1.369-6.124 3.579-18.326 41.954-3.166 44.216z" fill="#233862"/><path d="M353.041 204.566c-.045.028 4.968 1.776 8.338.313 3.171-1.371 5.603-6.544 5.555-6.546-1.436-.077-3.007-1.343-4.164-9.582l-.614.215-10.321 3.624s.722 3.301 1.183 6.444c.388 2.635.587 5.163.023 5.532z" fill="#FFB27D"/><path d="M351.835 192.588s.439 2.315 1.051 5.621c5.919-1.02 8.414-6.061 9.27-9.245l-10.321 3.624z" fill="#ED975D"/><path d="M350.278 195.851s14.099-1.788 12.847-10.532c-1.25-8.744-.273-14.865-9.328-14.094-9.055.771-10.324 4.357-10.617 7.377-.292 3.019 3.399 17.488 7.098 17.249z" fill="#FFB27D"/><path d="M343.729 173.817s8.962 7.818 15.09 8.486c6.129.667 8.465-1.281 8.465-1.281s-3.593-3.021-5.735-7.87a4.307 4.307 0 00-3.538-2.561c-4.375-.407-12.677-.64-14.282 3.226z" fill="#233862"/><path d="M349.371 173.161s-3.036 2.889-4.003 5.041c-.931 2.078-1.242 7.057-.525 9.041 0 0-4.637-9.153-1.943-13.565 2.854-4.677 6.471-.517 6.471-.517z" fill="#233862"/><path d="M341.033 225.187c.225 28.455-.043 22.507 3.058 25.231.746.656 2.857 1.058 5.637 1.262 8.738.641 24.118-.69 24.713-2.298 2.056-5.565.645-7.308 2.387-15.836.182-.908.405-1.889.669-2.959 1.444-5.857 2.823-7.842-2.087-17.304-4.454-8.569-9.093-15.53-9.515-15.283-11.957 6.97-12.876 1.034-12.876 1.034s-12.096 12.272-11.986 26.153z" fill="#F9DDBF"/><path d="M309.997 298.339l8.981 24.647s2.482.256 4.866-.409c2.195-.615 4.721-2.252 4.721-2.252s-2.356-26.414-6.99-41.599l-11.578 19.613z" fill="#2B478B"/><path d="M353.017 199.032s-12.266 1.986-13.744 7.241c-1.475 5.254-10.161 36.143-10.161 36.143s6.222 1.161 9.12-1.689c2.898-2.851 10.201-26.57 10.201-26.57l4.584-15.125z" fill="#F9DDBF"/><path d="M349.729 251.677c8.738.642 24.118-.689 24.713-2.297 2.055-5.566.645-7.308 2.386-15.837l-4.133-11.879s.605 13.2-3.319 16.643c-3.92 3.442-16.014 6.587-17.93 9.474-.924 1.385-1.535 2.779-1.717 3.896z" fill="#F2CCAA"/><path d="M359.784 246.199s-8.611-1.978-10.01-1.224c-1.396.754-4.819 3.512-5.25 4.476-.432.965 3.103-.713 4.252-1.012.744-.194 2.694.498 3.658.826 4.061 1.383 6.561.703 6.561.703l.789-3.769z" fill="#FFB27D"/><path d="M365.903 197.993s11.576.795 15.545 6.403c5.589 7.894 16.549 41.451 10.099 45.872-7.261 4.976-32.898 1.084-32.898 1.084s-.825-3.99.377-5.908c1.202-1.917 20.532-4.895 21.429-5.778.897-.883-11.017-17.418-10.997-20.087.019-2.669-3.555-21.586-3.555-21.586z" fill="#F9DDBF"/><path d="M349.339 247.369s-1.823 2.315-2.417 2.588c-.595.273-.977.201-.977.201l1.233-2.178 2.161-.611zM349.774 244.975l-5.272 2.509s.221.366.868.342c.648-.024 2.284-.608 2.284-.608l2.12-2.243z" fill="#FFB27D"/><path d="M348.047 253.71l-41.566-.292-12.284-31.115 41.502.292 12.348 31.115z" fill="#F99746"/><path d="M306.003 252.207l54.886.385-.008 1.209-54.401-.383-.477-1.211z" fill="#ED7D2B"/><path d="M317.083 237.979c-.305-1.094.333-1.973 1.425-1.966 1.094.008 2.226.901 2.533 1.994.304 1.094-.334 1.973-1.425 1.966-1.091-.01-2.226-.903-2.533-1.994z" fill="#fff"/><path d="M122.594 221.178s2.262 9.795 8.856 9.795c5.651 0 13.406-12.749 13.406-12.749l-22.262 2.954z" fill="#F99746"/><path d="M198.298 365.847l-4.236 2.906s-20.374-21.672-25.294-42.444c-.878-3.71-1.233-7.368-.856-10.839 0 0-.297-.94-.818-2.604-.024-.072-.046-.148-.07-.223-.227-.73-.501-1.589-.803-2.561-.988-3.138-2.346-7.434-3.891-12.325-3.562-11.255-11.705-36.637-15.185-47.193l25.013-9.031s2.84 6.465 6.922 24.037c.628 2.293 1.259 4.83 1.847 7.593.667 3.131 1.29 6.551 1.809 10.249a157.064 157.064 0 011.499 21.04 162.91 162.91 0 01-.25 9.769c-.136 2.468.231 5.754.919 9.493 3.152 17.1 13.394 42.133 13.394 42.133z" fill="#2B478B"/><path d="M211.622 376.29h-20.223s-.756-3.219.571-5.409c1.175-1.939.724-3.043-.147-4.646.917.373 2.102.715 3.406.639 1.008-.058 2.073-.515 3.008-1.056.871.991 4.599 5.206 5.762 6.039 1.324.953 7.217.615 7.623 4.433zM182.736 283.415l-15.712 29.228c-.227-.73-.501-1.589-.803-2.561-.988-3.138-2.346-7.434-3.891-12.325-3.562-11.255-11.705-36.637-15.185-47.193l25.013-9.031s2.84 6.465 6.922 24.037c.628 2.293 1.259 4.83 1.847 7.593a148.14 148.14 0 011.809 10.252zM146.736 369.973s-1.4 3.428-.081 6.317h11s.228-2.606-3.764-5.627c-3.024-2.288-7.155-.69-7.155-.69z" fill="#233862"/><path d="M158.706 146.846c.007-.546.288-6.439 9.259-6.961 0 0-4.402.632-5.119 2.588 0 0 2.948-2.466 5.416-1.755 2.466.711 4.008 4.957 4.056 6.365.048 1.407-1.201 5.979-2.746 6.4-.585.161-1.264.137-1.881.048.43.634.852 1.336 1.257 2.119 3.759 7.252.516 15.795-2.535 15.075-1.957-.462-3.147 2.922-3.147 2.922l-18.825-16.154c0 .002 6.594-14.499 14.265-10.647z" fill="#2C3A64"/><path d="M146.873 195.932c2.087 1.446 4.704 2.635 7.99 3.392 12.315 2.839 17.035-7.547 18.808-14.678-1.679-.96-3.26-1.17-4.172-1.278a38.714 38.714 0 00-2.602-.213c-1.384-1.058-3.445-5.384-3.898-12.1l-.58.156-9.705 2.649s.443 3.078.662 5.989c.168 2.277.194 4.455-.238 4.986-.758.163-1.211.271-1.211.271l-.005.009c-.132.216-2.948 4.838-5.049 10.817z" fill="#FFB27D"/><path d="M152.711 173.865s.446 3.076.662 5.989c5.498-.548 8.05-5.773 9.043-8.639l-9.705 2.65z" fill="#ED985F"/><path d="M152.599 178.487s12.66-3.246 10.513-11.082c-2.147-7.837-1.96-13.534-10.134-11.791-8.175 1.74-8.918 5.158-8.839 7.946.079 2.789 5.111 15.569 8.46 14.927z" fill="#FFB27D"/><path d="M143.316 159.101c1.3-2.892 2.914-2.777 3.934-2.293 5.848-5.668 11.825-1.295 11.825-1.295 2.389 5.39 7.338 7.497 7.338 7.497s-1.907 2.046-7.578 2.137c-1.731.029-3.492-.723-5.102-1.778 3.131 2.997 6.757 4.78 6.757 4.78-7.128-1.185-12.084-9.268-12.592-10.128-.581.9-1.684 2.813-1.742 4.41-.079 2.166.768 6.35-.47 6.539 0 0-4.32-5.534-2.37-9.869z" fill="#2C3A64"/><path d="M148.957 184.457s21.262-5.151 30.506 2.458l-4.619 64.301-41.583-10.025s1.17-4.069 9.143-14.888c7.976-10.82 4.507-26.689 6.553-41.846z" fill="#FFB27D"/><path d="M161.351 244.058l-.067.635-.07.646c-.18 1.666-.518 4.864-.954 9.022-1.142 10.905-2.931 28.419-4.152 42.245-.955 10.81-1.562 19.365-1.233 20.738.986 4.134 0 53.549 0 53.549-3.533 1.692-8.892 0-8.892 0s-9.415-44.532-8.095-50.719c1.316-6.19-.881-11.473-.881-11.473-7.308-33.968-6.51-52.796-5.056-61.808.422-2.621.899-4.412 1.25-5.503.295-.929.501-1.353.501-1.353 16.119-4.33 27.649 4.021 27.649 4.021z" fill="#2B478B"/><path d="M182.33 205.255c-1.027 7.737-5.133 17.201-6.599 22.297 0 0 2.451 17.689.11 22.548-.266.555-.595.941-.998 1.115-8.671 3.77-42.436.111-43.861-10.761-.518-3.95 12.861-17.842 13.641-19.528.324-.696.669-2.958-.899-7.64-2.224 6.841-14.495 4.873-14.495 4.873 1.439-2.46 5.029-19.474 9.035-27.155 3.013-5.774 11.056-6.612 11.056-6.612s3.348 5.3 11.443 4.548c8.096-.751 9.578-5.697 9.578-5.697s7.182.953 9.393 2.734c.382.309 3.944 9.144 2.596 19.278z" fill="#F99746"/><path d="M175.731 227.552s2.451 17.689.11 22.548c-6.318-3.164-11.295-11.724-10.146-21.258.849-7.049 2.113-8.655 5.891-12.689 2.778-2.963 9.197-3.13 8.693-1.721-1.497 4.197-3.773 10.43-4.548 13.12z" fill="#ED7D2B"/><path d="M149.363 206.634l14.478 23.178h-24.636l-13.795-22.678 23.953-.5z" fill="#1C468A"/><path d="M163.088 228.648l.25-.809-13.701-21.935-.274.73 13.725 22.014z" fill="#EFDECE"/><path d="M149.636 205.904l-23.206.658-1.02.572 23.953-.5.273-.73z" fill="#FCECDB"/><path d="M125.41 207.134l-13.017-7.032 15.176 23.783 11.636 5.927-13.795-22.678z" fill="#163560"/><path d="M194.306 223.378c-1.394.636-4.975 4.842-6.251 5.27-5.745 1.918-30.192-3.186-30.192-3.186l.758-4.272s23.996.636 26.632-.07c.497-.134 3.09-4.181 4.088-4.761l4.965 7.019z" fill="#FFB27D"/><path d="M158.622 221.187s-2.893-2.35-4.848-1.819c-1.955.531-4.833 2.999-5.9 3.583-1.068.584-3.97 2.674-2.5 3.938 1.471 1.264 6.052.179 7.865-.79 1.814-.97 4.627-.639 4.627-.639l.756-4.273z" fill="#FFB27D"/><path d="M154.326 219.294s-3.517-.419-4.479-.4c-.959.019-.7.23-.17.974.53.745 2.36 1.027 2.444 1.288.084.261 2.205-1.862 2.205-1.862z" fill="#FFB27D"/><path d="M170.34 183.243s10.429 1.236 13.3 5.697c3.632 5.642 12.199 28.116 11.924 33.779 0 0-6.266 10.64-27.745 8.936 0 0-2.236-7.878 2.283-10.48 0 0 11.034-1.958 12.305-3.075l-8.995-16.315-3.072-18.542z" fill="#F99746"/><path d="M128.747 215.608c-.324-1.312-3.188-.493-4.155.263-.235.184-.487.495-.734.862a11.376 11.376 0 01-.069-.594c-.056-.615-.773-1.719-.953-.893-.177.826-.472 4.297-.472 4.297-.036 2.796 1.765 3.949 2.921 3.04 1.159-.912 3.785-5.664 3.462-6.975z" fill="#FFB27D"/></svg>