<svg width="20" height="17" viewBox="0 0 20 17" fill="none" xmlns="http://www.w3.org/2000/svg">
<path d="M18.4302 0.277344H1.24953C0.559487 0.277344 0 0.884311 0 1.63296V15.5282C0 16.2768 0.559487 16.8838 1.24953 16.8838H18.4302C19.1203 16.8838 19.6798 16.2768 19.6798 15.5282V1.63296C19.6798 0.884311 19.1203 0.277344 18.4302 0.277344ZM18.4302 1.63296V11.4921L15.9678 9.06317C15.5976 8.69817 15.0285 8.71275 14.6749 9.09674L12.1827 11.8002L7.26872 5.43211C6.89728 4.95085 6.21692 4.94612 5.8399 5.4216L1.24953 11.2095V1.63296H18.4302ZM13.1199 5.1915C13.1199 4.16189 13.8889 3.32749 14.8379 3.32749C15.7869 3.32749 16.556 4.16189 16.556 5.1915C16.556 6.22111 15.787 7.05547 14.8379 7.05547C13.8889 7.05551 13.1199 6.22111 13.1199 5.1915Z" fill="#242424"/>
</svg>
