<svg width="37" height="37" viewBox="0 0 37 37" fill="none" xmlns="http://www.w3.org/2000/svg">
<path d="M30.6406 8.09375V31.2188H6.35938V8.09375H30.6406Z" fill="#E8DAC5"/>
<path d="M28.9062 1.15625L30.6406 8.09375H6.35938L8.09375 1.15625H28.9062Z" fill="#732DE2"/>
<path d="M30.6406 31.2188L28.9062 35.8438H8.09375L6.35938 31.2188H30.6406Z" fill="#732DE2"/>
<path d="M18.5 28.9062C13.5073 28.9062 10.4062 26.0266 10.4062 21.3906C10.4062 16.3106 13.9415 10.4062 18.5 10.4062C23.0585 10.4062 26.5938 16.3106 26.5938 21.3906C26.5938 26.0266 23.4927 28.9062 18.5 28.9062Z" fill="#DBC6A9"/>
<path d="M18.5 11.5625C22.333 11.5625 25.4375 16.9217 25.4375 21.3906C25.4375 25.8595 22.333 27.75 18.5 27.75C14.667 27.75 11.5625 25.8595 11.5625 21.3906C11.5625 16.9217 14.667 11.5625 18.5 11.5625Z" fill="#F4B34A"/>
<path d="M18.5 5.78125C19.7772 5.78125 20.8125 5.26358 20.8125 4.625C20.8125 3.98642 19.7772 3.46875 18.5 3.46875C17.2228 3.46875 16.1875 3.98642 16.1875 4.625C16.1875 5.26358 17.2228 5.78125 18.5 5.78125Z" fill="#E58842"/>
<path d="M25.4375 21.3906C25.4375 16.9217 22.333 11.5625 18.5 11.5625V27.75C22.333 27.75 25.4375 25.8595 25.4375 21.3906Z" fill="#E58842"/>
<path d="M17.9219 32.9531H19.0781V34.1094H17.9219V32.9531Z" fill="#4C1EA5"/>
<path d="M15.6094 32.9531H16.7656V34.1094H15.6094V32.9531Z" fill="#4C1EA5"/>
<path d="M20.2344 32.9531H21.3906V34.1094H20.2344V32.9531Z" fill="#4C1EA5"/>
<path d="M27.75 10.4062H28.9062V11.5625H27.75V10.4062Z" fill="#F9F1E4"/>
<path d="M27.75 12.7188H28.9062V17.3438H27.75V12.7188Z" fill="#F9F1E4"/>
</svg>
