<svg width="141" height="200" viewBox="0 0 141 200" fill="none" xmlns="http://www.w3.org/2000/svg"><path d="M44.75 26.61l.057-8.985h12.76V0h9.042l-.114 26.61H44.749zM71.015 6.18V.057L95.68 0v7.096l-11.674.229L96.08 20.372v6.237H71.014v-7.038l11.788-.172.115-.172L71.015 6.18z" fill="#000"/><path d="M141 39.141H0L12.646 183.69l57.282 15.966 58.368-16.538L141 39.141z" fill="#E4A126"/><path d="M128.125 50.586H70.443l.229 136.765 46.294-13.047 11.159-123.718z" fill="#F0BE25"/><path d="M70.443 57.396l-33.248.229-5.95 64.834h38.797v-18.025H51.101l2.632-27.468 16.71-.457V57.396zM70.156 169.212l-.228-18.999-19.285-5.207-1.316-13.848H31.416c0 1.049.034 3.582.171 5.321.138 1.74 1.774 15.832 2.576 22.661l35.993 10.072z" fill="#EAECED"/><path d="M108.153 57.625l3.548 37.996-17.91-.114-2.004-17.968a31.078 31.078 0 00-3.948-.515c-1.602-.092-12.265-.382-17.396-.515V57.396l37.71.229zM107.066 104.548c2.518.046 4.063.325 4.521.458l-5.036 53.791c-1.621.534-5.104 1.682-6.066 2.003-.961.32-20.543 5.741-30.214 8.412l-.286-18.884 19.685-5.322 2.403-22.547h-22.03v-18.082c11.291.038 34.505.126 37.023.171z" fill="#fff"/></svg>