<svg width="190" height="190" viewBox="0 0 190 190" fill="none" xmlns="http://www.w3.org/2000/svg"><path d="M0 0h190v190H0V0z" fill="#F7DF1E"/><path d="M49.958 158.778l14.54-8.8c2.805 4.974 5.357 9.182 11.477 9.182 5.868 0 9.567-2.295 9.567-11.222v-60.71h17.855v60.962c0 18.494-10.84 26.911-26.656 26.911-14.284 0-22.575-7.397-26.783-16.325M113.095 156.865l14.539-8.418c3.827 6.25 8.801 10.841 17.6 10.841 7.399 0 12.116-3.699 12.116-8.8 0-6.122-4.846-8.291-13.009-11.861l-4.462-1.914c-12.882-5.483-21.428-12.37-21.428-26.91 0-13.392 10.203-23.596 26.146-23.596 11.351 0 19.514 3.955 25.38 14.286l-13.902 8.927c-3.061-5.484-6.376-7.652-11.477-7.652-5.23 0-8.546 3.316-8.546 7.652 0 5.357 3.316 7.525 10.968 10.842l4.463 1.913c15.178 6.504 23.723 13.136 23.723 28.057 0 16.071-12.626 24.871-29.589 24.871-16.58 0-27.293-7.907-32.521-18.238" fill="#000"/></svg>