<svg width="290" height="213" viewBox="0 0 290 213" fill="none" xmlns="http://www.w3.org/2000/svg" xmlns:xlink="http://www.w3.org/1999/xlink"><path fill="url(#pattern0)" d="M0 0h289.92v212.64H0z"/><path fill-rule="evenodd" clip-rule="evenodd" d="M259.5 23.13a37.896 37.896 0 00-27.99-10.4c-44.77 2.2-116.91 5.74-160.1 7.86-20.18.99-36.03 17.64-36.03 37.84v56.69c0 1.99.16 3.95.46 5.86-3.29 3.98-5.43 9.06-9.27 12.55-2.72 2.47-7.03 3.83-10.28 5.39l-3.61 1.73.07.15h-.01l.3 3.99c1 13.19 4.39 24.01 11.21 33.6 1.27 1.79 2.94 4.49 4.9 6.57 1.82 1.93 3.91 3.33 6.08 3.8 1.94.42 4.21-.26 5.99-.86 1.79-.61 3.55-1.31 5.3-2.02 7.02 7.4 15.84 8.94 24.91 7.56 8.29-1.26 16.79-5.05 23.93-8.4 2.62-1.23 5.18-2.55 7.78-3.82l2.13-1.04c3.65.48 7.67.05 10.77-.39 4.74-.66 10.74-2.31 14.35-5.69 1.06-.99 1.91-2.22 2.69-3.43 2.09-3.21 2.52-6.12 2.34-9.11-.1-1.62-.42-3.26-.67-5.03 33.93 1.91 69.96 3.93 96.47 5.42 10.4.59 20.58-3.14 28.16-10.3a37.902 37.902 0 0011.86-27.53V50.57a37.714 37.714 0 00-11.74-27.44z" fill="#F9F9F9"/><path d="M259.5 23.13a37.896 37.896 0 00-27.99-10.4c-44.77 2.2-116.91 5.74-160.1 7.86-20.18.99-36.03 17.64-36.03 37.84v56.69c0 1.99.16 3.95.46 5.86-3.29 3.98-5.43 9.06-9.27 12.55-2.72 2.47-7.03 3.83-10.28 5.39l-3.61 1.73.07.15h-.01l.3 3.99c1 13.19 4.39 24.01 11.21 33.6 1.27 1.79 2.94 4.49 4.9 6.57 1.82 1.93 3.91 3.33 6.08 3.8 1.94.42 4.21-.26 5.99-.86 1.79-.61 3.55-1.31 5.3-2.02 7.02 7.4 15.84 8.94 24.91 7.56 8.29-1.26 16.79-5.05 23.93-8.4 2.62-1.23 5.18-2.55 7.78-3.82l2.13-1.04c3.65.48 7.67.05 10.77-.39 4.74-.66 10.74-2.31 14.35-5.69 1.06-.99 1.91-2.22 2.69-3.43 2.09-3.21 2.52-6.12 2.34-9.11-.1-1.62-.42-3.26-.67-5.03 33.93 1.91 69.96 3.93 96.47 5.42 10.4.59 20.58-3.14 28.16-10.3a37.902 37.902 0 0011.86-27.53V50.57a37.714 37.714 0 00-11.74-27.44z" stroke="#fff" stroke-width="19" stroke-miterlimit="10" stroke-linecap="round" stroke-linejoin="round"/><path fill-rule="evenodd" clip-rule="evenodd" d="M271.27 50.57a37.89 37.89 0 00-11.76-27.44 37.896 37.896 0 00-27.99-10.4c-44.77 2.2-116.91 5.74-160.1 7.86-20.18.99-36.03 17.64-36.03 37.85v56.69c0 20.1 15.7 36.7 35.77 37.83 43.07 2.42 115.21 6.47 160.1 8.99 10.4.59 20.58-3.14 28.15-10.3a37.902 37.902 0 0011.86-27.53V50.57z" fill="#0B66C3"/><path fill-rule="evenodd" clip-rule="evenodd" d="M16.92 144.1c1.11 12.5 4.3 30.69 15.52 38.45 5.51 3.81 10.37-1.53 16.09-.18 6.91 1.63 10.7 7.19 18.68 7.63 5.01.28 9.42-1.74 14.01-3.44 6.58-2.45 13.28-4.4 19.72-7.24 3.48-1.54 7.73-2.94 11.5-3.4 3.65-.44 7.88-.36 11.16-2.21 8.7-4.91 5.66-11.07 7.91-18.73 1.23-4.18 3.77-8.1 3.7-12.57-.03-1.96-1.02-3.78-1.11-5.76-.18-3.99.87-8.52-.53-12.37-1.09-3.02-4.9-4.97-5.63-7.98-.62-2.59 1.6-4.57 2-6.96.83-4.92-3.74-9.08-8.02-10.19-10.48-2.72-22.23-.06-32.73.67-3.58.25-8.65 3.31-12.03 1.16-2.69-1.71-2.87-6.64-3.91-9.33-1.29-3.37-1.69-6.97-2.99-10.32C67.23 73.5 55.73 62.9 46.8 68c-4.78 2.73-.8 9.87.73 13.41 4.25 9.86 7.52 21.34 1.16 31.36-2.02 3.19-4.8 5.76-7.13 8.69-3.89 4.89-7.51 10.07-12.3 14.13-3.56 3.02-10.91 4.97-11.81 10.29-1.49 8.82 4.86 16.85 7.68 24.55" fill="#F1CDDC"/><path fill-rule="evenodd" clip-rule="evenodd" d="M119.7 115.05l-.1.01v.02c-4.52 1.58-9.5 2.08-14.18 2.67-3.92.49-7.87 1.13-11.82 1.22-2.66.06-6.08.49-8.6-.65-.17-.08-.22-.29-.33-.46-.28-.41-.51-.86-.74-1.29-.68-1.28-1.35-3-1.65-4.75-.22-1.25-.33-2.54.23-3.55 1.17-2.1 3.96-3.39 6.03-3.89l.17-.04.17-.06c7.13-2.4 14.39-3.1 21.82-2.9 3.76.1 7.58.3 11.17 1.61 3.46 1.26 7.53 4.89 4.53 8.64-1.43 1.79-4.1 2.45-6.12 3.21-.2.07-.39.14-.58.21zm-27.07 11.94l-3.98.39c-1.38.13-3.32-.13-4.31 1.86-.67 1.35-.3 3.37.12 4.64.45 1.37.88 3.03 1.56 4.52.37.82.76 1.64 1.53 2.05 1.01.54 2.29.61 3.4.75 3.94.51 8.04-.46 11.92-1.07 8.22-1.28 18.21-2.62 25.31-7.2.91-.58 1.7-1.29 2.37-2.14.93-1.19 1.55-2.41 1.36-3.65-.19-1.25-1.22-2.29-2.89-3.28-1.38-.82-3.73-1.41-4.53-1.31l-3.05.35c-4.83 1.55-10.07 2.17-15.02 2.79-4.19.53-8.42 1.19-12.65 1.28-.37 0-.75.01-1.14.02zm38.55 13.48c-7.87 4.53-18.32 6.2-27.07 7.56-4.15.65-8.51 1.51-12.76 1.24-.12.82.09 2 .44 3.16.46 1.51 1.27 3.08 2.8 3.79 1.25.58 2.88.44 4.5.27 2.36-.25 4.72-.77 6.58-1.01 7.12-.91 14.04-1.52 20.54-4.82 3.67-1.87 6.21-4.18 5.57-8.52-.1-.6-.33-1.15-.6-1.67zm-4.1 18.57c-6.52 2.68-13.36 3.46-20.4 4.36-1.7.22-3.82.66-5.98.94l.11.85c.18 1.45.65 2.9 1.15 4.27.7 1.92 2.46 2.52 4.29 2.79 2.92.43 6.19-.03 8.7-.38 3.26-.45 7.5-1.28 9.98-3.61.59-.55 1.02-1.28 1.46-1.95 1.22-1.88 1.18-3.58.96-5.36-.07-.62-.17-1.26-.27-1.91zm-62.25-.06c-2.04 2.34-4.34 4.48-6.99 6.33l-3.28 2.29-4.57-6.56 3.28-2.29c5.91-4.12 9.59-10.01 12.8-16.32 3.86-7.58 5.39-15.98 6.16-24.38.9-9.88.7-19.59-2.31-29.14-1.16-3.69-2.51-7.49-4.43-10.76-2.47-4.21-5.93-7.54-11.53-8.07-1.05-.1-2.43-.15-3.73.06-.39.06-.78.11-1.13.22l.11.42c.79 2.83 1.63 5.65 2.38 8.49 1.09 4.16 2.23 8.29 3.61 12.36 2.57 7.59.32 16.92-2.29 23.47l-.44 1.11-.97.68c-4.94 3.48-7.6 6.91-9.46 9.14-3.55 4.27-5.96 9.66-10.08 13.41-2.89 2.62-7.17 4.38-10.82 6.04 1 11.01 3.88 20.16 9.65 28.26.94 1.33 2.11 3.24 3.49 4.91.79.96 1.56 1.96 2.54 2.25.25-.08 1.34-.41 1.85-.58 2.75-.94 5.42-2.12 8.13-3.17l3.73-1.45 1.82 4.67c5.03 5.29 11.42 6.14 17.9 5.16 7.54-1.14 15.24-4.68 21.73-7.73 1.48-.69 2.94-1.42 4.4-2.15-.79-.97-1.44-2.12-1.93-3.47-.7-1.92-1.32-3.98-1.57-6.01l-.28-2.2c-.48-.15-.94-.32-1.38-.52-3.65-1.69-6-5.13-7.08-8.72-.8-2.63-.87-5.3-.5-7.33-1.82-1.02-3.22-2.58-4.26-4.46-1.11-1.99-1.79-4.35-2.43-6.33-.97 3.23-2.2 6.38-3.75 9.42a85.605 85.605 0 01-3.22 5.81c7.07 1.71 13.57 4.94 16.36 11.04l1.66 3.64-7.27 3.33-1.67-3.64c-1-2.19-2.92-3.62-5.15-4.69-2.72-1.27-5.93-2.01-9.08-2.54zm-52.07-18.17h-.01l.3 3.99c1 13.19 4.39 24.01 11.21 33.6 1.27 1.79 2.94 4.49 4.9 6.57 1.82 1.93 3.91 3.33 6.08 3.8 1.94.42 4.2-.26 5.99-.86 1.79-.61 3.55-1.31 5.3-2.02 7.02 7.4 15.84 8.94 24.91 7.56 8.29-1.26 16.79-5.05 23.93-8.4 2.61-1.23 5.18-2.55 7.78-3.82l2.13-1.04c3.65.48 7.67.05 10.77-.39 4.74-.66 10.74-2.31 14.35-5.69 1.06-.99 1.91-2.22 2.69-3.43 2.09-3.21 2.52-6.12 2.34-9.11-.13-2.14-.66-4.33-.88-6.8 4.01-3.28 6.03-7.6 5.11-13.81-.29-1.99-1.2-3.81-2.16-5.54l-.19-.35c2.08-2.93 2.95-6.11 2.5-9.12-.48-3.21-2.44-6.44-6.73-8.97-.16-.1-.33-.19-.51-.28a.18.18 0 00.05-.07c6.95-8.7-.01-18.21-8.03-21.14-4.4-1.61-9.08-1.97-13.69-2.1-8.32-.23-16.45.6-24.43 3.26-1.99.5-4.24 1.49-6.25 2.85-.47-4.36-1.33-8.69-2.68-12.99-3.61-11.44-9.31-23.12-22.84-24.39-1.98-.19-4.69-.2-7.06.39-2.12.53-3.98 1.55-5.27 3.04-1.83 2.13-1.55 4.98-.87 7.4.78 2.79 1.61 5.56 2.34 8.36 1.14 4.34 2.33 8.65 3.77 12.9 1.83 5.42.13 11.95-1.73 16.88-5.1 3.78-7.98 7.42-10.01 9.85-3.32 3.99-5.46 9.1-9.31 12.61-2.72 2.47-7.03 3.83-10.28 5.39l-3.61 1.73.09.14z" fill="#355DFA"/><g clip-path="url(#clip0)" fill="#fff"><path d="M240.978 128v-.004H241V95.722c0-15.788-3.399-27.95-21.857-27.95-8.873 0-14.828 4.869-17.259 9.485h-.257v-8.012h-17.501v58.751h18.224V98.905c0-7.66 1.452-15.066 10.937-15.066 9.347 0 9.486 8.74 9.486 15.557V128h18.205zM154.452 69.249h18.245V128h-18.245V69.249zM163.567 40C157.734 40 153 44.734 153 50.567c0 5.834 4.734 10.667 10.567 10.667 5.834 0 10.568-4.833 10.568-10.667C174.131 44.734 169.397 40 163.567 40z"/></g><defs><clipPath id="clip0"><path fill="#fff" transform="translate(153 40)" d="M0 0h88v88H0z"/></clipPath><pattern id="pattern0" patternContentUnits="objectBoundingBox" width="1" height="1"><use xlink:href="#image0"/></pattern></defs></svg>