<svg width="15" height="21" viewBox="0 0 15 21" fill="none" xmlns="http://www.w3.org/2000/svg">
<path d="M7.50001 0C3.64028 0 0.5 3.14028 0.5 7.00001C0.5 8.15871 0.789693 9.30755 1.34041 10.3265L7.11722 20.7744C7.19412 20.9137 7.34067 21 7.50001 21C7.65936 21 7.80591 20.9137 7.88281 20.7744L13.6617 10.3231C14.2103 9.30755 14.5 8.15866 14.5 6.99997C14.5 3.14028 11.3597 0 7.50001 0ZM7.50001 10.5C5.57015 10.5 4.00003 8.92988 4.00003 7.00001C4.00003 5.07015 5.57015 3.50003 7.50001 3.50003C9.42988 3.50003 11 5.07015 11 7.00001C11 8.92988 9.42988 10.5 7.50001 10.5Z" fill="#909090"/>
</svg>