<svg width="613" height="380" viewBox="0 0 613 380" fill="none" xmlns="http://www.w3.org/2000/svg">
<g clip-path="url(#clip0)">
<g opacity="0.43">
<path d="M124.287 32.5684H19.6382V220.543H124.287V32.5684Z" fill="#1B4041"/>
<path d="M119.028 38.02H23.8213V214.943H119.028V38.02Z" fill="#2B4949"/>
<path d="M119.028 40.1026L23.8213 161.198V38.02H119.028V40.1026Z" fill="#1B4041"/>
<path d="M121.093 88.9121H23.8213V90.7934H121.093V88.9121Z" fill="#1B4041"/>
<path d="M121.093 131.045H23.8213V132.926H121.093V131.045Z" fill="#1B4041"/>
<path d="M121.093 173.177H23.8213V175.059H121.093V173.177Z" fill="#1B4041"/>
<path d="M69.0183 89.8607L69.0183 219.96H73.8316L73.8316 89.8607H69.0183Z" fill="#1B4041"/>
<path d="M44.3346 38.02H42.1555V89.8569H44.3346V38.02Z" fill="#1B4041"/>
<path d="M63.1237 38.02H60.9446V89.8569H63.1237V38.02Z" fill="#1B4041"/>
<path d="M81.9218 38.02H79.7427V89.8569H81.9218V38.02Z" fill="#1B4041"/>
<path d="M100.72 38.02H98.5405V89.8569H100.72V38.02Z" fill="#1B4041"/>
<path d="M19.6382 29.3833H15.21V221.707H19.6382V29.3833Z" fill="#1B4041"/>
<path d="M128.716 222.232L124.287 220.543V29.3833H128.716V222.232Z" fill="#1B4041"/>
<path d="M128.716 27.4409H15.21V32.5686H128.716V27.4409Z" fill="#1B4041"/>
<path d="M131.717 222.871H12.0769V227.648H131.717V222.871Z" fill="#1B4041"/>
<path d="M124.287 220.543L131.708 222.871H12.0769L19.6381 220.543H124.287Z" fill="#1B4041"/>
</g>
<g opacity="0.43">
<path d="M574.45 149.744C574.45 149.744 567.055 149.21 567.738 165.801C568.42 182.392 570.109 191.229 570.109 191.229C570.109 191.229 569.891 194.905 567.046 194.187C564.193 193.461 558.837 189.882 556.186 192.56C553.438 195.333 554.418 199.595 558.059 204.609C561.699 209.623 569.278 220.902 569.961 221.926C570.626 222.932 570.897 224.813 568.875 224.629C566.854 224.446 553.219 219.826 551.416 226.432C549.614 233.03 562.049 245.333 563.388 246.707C564.718 248.08 564.797 248.947 564.255 249.769C563.712 250.6 559.275 248.614 555.346 247.459C551.416 246.304 546.656 245.656 545.929 249.55C545.203 253.444 550.69 264.846 571.212 276.825L581.084 281.752L590.43 275.793C609.648 261.818 613.963 249.927 612.851 246.129C611.74 242.323 607.066 243.451 603.277 244.991C599.479 246.532 595.27 248.955 594.648 248.185C594.027 247.415 594.009 246.549 595.2 245.044C596.39 243.548 607.539 230.063 605.08 223.676C602.621 217.288 589.52 223.247 587.525 223.632C585.529 224.017 585.608 222.118 586.177 221.051C586.754 219.966 593.16 207.986 596.285 202.631C599.409 197.276 599.952 192.945 596.941 190.459C594.036 188.062 589.065 192.157 586.299 193.163C583.534 194.17 582.956 190.529 582.956 190.529C582.956 190.529 583.753 181.569 582.773 164.996C581.792 148.423 574.31 149.762 574.31 149.762" fill="#1B4041"/>
<path d="M575.027 164.602C575.027 164.602 575.045 164.716 575.071 164.952C575.089 165.197 575.115 165.538 575.15 165.967C575.211 166.877 575.299 168.198 575.412 169.887C575.64 173.291 575.929 178.218 576.27 184.308C576.944 196.488 577.74 213.315 578.545 231.901C579.359 250.495 580.103 267.322 580.716 279.503C581.022 285.575 581.276 290.502 581.451 293.923C581.538 295.612 581.6 296.933 581.643 297.843C581.661 298.281 581.678 298.613 581.687 298.867C581.696 299.094 581.687 299.217 581.687 299.217C581.687 299.217 581.67 299.103 581.643 298.867C581.626 298.622 581.6 298.281 581.565 297.852C581.503 296.942 581.416 295.621 581.302 293.932C581.074 290.528 580.786 285.601 580.444 279.511C579.771 267.331 578.974 250.504 578.16 231.91C577.346 213.324 576.603 196.497 575.99 184.317C575.684 178.244 575.43 173.317 575.255 169.896C575.167 168.207 575.106 166.886 575.062 165.976C575.045 165.538 575.027 165.197 575.019 164.952C575.027 164.725 575.027 164.602 575.027 164.602Z" fill="#1B4041"/>
<path d="M563.476 197.871C563.493 197.853 563.712 198.037 564.088 198.378C564.465 198.72 564.998 199.236 565.655 199.883C566.959 201.17 568.709 203.007 570.608 205.055C572.463 207.085 574.144 208.922 575.439 210.34C576.016 210.961 576.507 211.495 576.909 211.933C577.259 212.309 577.443 212.528 577.425 212.545C577.408 212.563 577.189 212.379 576.804 212.038C576.428 211.688 575.894 211.171 575.246 210.524C573.96 209.22 572.227 207.365 570.337 205.317C568.473 203.305 566.775 201.485 565.471 200.076C564.894 199.455 564.395 198.921 563.992 198.492C563.642 198.107 563.458 197.888 563.476 197.871Z" fill="#1B4041"/>
<path d="M578.397 212.221C578.318 212.151 581.932 208.371 586.457 203.777C590.981 199.183 594.718 195.526 594.788 195.596C594.858 195.666 591.253 199.446 586.728 204.04C582.204 208.634 578.476 212.3 578.397 212.221Z" fill="#1B4041"/>
<path d="M578.362 240.826C578.353 240.8 578.598 240.651 579.053 240.389C579.578 240.091 580.226 239.733 580.987 239.304C582.615 238.385 584.864 237.116 587.288 235.62C589.721 234.132 591.874 232.715 593.432 231.673C594.158 231.192 594.771 230.781 595.27 230.448C595.707 230.16 595.952 230.011 595.97 230.037C595.987 230.055 595.769 230.247 595.357 230.571C594.946 230.895 594.342 231.35 593.581 231.901C592.067 232.995 589.923 234.456 587.49 235.952C585.057 237.449 582.782 238.691 581.119 239.549C580.287 239.978 579.605 240.31 579.132 240.529C578.642 240.739 578.371 240.853 578.362 240.826Z" fill="#1B4041"/>
<path d="M562.005 230.816C562.023 230.79 562.259 230.912 562.688 231.14C563.117 231.367 563.729 231.709 564.482 232.137C565.987 232.995 568.044 234.194 570.31 235.541C572.577 236.889 574.616 238.131 576.086 239.041C576.821 239.496 577.408 239.873 577.819 240.135C578.222 240.398 578.44 240.555 578.423 240.581C578.405 240.608 578.169 240.485 577.74 240.258C577.312 240.03 576.699 239.689 575.946 239.26C574.441 238.403 572.385 237.204 570.109 235.856C567.843 234.509 565.803 233.266 564.333 232.356C563.598 231.901 563.012 231.525 562.6 231.262C562.207 231 561.988 230.842 562.005 230.816Z" fill="#1B4041"/>
<path d="M558.758 256.069C558.767 256.043 559.082 256.2 559.625 256.489C560.237 256.822 561.008 257.251 561.927 257.758C563.861 258.843 566.512 260.366 569.435 262.063C572.358 263.761 574.992 265.318 576.891 266.465C577.784 267.016 578.537 267.471 579.132 267.838C579.657 268.171 579.937 268.363 579.928 268.39C579.919 268.416 579.604 268.258 579.062 267.97C578.458 267.637 577.679 267.208 576.76 266.701C574.826 265.616 572.174 264.093 569.251 262.396C566.328 260.698 563.694 259.141 561.795 257.994C560.903 257.443 560.15 256.988 559.555 256.62C559.03 256.288 558.75 256.087 558.758 256.069Z" fill="#1B4041"/>
<path d="M579.499 267.943C579.49 267.917 579.797 267.716 580.357 267.366C580.987 266.981 581.792 266.491 582.755 265.905C584.776 264.671 587.568 262.956 590.605 260.978C593.641 259.009 596.337 257.145 598.28 255.798C599.207 255.15 599.986 254.617 600.59 254.197C601.133 253.82 601.448 253.619 601.465 253.645C601.483 253.663 601.203 253.908 600.678 254.319C600.161 254.73 599.391 255.317 598.437 256.017C596.529 257.425 593.851 259.324 590.806 261.302C587.769 263.279 584.951 264.959 582.886 266.141C581.853 266.727 581.013 267.191 580.427 267.497C579.841 267.803 579.508 267.961 579.499 267.943Z" fill="#1B4041"/>
<path d="M594.333 284.98H567.02L575.938 352.445H585.424L594.333 284.98Z" fill="#1B4041"/>
<path d="M568.438 293.276C568.429 293.285 568.464 293.372 568.587 293.512C568.7 293.652 568.919 293.845 569.243 293.985C569.891 294.265 571.028 294.291 572.131 293.635C573.234 293.022 574.196 291.832 575.675 291.307C577.137 290.747 578.957 290.852 580.699 291.403C582.458 291.946 583.989 292.838 585.372 293.67C586.763 294.492 588.032 295.236 589.179 295.708C590.316 296.207 591.297 296.435 591.988 296.522C592.329 296.566 592.6 296.583 592.784 296.575C592.968 296.575 593.064 296.566 593.064 296.548C593.082 296.461 591.515 296.47 589.319 295.42C588.216 294.912 586.973 294.16 585.599 293.32C584.225 292.471 582.659 291.543 580.847 290.983C579.053 290.406 577.119 290.301 575.544 290.922C574.756 291.22 574.1 291.692 573.549 292.156C572.989 292.62 572.49 293.048 571.982 293.363C570.985 294.011 569.934 294.037 569.322 293.827C568.674 293.6 568.473 293.232 568.438 293.276Z" fill="#1B4041"/>
<path d="M569.435 305.701C569.47 305.727 569.654 305.421 570.083 304.975C570.521 304.546 571.229 303.977 572.262 303.592C573.286 303.198 574.607 302.962 576.06 303.023C577.522 303.076 579.114 303.391 580.812 303.671C582.501 303.96 584.181 304.082 585.678 303.872C587.174 303.68 588.478 303.251 589.511 302.778C590.544 302.306 591.314 301.79 591.813 301.413C592.32 301.028 592.557 300.775 592.539 300.757C592.487 300.687 591.436 301.623 589.38 302.49C588.356 302.91 587.078 303.303 585.625 303.461C584.173 303.645 582.562 303.505 580.882 303.225C579.202 302.953 577.583 302.638 576.069 302.603C574.555 302.568 573.199 302.848 572.14 303.295C571.072 303.732 570.354 304.371 569.952 304.852C569.759 305.106 569.61 305.307 569.54 305.456C569.462 305.614 569.427 305.692 569.435 305.701Z" fill="#1B4041"/>
<path d="M591.244 312.351C591.253 312.334 590.999 312.159 590.491 311.957C589.984 311.756 589.205 311.555 588.225 311.476C587.245 311.397 586.072 311.459 584.803 311.669C583.525 311.879 582.16 312.229 580.734 312.535C579.298 312.841 577.916 313.043 576.664 312.99C575.413 312.946 574.301 312.675 573.435 312.29C571.676 311.52 571.055 310.4 570.985 310.47C570.967 310.479 571.09 310.759 571.448 311.179C571.798 311.599 572.411 312.132 573.304 312.579C574.187 313.016 575.343 313.331 576.647 313.401C577.951 313.471 579.377 313.27 580.821 312.964C582.274 312.657 583.63 312.29 584.873 312.071C586.116 311.844 587.253 311.747 588.207 311.782C590.124 311.852 591.209 312.43 591.244 312.351Z" fill="#1B4041"/>
<path d="M571.851 321.706C571.868 321.776 572.822 321.102 574.502 321.434C575.325 321.583 576.244 322.003 577.277 322.467C578.309 322.948 579.543 323.36 580.873 323.456C583.56 323.71 585.94 322.843 587.411 321.942C588.163 321.496 588.68 321.014 589.038 320.691C589.371 320.341 589.537 320.131 589.52 320.113C589.458 320.052 588.741 320.857 587.253 321.671C585.792 322.476 583.49 323.263 580.917 323.01C578.335 322.861 576.349 321.321 574.555 321.119C573.68 320.988 572.953 321.111 572.498 321.294C572.034 321.487 571.833 321.697 571.851 321.706Z" fill="#1B4041"/>
<path d="M573.373 334.656C573.373 334.709 574.292 334.7 575.649 334.201C577.023 333.746 578.72 332.687 580.707 331.9C581.705 331.524 582.702 331.287 583.612 331.296C584.523 331.296 585.336 331.524 585.949 331.83C587.201 332.451 587.568 333.344 587.638 333.282C587.656 333.274 587.603 333.055 587.376 332.705C587.157 332.364 586.737 331.917 586.098 331.55C585.459 331.182 584.601 330.911 583.621 330.885C582.641 330.859 581.582 331.095 580.558 331.489C578.502 332.311 576.856 333.387 575.544 333.912C574.24 334.472 573.356 334.586 573.373 334.656Z" fill="#1B4041"/>
<path d="M574.713 340.685C574.695 340.738 575.352 340.974 576.445 341.245C577.531 341.516 579.062 341.805 580.769 341.971C582.475 342.138 584.033 342.155 585.153 342.094C586.273 342.041 586.965 341.936 586.956 341.884C586.947 341.753 584.19 341.866 580.812 341.525C577.426 341.21 574.739 340.554 574.713 340.685Z" fill="#1B4041"/>
</g>
<g opacity="0.43">
<path d="M578.834 40.3042H494.506V95.7462H578.834V40.3042Z" fill="#1B4041"/>
<path d="M575.859 42.5703H497.438V93.2609H575.859V42.5703Z" fill="#2B4949"/>
<path d="M549.438 61.0425H523.858V74.9905H549.438V61.0425Z" fill="#1B4041"/>
</g>
<path d="M602.533 353.347C602.533 353.469 467.639 353.574 301.284 353.574C134.859 353.574 0 353.469 0 353.347C0 353.224 134.859 353.119 301.275 353.119C467.639 353.119 602.533 353.215 602.533 353.347Z" fill="#263238"/>
<path d="M393.357 186.172H226.958V0H407.552V171.979C407.552 179.81 401.199 186.172 393.357 186.172Z" fill="#1B4041"/>
<path d="M392.64 55.4071C392.64 55.7834 359.997 56.0897 319.741 56.0897C279.476 56.0897 246.842 55.7834 246.842 55.4071C246.842 55.0309 279.476 54.7246 319.741 54.7246C359.997 54.7246 392.64 55.0309 392.64 55.4071Z" fill="#455A64"/>
<path d="M320.607 68.0165C320.607 68.3928 304.478 68.699 284.595 68.699C264.703 68.699 248.574 68.3928 248.574 68.0165C248.574 67.6403 264.695 67.334 284.595 67.334C304.478 67.334 320.607 67.6403 320.607 68.0165Z" fill="#455A64"/>
<path d="M349.417 66.8524C349.417 67.2287 345.146 67.535 339.878 67.535C334.61 67.535 330.339 67.2287 330.339 66.8524C330.339 66.4762 334.61 66.1699 339.878 66.1699C345.146 66.1699 349.417 66.4762 349.417 66.8524Z" fill="#455A64"/>
<path d="M396.534 66.0736C396.534 66.4499 388.08 66.7562 377.649 66.7562C367.217 66.7562 358.763 66.4499 358.763 66.0736C358.763 65.6974 367.217 65.3911 377.649 65.3911C388.08 65.3911 396.534 65.6974 396.534 66.0736Z" fill="#455A64"/>
<path d="M314.595 80.0919C314.595 80.4682 299.429 80.7744 280.718 80.7744C262.008 80.7744 246.842 80.4682 246.842 80.0919C246.842 79.7156 262.008 79.4094 280.718 79.4094C299.429 79.4006 314.595 79.7069 314.595 80.0919Z" fill="#455A64"/>
<path d="M396.534 79.7416C396.534 80.1179 379.968 80.4241 359.542 80.4241C339.107 80.4241 322.55 80.1179 322.55 79.7416C322.55 79.3653 339.107 79.0591 359.542 79.0591C379.968 79.0591 396.534 79.3653 396.534 79.7416Z" fill="#455A64"/>
<path d="M396.534 91.8871C396.534 92.2634 389.157 92.5696 380.064 92.5696C370.963 92.5696 363.594 92.2634 363.594 91.8871C363.594 91.5108 370.963 91.2046 380.064 91.2046C389.157 91.2046 396.534 91.5108 396.534 91.8871Z" fill="#455A64"/>
<path d="M328.396 41.8876C328.396 42.2639 310.526 42.5701 288.49 42.5701C266.445 42.5701 248.574 42.2639 248.574 41.8876C248.574 41.5113 266.436 41.2051 288.49 41.2051C310.526 41.2051 328.396 41.5113 328.396 41.8876Z" fill="#E8505B"/>
<path d="M439.416 352.323H89.7718C82.7269 352.323 77.021 346.617 77.021 339.573V117.027C77.021 109.983 82.7269 104.277 89.7718 104.277H439.416C446.461 104.277 452.167 109.983 452.167 117.027V339.582C452.167 346.617 446.461 352.323 439.416 352.323Z" fill="#263238"/>
<path d="M452.727 355.683H77.4322C68.8296 355.683 61.8547 348.709 61.8547 340.107V333.973H468.296V340.107C468.296 348.709 461.321 355.683 452.727 355.683Z" fill="#263238"/>
<path d="M441.569 114.13H87.6189V323.604H441.569V114.13Z" fill="#455A64"/>
<path d="M228.14 333.973C228.131 333.973 228.263 333.964 228.534 333.964C228.823 333.964 229.216 333.956 229.724 333.956C230.8 333.947 232.358 333.938 234.345 333.929C238.405 333.912 244.251 333.886 251.498 333.859C266.095 333.824 286.302 333.781 308.837 333.737H309.257L309.047 334.104C308.329 335.338 307.55 336.668 306.771 338.007C305.957 339.407 305.144 340.798 304.365 342.128L304.295 342.251H304.155C272.965 342.19 246.334 342.146 233.19 342.12H233.128L233.093 342.067C231.474 339.433 230.232 337.412 229.374 336.021C228.971 335.364 228.656 334.848 228.438 334.489C228.228 334.139 228.14 333.973 228.14 333.973C228.14 333.973 228.271 334.157 228.49 334.507C228.726 334.866 229.05 335.382 229.479 336.038C230.354 337.394 231.623 339.372 233.268 341.936L233.172 341.883C246.317 341.857 272.956 341.813 304.137 341.752L303.927 341.875C304.706 340.545 305.52 339.153 306.334 337.753C307.113 336.414 307.891 335.093 308.609 333.851L308.819 334.218C286.372 334.166 266.244 334.131 251.708 334.096C244.435 334.069 238.554 334.043 234.476 334.026C232.454 334.017 230.879 334.008 229.785 333.999C229.26 333.991 228.858 333.991 228.551 333.991C228.289 333.982 228.14 333.973 228.14 333.973Z" fill="#455A64"/>
<path d="M452.168 333.973C452.168 334.096 368.181 334.201 264.608 334.201C160.992 334.201 77.031 334.096 77.031 333.973C77.031 333.851 161.001 333.746 264.608 333.746C368.181 333.746 452.168 333.851 452.168 333.973Z" fill="#455A64"/>
<path d="M356.427 72.2949C362.211 72.2949 366.902 76.9851 366.902 82.769V104.269H335.563V84.4404C335.563 77.7376 340.998 72.2949 347.71 72.2949H356.427Z" fill="#263238"/>
<path d="M356.427 72.2952C356.427 72.4177 326.864 72.4964 290.397 72.4614C253.922 72.4264 224.359 72.3039 224.359 72.1727C224.359 72.0502 253.922 71.9714 290.397 72.0064C326.864 72.0414 356.427 72.1727 356.427 72.2952Z" fill="#263238"/>
<path d="M356.147 72.2691L343.081 72.1816L324.099 72.2954H184.654C172.814 72.2954 163.213 81.8945 163.213 93.7337V320.148V324.103H343.807V84.0471C344.332 72.2954 356.147 72.2691 356.147 72.2691Z" fill="#2B4949"/>
<path d="M356.147 72.2691L247.253 72.5053L192.811 72.5491L186.002 72.5578C184.864 72.5316 183.744 72.6016 182.624 72.6628C181.513 72.8203 180.401 72.9429 179.325 73.2666C174.967 74.3429 171.055 76.9592 168.21 80.4156C166.793 82.1569 165.69 84.1345 164.885 86.2171C164.71 86.7508 164.465 87.2584 164.342 87.8009L163.922 89.4284C163.756 90.531 163.537 91.6335 163.528 92.7623C163.432 97.2687 163.511 101.828 163.485 106.36L163.651 324.103L163.213 323.666L343.807 323.779L343.492 324.094L343.58 194.59L343.685 129.837L343.746 97.4612L343.763 89.3672L343.772 85.3246C343.772 84.6508 343.755 83.977 343.86 83.3032C343.947 82.6295 343.973 81.9557 344.175 81.3082C344.77 78.6831 346.275 76.2155 348.55 74.7192C349.653 73.9404 350.887 73.3541 352.182 72.9691C353.46 72.5666 354.799 72.3128 356.147 72.2691ZM356.147 72.2691C354.799 72.3128 353.46 72.5753 352.173 72.9779C350.887 73.3716 349.653 73.9666 348.559 74.7454C346.301 76.2505 344.814 78.7093 344.227 81.3257C344.026 81.9732 344 82.647 343.921 83.312C343.816 83.977 343.842 84.6508 343.842 85.3333L343.851 89.3847L343.868 97.4787L343.93 129.855L344.035 194.607L344.122 324.112V324.427H343.807L163.213 324.541H162.776V324.103L162.925 106.352C162.951 101.81 162.881 97.2862 162.986 92.7273C162.995 91.5723 163.213 90.4435 163.388 89.3059L163.817 87.6346C163.949 87.0746 164.194 86.5496 164.377 86.0071C165.209 83.872 166.338 81.8419 167.799 80.0569C170.722 76.5217 174.73 73.8441 179.202 72.7503C180.305 72.4178 181.451 72.2953 182.589 72.1378C183.735 72.0766 184.882 72.0153 186.011 72.0328L192.819 72.0416L247.262 72.0853L356.147 72.2691Z" fill="#263238"/>
<path d="M190.422 113.746H221.935L221.988 124.298H220.483C219.984 120.518 218.575 117.972 216.238 116.633C214.926 115.898 212.965 115.496 210.357 115.426V142.998C210.357 144.923 210.69 146.201 211.364 146.831C212.038 147.461 213.438 147.776 215.564 147.776V149.106H196.906V147.776C198.954 147.776 200.311 147.452 200.985 146.813C201.658 146.174 201.991 144.897 201.991 142.989V115.417C199.436 115.487 197.475 115.889 196.11 116.624C193.607 117.99 192.189 120.545 191.866 124.29H190.36L190.422 113.746Z" fill="#E8505B"/>
<path d="M319.023 116.125C319.023 116.502 301.643 116.808 280.202 116.808C258.752 116.808 241.372 116.502 241.372 116.125C241.372 115.749 258.752 115.443 280.202 115.443C301.643 115.443 319.023 115.749 319.023 116.125Z" fill="#E8505B"/>
<path d="M272.956 128.534C272.956 128.91 266.235 129.216 257.947 129.216C249.651 129.216 242.939 128.91 242.939 128.534C242.939 128.157 249.66 127.851 257.947 127.851C266.235 127.851 272.956 128.157 272.956 128.534Z" fill="#455A64"/>
<path d="M235.115 166.37C235.115 166.746 222.347 167.053 206.612 167.053C190.868 167.053 178.1 166.746 178.1 166.37C178.1 165.994 190.859 165.688 206.612 165.688C222.355 165.688 235.115 165.994 235.115 166.37Z" fill="#455A64"/>
<path d="M299.683 166.37C299.683 166.746 286.915 167.053 271.18 167.053C255.436 167.053 242.667 166.746 242.667 166.37C242.667 165.994 255.427 165.688 271.18 165.688C286.915 165.688 299.683 165.994 299.683 166.37Z" fill="#E8505B"/>
<path d="M235.115 176.476C235.115 176.853 222.347 177.159 206.612 177.159C190.868 177.159 178.1 176.853 178.1 176.476C178.1 176.1 190.859 175.794 206.612 175.794C222.355 175.794 235.115 176.1 235.115 176.476Z" fill="#455A64"/>
<path d="M235.115 186.583C235.115 186.959 222.347 187.265 206.612 187.265C190.868 187.265 178.1 186.959 178.1 186.583C178.1 186.207 190.859 185.9 206.612 185.9C222.355 185.9 235.115 186.207 235.115 186.583Z" fill="#E8505B"/>
<path d="M272.956 149.114C272.956 149.49 266.235 149.797 257.947 149.797C249.651 149.797 242.939 149.49 242.939 149.114C242.939 148.738 249.66 148.432 257.947 148.432C266.235 148.432 272.956 148.738 272.956 149.114Z" fill="#455A64"/>
<path d="M325.027 166.37C325.027 166.746 320.546 167.053 315.024 167.053C309.493 167.053 305.012 166.746 305.012 166.37C305.012 165.994 309.493 165.688 315.024 165.688C320.546 165.688 325.027 165.994 325.027 166.37Z" fill="#455A64"/>
<path d="M330.383 128.534C330.383 128.91 318.848 129.216 304.627 129.216C290.397 129.216 278.872 128.91 278.872 128.534C278.872 128.157 290.406 127.851 304.627 127.851C318.848 127.851 330.383 128.157 330.383 128.534Z" fill="#455A64"/>
<path d="M328.055 138.386C328.055 138.762 308.994 139.069 285.497 139.069C261.99 139.069 242.93 138.762 242.93 138.386C242.93 138.01 261.982 137.704 285.497 137.704C309.003 137.704 328.055 138.01 328.055 138.386Z" fill="#455A64"/>
<path d="M325.027 176.476C325.027 176.853 306.588 177.159 283.852 177.159C261.107 177.159 242.667 176.853 242.667 176.476C242.667 176.1 261.098 175.794 283.852 175.794C306.588 175.794 325.027 176.1 325.027 176.476Z" fill="#455A64"/>
<path d="M325.027 205.729C325.027 206.105 307.725 206.411 286.389 206.411C265.045 206.411 247.743 206.105 247.743 205.729C247.743 205.353 265.045 205.046 286.389 205.046C307.725 205.046 325.027 205.353 325.027 205.729Z" fill="#E8505B"/>
<path d="M325.027 215.564C325.027 215.94 307.725 216.246 286.389 216.246C265.045 216.246 247.743 215.94 247.743 215.564C247.743 215.188 265.045 214.881 286.389 214.881C307.725 214.881 325.027 215.188 325.027 215.564Z" fill="#455A64"/>
<path d="M325.027 225.399C325.027 225.776 307.725 226.082 286.389 226.082C265.045 226.082 247.743 225.776 247.743 225.399C247.743 225.023 265.045 224.717 286.389 224.717C307.725 224.717 325.027 225.023 325.027 225.399Z" fill="#455A64"/>
<path d="M325.027 235.235C325.027 235.611 307.725 235.917 286.389 235.917C265.045 235.917 247.743 235.611 247.743 235.235C247.743 234.859 265.045 234.552 286.389 234.552C307.725 234.552 325.027 234.859 325.027 235.235Z" fill="#455A64"/>
<path d="M292.235 245.07C292.235 245.263 289.741 245.429 285.715 245.551C281.69 245.674 276.133 245.753 269.989 245.753C263.846 245.753 258.28 245.674 254.254 245.551C250.229 245.429 247.743 245.254 247.743 245.07C247.743 244.878 250.229 244.711 254.254 244.589C258.28 244.466 263.846 244.388 269.989 244.388C276.133 244.388 281.69 244.466 285.715 244.589C289.741 244.711 292.235 244.886 292.235 245.07Z" fill="#455A64"/>
<path d="M311.025 187.108C311.025 187.485 296.121 187.791 277.743 187.791C259.356 187.791 244.461 187.485 244.461 187.108C244.461 186.732 259.365 186.426 277.743 186.426C296.121 186.426 311.025 186.732 311.025 187.108Z" fill="#455A64"/>
<path d="M233.767 206.84L237.872 282.758L163.625 292.051L163.572 206.201L233.767 206.84Z" fill="#1B4041"/>
<path d="M137.642 201.571L137.125 282.109L237.871 282.757L238.388 202.219L137.642 201.571Z" fill="#1B4041"/>
<path d="M141.08 206.664L140.628 277.061L234.294 277.662L234.746 207.266L141.08 206.664Z" fill="#E8505B"/>
<g opacity="0.2">
<path opacity="0.2" d="M140.626 277.061L173.628 233.52L193.712 261.022L207.557 246.479L234.292 277.665L140.626 277.061Z" fill="black"/>
</g>
<g opacity="0.2">
<g opacity="0.2">
<g opacity="0.2">
<path opacity="0.2" d="M202.525 228.339C202.499 232.408 199.173 235.69 195.104 235.663C191.034 235.637 187.752 232.312 187.779 228.243C187.805 224.174 191.13 220.893 195.2 220.919C199.269 220.945 202.551 224.27 202.525 228.339Z" fill="black"/>
</g>
</g>
</g>
<path d="M247.568 301.764C247.568 302.621 246.868 303.321 246.01 303.321C245.153 303.321 244.453 302.621 244.453 301.764C244.453 300.906 245.153 300.206 246.01 300.206C246.877 300.206 247.568 300.897 247.568 301.764Z" fill="#263238"/>
<path d="M256.818 301.764C256.818 302.621 256.118 303.321 255.261 303.321C254.403 303.321 253.703 302.621 253.703 301.764C253.703 300.906 254.403 300.206 255.261 300.206C256.118 300.206 256.818 300.897 256.818 301.764Z" fill="#263238"/>
<path d="M266.06 301.764C266.06 302.621 265.36 303.321 264.502 303.321C263.644 303.321 262.944 302.621 262.944 301.764C262.944 300.906 263.644 300.206 264.502 300.206C265.36 300.206 266.06 300.897 266.06 301.764Z" fill="#263238"/>
<path d="M300.111 265.563C300.111 265.94 287.343 266.246 271.608 266.246C255.864 266.246 243.096 265.94 243.096 265.563C243.096 265.187 255.856 264.881 271.608 264.881C287.352 264.881 300.111 265.187 300.111 265.563Z" fill="#E8505B"/>
<path d="M325.456 275.67C325.456 276.046 307.016 276.352 284.28 276.352C261.535 276.352 243.096 276.046 243.096 275.67C243.096 275.294 261.527 274.987 284.28 274.987C307.025 274.987 325.456 275.294 325.456 275.67Z" fill="#455A64"/>
<path d="M506.662 292.493L506.351 341.005L567.033 341.395L567.344 292.883L506.662 292.493Z" fill="#1B4041"/>
<path d="M508.739 295.565L508.466 337.969L564.887 338.331L565.159 295.927L508.739 295.565Z" fill="#E8505B"/>
<path opacity="0.2" d="M508.456 337.973L528.33 311.748L540.434 328.312L548.774 319.553L564.876 338.34L508.456 337.973Z" fill="black"/>
<g opacity="0.2">
<g opacity="0.2">
<path opacity="0.2" d="M545.746 308.633C545.728 311.083 543.724 313.06 541.274 313.043C538.823 313.025 536.845 311.022 536.863 308.571C536.88 306.121 538.884 304.144 541.335 304.161C543.785 304.179 545.754 306.174 545.746 308.633Z" fill="black"/>
</g>
</g>
<path d="M497.762 287.428L497.45 335.94L558.132 336.33L558.444 287.818L497.762 287.428Z" fill="#1B4041"/>
<path d="M499.838 290.5L499.566 332.904L555.986 333.266L556.259 290.862L499.838 290.5Z" fill="#E8505B"/>
<path opacity="0.2" d="M499.556 332.915L519.43 306.681L531.533 323.246L539.873 314.486L555.976 333.273L499.556 332.915Z" fill="black"/>
<g opacity="0.2">
<g opacity="0.2">
<path opacity="0.2" d="M536.846 303.566C536.828 306.016 534.824 307.993 532.374 307.976C529.923 307.958 527.946 305.955 527.963 303.505C527.981 301.054 529.985 299.077 532.435 299.094C534.885 299.112 536.863 301.107 536.846 303.566Z" fill="black"/>
</g>
</g>
<path d="M489.84 283.246L489.528 331.757L550.21 332.147L550.522 283.635L489.84 283.246Z" fill="#1B4041"/>
<path d="M491.908 286.308L491.635 328.712L548.055 329.075L548.328 286.671L491.908 286.308Z" fill="#E8505B"/>
<path opacity="0.2" d="M491.636 328.723L511.51 302.499L523.613 319.063L531.945 310.304L548.056 329.091L491.636 328.723Z" fill="black"/>
<g opacity="0.2">
<g opacity="0.2">
<path opacity="0.2" d="M528.917 299.375C528.899 301.825 526.895 303.803 524.445 303.785C521.995 303.768 520.017 301.764 520.034 299.314C520.052 296.864 522.056 294.886 524.506 294.903C526.957 294.921 528.934 296.925 528.917 299.375Z" fill="black"/>
</g>
</g>
<path d="M480.936 288.457L480.625 336.969L541.307 337.358L541.618 288.847L480.936 288.457Z" fill="#1B4041"/>
<path d="M483.013 291.52L482.74 333.924L539.16 334.286L539.433 291.882L483.013 291.52Z" fill="#455A64"/>
<path opacity="0.2" d="M482.735 333.938L502.61 307.705L514.713 324.269L523.044 315.51L539.156 334.297L482.735 333.938Z" fill="black"/>
<g opacity="0.2">
<g opacity="0.2">
<path opacity="0.2" d="M520.017 304.59C519.999 307.04 517.995 309.017 515.545 309C513.094 308.982 511.116 306.979 511.134 304.528C511.151 302.078 513.155 300.101 515.606 300.118C518.056 300.136 520.034 302.131 520.017 304.59Z" fill="black"/>
</g>
</g>
<path d="M576.647 306.506H541.615V353.347H576.647V306.506Z" fill="#263238"/>
<path d="M474.518 306.506V353.347H544.59V306.506H474.518ZM517.006 317.593H502.111C500.335 317.593 498.891 316.149 498.891 314.373C498.891 312.597 500.335 311.153 502.111 311.153H517.006C518.783 311.153 520.227 312.597 520.227 314.373C520.227 316.149 518.783 317.593 517.006 317.593Z" fill="#E8505B"/>
<path d="M429.081 348.446L363.918 344.456C363.507 343.52 363.235 342.977 363.235 342.977L345.575 343.327L339.825 342.977C339.825 342.977 339.738 343.152 339.598 343.45L280.316 344.631C268.493 344.631 256.075 351.841 256.075 361.055C255.926 369.823 260.17 379.343 270.759 379.125L351.535 378.853L432.301 379.125C442.891 379.343 445.691 372.956 445.708 365.378C446.951 351.272 438.112 348.56 429.081 348.446Z" fill="#455A64"/>
<path d="M278.181 379.133C278.181 379.133 278.312 379.116 278.566 379.107C278.846 379.098 279.222 379.098 279.703 379.09C280.727 379.081 282.206 379.063 284.105 379.046C287.947 379.028 293.496 379.002 300.357 378.976C314.14 378.958 333.236 378.932 354.589 378.906L354.362 379.151C354.248 377.383 354.134 375.485 354.012 373.577C353.766 369.674 353.53 365.824 353.303 362.175L353.504 362.385C333.665 360.18 316.135 358.229 303.542 356.829C297.276 356.111 292.235 355.534 288.735 355.131C287.011 354.921 285.681 354.764 284.744 354.65C284.307 354.589 283.965 354.545 283.712 354.519C283.475 354.484 283.362 354.466 283.362 354.458C283.362 354.449 283.484 354.458 283.712 354.475C283.965 354.501 284.307 354.528 284.744 354.571C285.681 354.668 287.02 354.799 288.744 354.974C292.244 355.341 297.285 355.875 303.56 356.531C316.153 357.896 333.691 359.795 353.539 361.939L353.731 361.957L353.74 362.149C353.968 365.807 354.213 369.648 354.458 373.551C354.58 375.458 354.694 377.357 354.808 379.125L354.825 379.37H354.58C333.218 379.343 314.123 379.317 300.348 379.3C293.478 379.273 287.938 379.247 284.097 379.23C282.198 379.212 280.719 379.195 279.695 379.186C279.205 379.177 278.828 379.168 278.557 379.168C278.312 379.151 278.181 379.133 278.181 379.133Z" fill="#263238"/>
<path d="M294.835 355.962C294.782 356.024 293.977 355.367 292.55 354.501C291.133 353.635 289.059 352.602 286.617 351.893C284.175 351.193 281.874 350.966 280.202 350.948C278.539 350.931 277.498 351.053 277.489 350.975C277.489 350.94 277.743 350.887 278.207 350.808C278.671 350.721 279.353 350.66 280.202 350.625C281.891 350.555 284.254 350.738 286.739 351.456C289.225 352.173 291.325 353.276 292.717 354.23C293.417 354.702 293.959 355.122 294.309 355.437C294.668 355.752 294.852 355.936 294.835 355.962Z" fill="#263238"/>
<path d="M424.022 352.497C424.049 352.62 411.202 355.726 395.318 359.436C379.434 363.147 366.535 366.052 366.508 365.929C366.482 365.807 379.329 362.7 395.213 358.99C411.097 355.28 423.996 352.375 424.022 352.497Z" fill="#263238"/>
<path d="M413.153 351.246C413.197 351.386 410.668 351.894 408.121 353.661C405.548 355.394 404.148 357.555 404.025 357.459C403.982 357.433 404.262 356.855 404.901 356.032C405.531 355.21 406.546 354.177 407.859 353.285C409.171 352.392 410.51 351.832 411.508 351.544C412.506 351.246 413.144 351.185 413.153 351.246Z" fill="#263238"/>
<path d="M388.903 277.271L409.539 313.191C412.086 317.627 412.243 323.044 409.959 327.62C407.307 332.932 401.812 336.222 395.878 336.056L364.189 335.163L363.358 323.639L391.266 318.292L372.451 285.724L388.903 277.271Z" fill="#FFBE9D"/>
<path d="M311.978 338.751L341.12 346.468L341.751 337.727L314.893 322.134L334.504 285.733L318.043 277.28L297.407 313.2C292.41 322.475 297.075 334.017 307.121 337.211L311.978 338.751Z" fill="#FFBE9D"/>
<path d="M380.143 300.337L400.061 289.845C400.061 289.845 396.744 282.827 391.529 275.617C385.359 267.086 375.793 261.118 364.924 258.852L342.013 259.123C338.749 259.473 336.071 260.094 333.839 261.004L333.857 260.917C321.421 263.655 307.629 290.773 307.629 290.773L325.753 300.311L326.156 303.163C326.681 306.917 328.326 310.443 330.881 313.322L325.604 348.035L384.431 349.251L376.94 324.391L380.143 300.337Z" fill="#E8505B"/>
<path d="M331.406 313.515C331.389 313.532 331.065 313.313 330.531 312.85C329.997 312.386 329.271 311.651 328.527 310.61C327.048 308.553 325.727 305.071 326.077 301.142C326.357 299.208 326.908 297.449 327.425 295.865C327.95 294.281 328.484 292.881 328.956 291.709C329.42 290.536 329.822 289.6 330.12 288.961C330.409 288.322 330.593 287.972 330.619 287.99C330.645 287.999 330.523 288.375 330.278 289.031C330.006 289.775 329.665 290.711 329.254 291.823C328.825 293.004 328.326 294.413 327.827 295.996C327.337 297.571 326.803 299.33 326.532 301.203C326.357 303.058 326.602 304.904 327.031 306.471C327.451 308.054 328.133 309.384 328.807 310.434C330.19 312.508 331.485 313.436 331.406 313.515Z" fill="#263238"/>
<path d="M322.594 356.417L319.269 317.706H390.934L386.182 356.899L322.594 356.417Z" fill="#263238"/>
<path d="M359.665 338.348C359.665 340.868 357.626 342.907 355.105 342.907C352.585 342.907 350.546 340.868 350.546 338.348C350.546 335.828 352.585 333.789 355.105 333.789C357.617 333.789 359.665 335.828 359.665 338.348Z" fill="#2B4949"/>
<path d="M353.845 363.987L366.01 365.684V378.906L354.825 378.617L353.845 363.987Z" fill="#FFBE9D"/>
<path d="M366.01 365.685H371.479C372.547 365.685 373.588 365.965 374.507 366.498L377.395 368.161C378.34 368.703 381.395 370.235 382.436 370.567C385.762 371.635 391.354 373.07 392.535 373.98C395.905 376.579 394.881 379.641 393.025 379.965C391.398 380.245 366.001 378.906 366.001 378.906V365.685H366.01Z" fill="#E8505B"/>
<path d="M374.997 377.812C374.884 377.839 374.463 376.316 374.411 374.373C374.35 372.431 374.673 370.891 374.796 370.908C374.927 370.926 374.805 372.466 374.866 374.365C374.919 376.255 375.129 377.786 374.997 377.812Z" fill="#263238"/>
<path d="M377.596 377.743C377.474 377.743 377.378 376.325 377.395 374.584C377.413 372.842 377.526 371.425 377.649 371.434C377.771 371.434 377.868 372.851 377.85 374.593C377.833 376.325 377.719 377.743 377.596 377.743Z" fill="#263238"/>
<path d="M380.66 378.259C380.537 378.268 380.318 376.824 380.178 375.021C380.038 373.227 380.03 371.757 380.152 371.749C380.275 371.74 380.493 373.184 380.633 374.986C380.774 376.789 380.782 378.25 380.66 378.259Z" fill="#263238"/>
<path d="M372.634 374.295C372.626 374.321 372.214 374.234 371.514 373.945C370.814 373.648 369.825 373.14 368.784 372.256C368.521 372.037 368.259 371.792 368.005 371.521C367.751 371.25 367.471 370.944 367.305 370.532C367.139 370.121 367.139 369.587 367.454 369.176C367.611 368.966 367.874 368.835 368.136 368.8C368.399 368.765 368.644 368.809 368.871 368.887C370.648 369.491 372.171 371.232 372.451 373.376C372.722 375.546 371.558 377.559 370.018 378.574C369.633 378.828 369.23 379.055 368.766 379.134C368.539 379.178 368.294 379.178 368.049 379.099C367.804 379.02 367.602 378.836 367.497 378.609C367.287 378.128 367.471 377.681 367.655 377.349C367.847 376.999 368.119 376.745 368.355 376.5C369.344 375.546 370.342 375.021 371.042 374.741C371.751 374.461 372.171 374.4 372.171 374.418C372.179 374.453 371.786 374.575 371.112 374.899C370.447 375.223 369.501 375.774 368.583 376.728C368.355 376.973 368.119 377.218 367.961 377.515C367.804 377.804 367.699 378.171 367.83 378.434C367.961 378.714 368.311 378.81 368.688 378.723C369.055 378.653 369.423 378.443 369.781 378.206C371.182 377.261 372.241 375.38 371.996 373.411C371.751 371.451 370.333 369.824 368.749 369.264C368.364 369.132 367.97 369.15 367.769 369.404C367.559 369.657 367.532 370.06 367.655 370.375C367.926 371.031 368.53 371.539 368.994 371.985C370.989 373.779 372.678 374.199 372.634 374.295Z" fill="#263238"/>
<path d="M393.034 379.965C392.999 379.921 393.393 379.746 393.699 379.134C394.005 378.53 393.953 377.445 393.34 376.377C392.745 375.301 391.511 374.374 389.962 373.831C388.413 373.271 386.567 373.008 384.711 372.422C380.974 371.311 377.815 369.675 375.671 368.301C374.595 367.618 373.772 367.006 373.212 366.568C372.661 366.122 372.363 365.859 372.381 365.833C372.398 365.807 372.731 366.026 373.317 366.419C373.903 366.813 374.761 367.382 375.846 368.021C378.016 369.307 381.158 370.873 384.843 371.976C386.672 372.545 388.501 372.825 390.111 373.42C391.712 374.006 393.016 375.021 393.629 376.202C394.242 377.357 394.259 378.547 393.865 379.195C393.681 379.519 393.454 379.711 393.305 379.816C393.13 379.939 393.043 379.974 393.034 379.965Z" fill="#263238"/>
<path d="M384.747 268.363C384.755 268.363 384.755 268.424 384.747 268.547C384.738 268.695 384.72 268.87 384.703 269.089C384.659 269.597 384.589 270.306 384.51 271.207C384.318 273.088 384.055 275.774 383.714 279.152L383.696 279.353L383.513 279.257C380.581 277.717 377.002 275.827 372.95 273.701L373.203 273.631C371.462 276.571 369.528 279.835 367.463 283.308L367.34 283.518L367.147 283.37C364.128 281.051 360.864 278.557 357.486 275.958H357.766C356.427 277.008 355.001 278.128 353.557 279.257C351.605 280.78 349.688 282.285 347.816 283.746L347.606 283.912L347.474 283.676C345.567 280.15 343.737 276.763 342.005 273.569L342.276 273.666C338.067 275.538 334.172 277.28 330.68 278.828L330.47 278.925L330.435 278.697C329.761 274.724 329.175 271.268 328.685 268.389L328.86 268.485C326.033 269.562 323.793 270.419 322.227 271.014C321.474 271.294 320.888 271.513 320.459 271.671C320.275 271.732 320.126 271.784 320.004 271.828C319.899 271.863 319.846 271.881 319.846 271.872C319.846 271.863 319.89 271.837 319.995 271.793C320.117 271.741 320.258 271.679 320.441 271.601C320.861 271.426 321.439 271.189 322.183 270.883C323.741 270.262 325.972 269.36 328.773 268.24L328.921 268.179L328.948 268.337C329.464 271.216 330.085 274.663 330.794 278.627L330.54 278.496C334.015 276.921 337.9 275.171 342.11 273.272L342.285 273.193L342.381 273.368C344.114 276.562 345.96 279.948 347.868 283.466L347.527 283.396C349.4 281.926 351.316 280.43 353.259 278.898C354.703 277.77 356.129 276.649 357.468 275.599L357.608 275.494L357.748 275.599C361.127 278.198 364.382 280.71 367.392 283.028L367.077 283.09C369.152 279.625 371.103 276.369 372.862 273.438L372.958 273.281L373.116 273.368C377.15 275.529 380.712 277.446 383.635 279.012L383.434 279.117C383.828 275.748 384.143 273.062 384.361 271.189C384.475 270.297 384.563 269.588 384.624 269.08C384.659 268.862 384.685 268.687 384.703 268.538C384.729 268.424 384.747 268.363 384.747 268.363Z" fill="#1B4041"/>
<path d="M393.253 278.102C393.262 278.102 393.244 278.19 393.2 278.356C393.157 278.548 393.095 278.793 393.017 279.1C392.842 279.773 392.588 280.736 392.264 281.961C391.59 284.481 390.61 288.095 389.394 292.61L389.35 292.785L389.183 292.706C385.674 291.018 381.491 289.014 376.835 286.782L377.08 286.721C373.93 291.219 370.42 296.215 366.684 301.553L366.535 301.772L366.351 301.579C363.174 298.359 359.814 294.955 356.357 291.455C355.657 290.738 354.957 290.029 354.257 289.329L354.537 289.364C349.855 292.304 345.33 295.139 341.068 297.808L340.876 297.93L340.762 297.729C338.163 293.135 335.721 288.83 333.498 284.91L333.726 284.997C328.405 286.826 323.723 288.445 319.881 289.766L319.75 289.81L319.706 289.679C318.393 285.872 317.352 282.862 316.634 280.771C316.293 279.756 316.031 278.968 315.838 278.4C315.759 278.146 315.689 277.945 315.646 277.787C315.602 277.647 315.584 277.577 315.593 277.577C315.602 277.577 315.628 277.638 315.681 277.778C315.742 277.936 315.821 278.128 315.908 278.382C316.109 278.942 316.398 279.721 316.774 280.727C317.527 282.81 318.603 285.811 319.969 289.591L319.794 289.504C323.627 288.156 328.291 286.511 333.603 284.639L333.752 284.586L333.831 284.726C336.071 288.646 338.522 292.934 341.138 297.519L340.832 297.44C345.094 294.763 349.61 291.919 354.292 288.979L354.449 288.883L354.58 289.014C355.272 289.714 355.972 290.431 356.681 291.14C360.138 294.649 363.489 298.053 366.666 301.273L366.325 301.299C370.079 295.979 373.606 290.991 376.774 286.502L376.87 286.371L377.019 286.441C381.657 288.699 385.823 290.738 389.323 292.444L389.113 292.54C390.382 288.043 391.406 284.437 392.115 281.926C392.465 280.71 392.745 279.756 392.938 279.082C393.034 278.776 393.104 278.54 393.165 278.347C393.218 278.181 393.244 278.102 393.253 278.102Z" fill="#1B4041"/>
<path d="M384.423 217.06C380.922 217.454 377.282 216.299 374.639 213.971C377.824 215.581 382.077 213.376 383.198 209.981C384.318 206.595 383.399 200.286 380.616 198.046C377.964 195.919 374.297 195.106 371.016 195.981C367.734 196.856 364.26 201.852 363.183 205.072L363.244 205.169C362.737 204.967 362.229 204.783 361.722 204.608C358.09 203.392 354.204 202.797 350.397 203.235C346.59 203.672 342.862 205.186 340.044 207.794L362.299 243.556C366.342 243.197 369.922 240.476 372.04 237.011C374.157 233.555 374.971 229.433 375.173 225.382C375.225 224.367 375.216 223.334 375.181 222.31C377.57 222.695 379.951 223.08 382.34 223.457C381.062 221.742 379.434 220.28 377.579 219.204C379.986 220.14 382.97 219.195 384.423 217.06Z" fill="#263238"/>
<path d="M356.296 272.563C362.334 272.432 367.174 267.541 367.244 261.503L367.76 217.008C367.795 215.17 366.421 213.612 364.592 213.42L345.794 208.669C339.773 208.03 335.773 215.441 335.388 221.479C334.968 228.19 334.715 236.398 335.511 241.403C337.112 251.475 344.831 252.753 344.831 252.753C344.831 252.726 344.84 256.646 344.857 261.424C344.892 267.681 350.047 272.695 356.296 272.563Z" fill="#FFBE9D"/>
<path d="M339.3 227.998C339.274 228.681 339.834 229.267 340.543 229.302C341.252 229.337 341.847 228.821 341.873 228.138C341.899 227.455 341.339 226.869 340.63 226.834C339.922 226.799 339.326 227.315 339.3 227.998Z" fill="#263238"/>
<path d="M337.182 225.758C337.34 225.924 338.32 225.207 339.712 225.207C341.103 225.189 342.118 225.907 342.267 225.732C342.337 225.653 342.179 225.355 341.733 225.032C341.296 224.708 340.552 224.393 339.685 224.402C338.819 224.41 338.093 224.725 337.673 225.049C337.244 225.373 337.104 225.679 337.182 225.758Z" fill="#263238"/>
<path d="M352.523 227.998C352.497 228.681 353.057 229.267 353.766 229.302C354.475 229.337 355.07 228.821 355.096 228.138C355.123 227.455 354.562 226.869 353.854 226.834C353.145 226.799 352.55 227.315 352.523 227.998Z" fill="#263238"/>
<path d="M350.835 226.012C350.992 226.178 351.972 225.46 353.364 225.46C354.755 225.443 355.77 226.161 355.919 225.986C355.989 225.907 355.832 225.609 355.385 225.285C354.948 224.962 354.204 224.647 353.337 224.655C352.471 224.664 351.745 224.979 351.325 225.303C350.905 225.636 350.765 225.942 350.835 226.012Z" fill="#263238"/>
<path d="M345.794 236.32C345.802 236.241 344.936 236.092 343.536 235.908C343.177 235.873 342.844 235.803 342.783 235.558C342.696 235.305 342.844 234.92 343.019 234.508C343.352 233.651 343.702 232.75 344.07 231.805C345.531 227.954 346.581 224.796 346.424 224.734C346.266 224.673 344.962 227.744 343.501 231.595C343.151 232.54 342.818 233.45 342.494 234.316C342.363 234.718 342.127 235.173 342.311 235.707C342.407 235.97 342.669 236.162 342.897 236.223C343.124 236.293 343.326 236.293 343.501 236.311C344.919 236.39 345.794 236.399 345.794 236.32Z" fill="#263238"/>
<path d="M344.84 252.761C344.84 252.761 351.613 253.199 358.326 249.165C358.326 249.165 355.053 256.078 344.98 255.142L344.84 252.761Z" fill="#EB996E"/>
<path d="M346.38 239.671C346.879 239.006 347.754 238.647 348.629 238.743C349.233 238.805 349.846 239.102 350.204 239.592C350.572 240.082 350.651 240.782 350.318 241.246C349.942 241.771 349.163 241.894 348.498 241.71C347.833 241.517 347.264 241.089 346.721 240.651C346.572 240.529 346.415 240.406 346.327 240.24C346.231 240.074 346.214 239.864 346.327 239.724" fill="#EB996E"/>
<path d="M349.89 237.282C349.662 237.273 349.662 238.778 348.367 239.846C347.081 240.922 345.47 240.747 345.462 240.957C345.444 241.053 345.82 241.246 346.494 241.272C347.159 241.298 348.131 241.08 348.918 240.423C349.706 239.767 350.047 238.892 350.1 238.271C350.161 237.641 349.986 237.273 349.89 237.282Z" fill="#263238"/>
<path d="M350.213 223.579C350.353 223.955 351.736 223.78 353.364 223.973C355 224.139 356.313 224.612 356.532 224.279C356.628 224.113 356.401 223.763 355.867 223.395C355.342 223.028 354.501 222.686 353.521 222.573C352.541 222.468 351.649 222.625 351.053 222.861C350.458 223.106 350.152 223.404 350.213 223.579Z" fill="#263238"/>
<path d="M337.375 223.194C337.62 223.509 338.574 223.185 339.729 223.168C340.876 223.115 341.856 223.378 342.083 223.054C342.179 222.896 342.031 222.581 341.602 222.275C341.182 221.978 340.482 221.733 339.685 221.759C338.898 221.785 338.206 222.074 337.813 222.389C337.401 222.713 337.261 223.036 337.375 223.194Z" fill="#263238"/>
<path d="M366.649 229.52C367.41 228.995 368.478 229.188 369.283 229.652C371.129 230.719 372.057 233.169 371.366 235.191C370.683 237.212 368.46 238.595 366.342 238.315" fill="#FFBE9D"/>
<path d="M367.357 235.322C367.383 235.252 367.751 235.41 368.232 235.182C368.714 234.99 369.142 234.281 369.099 233.458C369.072 232.627 368.53 232.023 368.022 231.839C367.515 231.629 367.147 231.734 367.13 231.656C367.095 231.603 367.471 231.341 368.136 231.489C368.46 231.568 368.827 231.752 369.116 232.102C369.405 232.443 369.589 232.924 369.615 233.423C369.685 234.438 369.046 235.357 368.355 235.515C367.672 235.707 367.296 235.366 367.357 235.322Z" fill="#EB996E"/>
<path d="M370.105 237.361C370.114 237.343 370.28 237.457 370.569 237.684C370.902 237.956 371.313 238.297 371.803 238.691C372.914 239.636 374.393 240.896 376.152 242.383L376.301 242.506L376.179 242.655C374.56 244.597 372.757 247.03 370.735 249.567C370.28 250.145 369.816 250.705 369.37 251.23L368.994 251.667L368.968 251.09C368.784 246.995 368.644 243.363 368.565 240.756C368.539 239.513 368.512 238.49 368.495 237.684C368.486 236.967 368.495 236.564 368.521 236.564C368.547 236.564 368.6 236.958 368.652 237.676C368.705 238.472 368.775 239.505 368.863 240.738C369.02 243.337 369.221 246.969 369.414 251.064L369.02 250.924C369.449 250.399 369.913 249.839 370.368 249.27C372.389 246.741 374.21 244.317 375.872 242.392L375.899 242.663C374.192 241.123 372.748 239.828 371.654 238.848C371.19 238.42 370.805 238.061 370.49 237.763C370.228 237.518 370.096 237.378 370.105 237.361Z" fill="#455A64"/>
<path d="M349.741 204.267C347.273 204.372 344.796 204.477 342.398 205.072C340.001 205.667 337.681 206.796 336.054 208.642C334.426 210.497 333.595 213.149 334.303 215.511C335.004 217.874 337.436 219.729 339.878 219.396C341.733 219.151 343.51 217.778 345.304 218.32C346.993 218.836 347.929 220.901 349.671 221.225C351.386 221.54 352.918 220 354.659 219.851C356.576 219.685 358.247 221.26 359.096 222.984C359.954 224.708 360.278 226.659 361.135 228.392C361.686 229.494 362.535 230.553 363.726 230.859C364.819 231.139 366.01 230.719 366.867 229.976C367.716 229.232 368.276 228.208 368.705 227.158C370.517 222.704 370.123 217.419 367.672 213.289C365.222 209.159 360.768 206.271 355.998 205.728" fill="#263238"/>
<path d="M374.28 214.96C374.201 214.986 373.965 214.146 373.352 212.913C372.739 211.679 371.672 210.078 370.114 208.669C368.548 207.26 366.85 206.359 365.563 205.877C364.277 205.387 363.419 205.239 363.437 205.16C363.446 205.125 363.656 205.142 364.049 205.195C364.443 205.239 365.003 205.361 365.677 205.58C367.025 206 368.81 206.884 370.429 208.336C372.039 209.797 373.107 211.486 373.658 212.781C373.938 213.429 374.122 213.971 374.201 214.356C374.271 214.741 374.306 214.951 374.28 214.96Z" fill="#E8505B"/>
<path d="M381.981 200.216C381.937 200.294 381.097 199.743 379.557 199.463C378.034 199.174 375.785 199.288 373.649 200.356C371.514 201.423 370.009 203.068 369.081 204.328C368.145 205.597 367.707 206.481 367.646 206.446C367.62 206.437 367.699 206.201 367.882 205.79C368.066 205.387 368.372 204.81 368.819 204.136C369.694 202.806 371.208 201.064 373.439 199.944C375.68 198.824 378.051 198.763 379.609 199.148C380.397 199.332 381.009 199.594 381.394 199.813C381.797 200.032 381.998 200.189 381.981 200.216Z" fill="#455A64"/>
<path d="M372.302 212.046C372.355 212.046 372.433 212.834 372.32 214.12C372.206 215.397 371.838 217.156 371.059 218.959C370.28 220.761 369.248 222.24 368.399 223.203C367.55 224.165 366.92 224.655 366.885 224.612C366.762 224.515 369.134 222.336 370.639 218.784C372.188 215.24 372.145 212.02 372.302 212.046Z" fill="#455A64"/>
<path d="M372.591 212.256C372.617 212.247 372.705 212.449 372.836 212.834C372.976 213.21 373.116 213.779 373.23 214.496C373.466 215.914 373.501 217.953 372.958 220.105C372.407 222.258 371.418 224.034 370.534 225.172C370.097 225.74 369.703 226.178 369.397 226.449C369.099 226.72 368.924 226.86 368.906 226.843C368.845 226.782 369.475 226.16 370.272 224.988C371.068 223.824 371.987 222.083 372.521 220C373.046 217.909 373.072 215.94 372.915 214.54C372.766 213.131 372.512 212.282 372.591 212.256Z" fill="#455A64"/>
<path d="M399.072 214.549C396.525 215.354 395.423 218.976 397.094 221.059C398.757 223.142 402.538 222.861 403.877 220.551C405.216 218.241 403.588 214.82 400.954 214.409" fill="#1B4041"/>
<path d="M410.904 197.363C407.99 198.282 406.721 202.438 408.637 204.827C410.545 207.216 414.886 206.892 416.417 204.25C417.957 201.607 416.085 197.678 413.065 197.197" fill="#1B4041"/>
<path d="M436.17 121.577C428.25 120.912 420.242 122.68 414.816 128.472C409.39 134.274 406.8 142.613 407.99 150.471C399.571 153.971 394.977 164.672 398.25 173.187C401.523 181.701 412.103 186.575 420.697 183.529C424.557 193.321 433.842 200.768 444.23 202.421C454.626 204.075 465.758 199.875 472.47 191.772C480.732 193.636 489.999 193.514 496.939 188.666C503.879 183.818 507.021 173.134 501.726 166.528C511.239 164.209 516.079 152.335 513.252 142.954C510.434 133.583 501.989 126.854 492.966 123.038C487.006 120.518 479.568 119.206 474.483 123.205C470.414 116.939 463.211 112.836 455.747 112.512C448.29 112.206 440.764 115.688 436.17 121.577Z" fill="#1B4041"/>
<path d="M436.169 121.577C436.169 121.577 436.327 121.367 436.65 120.964C436.966 120.553 437.482 119.984 438.191 119.267C439.617 117.867 441.945 115.898 445.507 114.358C447.275 113.596 449.349 112.94 451.685 112.608C454.022 112.293 456.63 112.275 459.343 112.844C462.056 113.378 464.865 114.471 467.534 116.16C470.186 117.867 472.697 120.177 474.631 123.125L474.404 123.09C476.452 121.498 479.121 120.588 481.895 120.518C484.669 120.413 487.531 120.938 490.331 121.865C493.132 122.802 495.897 124.079 498.593 125.654C501.288 127.229 503.914 129.119 506.259 131.438C508.622 133.722 510.678 136.47 512.175 139.576C512.893 141.142 513.488 142.796 513.864 144.52C514.179 146.253 514.363 148.046 514.214 149.84C513.987 153.419 512.884 157.05 510.792 160.157C509.733 161.688 508.499 163.149 506.95 164.261C505.419 165.39 503.669 166.238 501.787 166.728L501.91 166.378C503.047 167.831 503.852 169.546 504.264 171.375C504.675 173.204 504.693 175.12 504.404 176.992C503.809 180.746 501.936 184.325 499.17 187.082C496.37 189.838 492.633 191.544 488.756 192.402C484.853 193.259 480.775 193.268 476.767 192.752C475.305 192.577 473.861 192.288 472.444 191.982L472.671 191.903C465.408 200.618 453.514 204.53 443.1 202.412C437.884 201.362 433.106 198.903 429.221 195.604C425.335 192.297 422.324 188.132 420.522 183.599L420.784 183.721C415.805 185.436 410.361 184.561 406.091 182.181C401.776 179.828 398.547 175.785 397.497 171.287C396.429 166.79 397.295 162.169 399.273 158.451C401.26 154.714 404.393 151.809 407.946 150.313L407.85 150.479C407.316 146.839 407.605 143.286 408.392 140.084C409.224 136.89 410.545 134.028 412.164 131.622C412.96 130.406 413.871 129.338 414.781 128.341C415.726 127.378 416.689 126.503 417.712 125.794C419.725 124.324 421.826 123.405 423.751 122.758C427.637 121.507 430.831 121.393 432.949 121.384C435.066 121.428 436.169 121.577 436.169 121.577C436.169 121.577 435.889 121.577 435.346 121.542C434.804 121.507 433.99 121.489 432.931 121.489C430.822 121.533 427.637 121.664 423.786 122.942C421.878 123.589 419.804 124.517 417.817 125.978C416.811 126.678 415.866 127.562 414.93 128.516C414.037 129.504 413.135 130.572 412.357 131.78C410.755 134.168 409.46 137.003 408.646 140.171C407.876 143.339 407.596 146.848 408.138 150.444L408.156 150.566L408.042 150.619C404.568 152.098 401.496 154.95 399.553 158.626C397.619 162.283 396.779 166.825 397.829 171.217C398.862 175.601 402.021 179.548 406.257 181.849C410.449 184.168 415.77 185.016 420.618 183.336L420.81 183.266L420.88 183.45C422.657 187.913 425.632 192.025 429.466 195.281C433.299 198.536 438.016 200.96 443.144 201.983C453.392 204.066 465.127 200.198 472.277 191.623L472.365 191.518L472.505 191.544C473.914 191.842 475.34 192.13 476.793 192.305C480.766 192.813 484.792 192.795 488.634 191.955C492.441 191.115 496.116 189.435 498.829 186.758C501.525 184.08 503.354 180.571 503.931 176.922C504.535 173.291 503.774 169.45 501.542 166.658L501.332 166.396L501.665 166.308C503.485 165.836 505.183 165.013 506.67 163.919C508.176 162.834 509.383 161.417 510.425 159.921C512.464 156.893 513.558 153.332 513.785 149.814C513.925 148.055 513.75 146.296 513.444 144.599C513.085 142.91 512.499 141.282 511.799 139.742C510.328 136.68 508.307 133.967 505.97 131.71C503.66 129.417 501.061 127.544 498.392 125.969C495.722 124.403 492.974 123.125 490.2 122.189C487.435 121.27 484.608 120.745 481.886 120.842C479.165 120.903 476.566 121.787 474.57 123.327L474.439 123.432L474.351 123.292C472.452 120.378 469.976 118.085 467.368 116.396C464.734 114.725 461.959 113.623 459.273 113.089C456.586 112.511 454.004 112.529 451.694 112.818C449.375 113.133 447.318 113.771 445.551 114.515C442.006 116.02 439.678 117.954 438.234 119.328C437.517 120.028 436.992 120.588 436.668 120.99C436.353 121.384 436.169 121.577 436.169 121.577Z" fill="#263238"/>
<path d="M490.288 148.851C490.288 149.228 474.772 149.534 455.633 149.534C436.484 149.534 420.968 149.228 420.968 148.851C420.968 148.475 436.484 148.169 455.633 148.169C474.763 148.169 490.288 148.475 490.288 148.851Z" fill="#455A64"/>
<path d="M490.288 156.377C490.288 156.753 474.772 157.059 455.633 157.059C436.484 157.059 420.968 156.753 420.968 156.377C420.968 156.001 436.484 155.694 455.633 155.694C474.763 155.694 490.288 156.001 490.288 156.377Z" fill="#455A64"/>
<path d="M490.288 163.893C490.288 164.269 474.772 164.576 455.633 164.576C436.484 164.576 420.968 164.269 420.968 163.893C420.968 163.517 436.484 163.21 455.633 163.21C474.763 163.21 490.288 163.517 490.288 163.893Z" fill="#455A64"/>
<path d="M490.288 171.41C490.288 171.786 474.772 172.092 455.633 172.092C436.484 172.092 420.968 171.786 420.968 171.41C420.968 171.033 436.484 170.727 455.633 170.727C474.763 170.727 490.288 171.033 490.288 171.41Z" fill="#455A64"/>
</g>
<defs>
<clipPath id="clip0">
<rect width="613" height="380" fill="white"/>
</clipPath>
</defs>
</svg>
