<svg width="320" height="470" viewBox="0 0 320 470" fill="none" xmlns="http://www.w3.org/2000/svg">
<g clip-path="url(#clip0)">
<path d="M234.496 372.019L238.294 397.993C238.294 397.993 238.456 400.573 242.616 402.647C242.616 402.647 264.276 415.227 266.775 415.595C269.282 415.964 277.625 418.997 281.192 419.159C284.76 419.328 302.953 422.162 306.943 420.779C306.943 420.779 316.117 418.721 318.331 423.759C318.331 423.759 322.614 428.021 317.447 432.268C317.608 432.268 310.196 438.443 309.735 445.079C309.735 445.079 310.104 447.375 312.664 448.274C312.664 448.274 316.117 449.295 314.786 457.075C314.786 457.075 314.994 462.282 303.429 464.455C303.614 464.455 295.133 466.145 282.476 461.598C282.476 461.598 258.986 446.423 254.519 443.619C250.059 440.816 248.583 441.085 247.414 440.586C246.253 440.087 244.676 441.845 245.891 443.051C246.022 442.974 263.284 459.709 264.192 461.591C264.192 461.591 264.953 464.724 264.061 466.06C264.061 466.06 261.662 469.731 259.048 469.939C259.048 469.939 253.227 470.246 251.358 469.447C251.358 469.447 244.131 469.34 232.597 459.102C232.597 459.102 222.27 451.545 216.004 435.817C216.004 435.817 210.298 427.008 212.228 409.797C212.228 409.797 212.251 406.395 215.035 403.092C215.035 403.092 217.541 401.748 218.503 400.696C218.503 400.696 219.833 383.093 218.226 377.372C218.226 377.372 218.664 373.01 216.503 372.979C216.503 372.979 213.182 375.068 210.267 374.008C210.267 374.008 208.099 374.3 206.6 371.566C206.6 371.566 204.793 368.916 206.915 366.489C206.992 366.558 209.575 363.932 212.367 363.079C212.367 363.079 209.122 359.562 205.262 359.47C205.4 359.547 200.202 358.287 196.873 358.517C196.873 358.517 194.182 359.324 193.213 360.837" fill="#2C211C"/>
<path d="M194.49 359.746C194.49 359.746 197.519 361.812 199.065 364.169C199.065 364.169 200.564 366.804 196.958 369.607C197.104 369.714 195.028 371.803 191.122 369.607C191.122 369.737 193.921 393.346 193.921 393.346C193.921 393.346 196.496 397.109 198.803 396.771C198.803 396.771 203.986 396.963 207.776 404.443C207.776 404.443 211.106 408.729 206.254 418.344C206.254 418.344 204.616 422.061 198.98 426.131C198.98 426.131 181.964 436 176.174 437.344C176.174 437.344 151.822 448.066 138.297 448.964C138.297 448.964 125.164 452.174 115.307 445.9C115.307 445.9 110.708 443.749 109.163 439.402C109.163 439.402 109.086 437.39 108.594 436.238C108.425 436.323 108.163 434.925 103.35 435.655C103.35 435.655 96.3681 435.186 93.0464 432.414C93.1695 432.514 87.1873 429.964 86.5491 421.5C86.3953 421.37 84.7268 415.065 95.6838 413.198C95.8837 413.329 90.0861 401.625 105.272 401.317C105.272 401.317 120.62 404.19 122.973 403.545C122.973 403.545 146.002 401.433 152.968 398.983C152.968 398.983 174.421 394.467 177.012 392.117C176.904 391.687 177.358 375.113 177.358 375.113C177.358 375.113 176.605 371.788 175.982 370.62C175.982 370.62 175.221 368.931 175.782 368.27C175.782 368.27 172.022 370.39 170.23 370.114C170.23 370.114 165.917 370.958 164.702 367.664C164.702 367.664 162.318 364.093 167.562 361.059L171.007 359.223C171.007 359.223 165.709 355.752 163.102 350.998C163.218 350.998 157.789 342.45 158.766 333.887C158.766 333.887 145.348 313.942 145.656 308.543C145.763 308.42 140.342 295.441 143.187 271.572C143.187 271.572 125.518 280.304 114.868 278.391C115.122 278.376 119.413 280.788 119.766 283.729C119.766 283.729 119.566 292.361 107.625 286.333C107.625 286.333 108.663 293.099 104.38 292.116C104.634 292.162 101.135 294.105 95.7069 288.644C96.0606 288.99 93.6231 286.125 91.4625 289.904C91.4625 289.904 83.8117 292.116 75.6151 276.571C75.6151 276.326 56.2461 270.335 48.826 260.812C48.826 261.096 31.4101 245.805 26.6197 236.129C26.6197 236.651 19.0767 225.814 16.8545 223.487C17.2159 223.887 10.0573 215.692 7.53522 205.485C7.53522 205.485 1.93751 189.304 1.61456 181.57C1.61456 181.57 0.445809 170.027 1.29162 160.888C1.29162 160.888 4.69792 141.596 11.9565 134.653C12.2179 134.653 14.1018 130.521 13.948 125.997C13.948 125.997 13.1791 117.043 9.10381 111.19C9.10381 111.19 4.43649 104.878 3.32156 99.9777C3.32156 99.9777 3.09088 93.3268 9.55747 90.8692C9.55747 90.8692 20.1531 84.7867 34.2474 92.2516C34.2474 92.2516 43.8281 94.617 50.5715 113.702C50.5715 113.702 52.0247 115.169 55.5541 114.777C55.5541 114.777 67.0647 111.313 75.0461 121.72C75.0461 121.72 77.968 123.517 78.9599 132.856C78.9676 133.178 78.1371 139.03 80.3055 140.597C80.3055 140.597 85.6725 143.6 87.4564 147.002C87.4564 147.002 92.1776 155.143 92.216 162.723C92.216 162.723 92.439 166.709 91.3933 170.756C91.3933 170.756 97.9829 179.135 98.5826 183.705C98.5826 183.705 101.451 192.061 100.682 198.596C100.682 198.596 100.705 205.808 96.545 209.226C96.545 209.226 91.8239 213.45 87.7486 214.555C87.6717 214.287 91.0011 224.831 94.3766 227.926C94.3766 227.926 98.7672 234.401 99.7514 235.122C99.9052 234.677 106.21 242.234 134.337 233.817C134.337 233.817 153.114 227.604 159.996 223.725L188.561 207.352C188.561 207.352 195.02 203.442 197.588 195.532L198.434 191.416C198.434 191.416 205.985 192.967 209.876 192.445C209.876 192.591 225.208 191.408 229.714 186.132L234.904 186.938C234.904 186.938 232.766 189.619 231.951 192.345C231.951 192.345 230.521 196.623 230.26 200.785C230.26 200.785 228.883 204.794 229.698 207.029C229.698 207.029 230.444 209.901 235.75 211.576C235.942 211.698 243.354 214.578 245.446 233.325C245.446 233.825 248.368 249.784 248.368 249.784C248.368 249.784 249.844 254.038 259.601 249.968C259.601 249.968 272.465 244.753 269.328 229.554C269.328 229.554 264.177 218.303 274.826 219.455C274.826 219.455 279.624 220.692 282.277 225.046C282.277 224.946 285.883 229.647 286.044 230.852C286.044 230.852 288.144 226.421 290.927 226.69C290.927 226.69 294.418 225.538 297.632 230.023C297.632 230.023 300.731 234.493 300.731 241.205C300.731 241.205 301.746 246.174 301.63 250.882C301.63 250.882 302.346 254.53 301.315 258.869C301.315 258.992 299.762 267.501 298.978 268.623L298.601 270.566C298.601 270.566 305.583 267.847 312.341 269.621C312.341 269.621 318.224 270.197 317.939 277.378C317.939 277.378 318.208 279.136 315.194 282.224C315.194 282.224 312.257 284.535 311.296 285.711C311.296 285.711 308.789 287.661 312.08 291.294C312.08 291.294 315.402 298.882 311.534 300.971C311.534 300.971 284.622 328.534 268.083 336.644C268.521 337.105 251.512 346.674 249.659 348.133C249.659 348.133 248.737 348.448 247.914 351.858C247.914 351.858 246.43 355.437 245.2 356.136C245.138 356.197 242.485 358.094 242.716 358.778C242.716 358.778 242.724 359.569 243.977 360.483C243.977 360.483 247.153 363.025 247.96 364.684C247.96 364.684 248.952 366.274 248.691 367.579C248.683 367.625 248.437 369.868 246.153 371.772C246.176 371.857 244.292 373.723 240.163 372.587C240.148 372.533 236.372 371.358 235.657 370.836C235.803 371.051 236.011 373.301 236.011 373.301" fill="#2C211C"/>
<path d="M144.395 233.018C144.395 233.018 140.735 235.084 136.883 237.296C125.564 241.006 114.108 243.801 101.843 241.236C101.528 242.327 103.35 242.856 102.359 243.64C101.451 244.354 100.79 243.194 100.159 242.664C92.6933 236.359 87.7953 228.165 83.6892 219.517C82.459 216.921 81.1134 216.698 78.7836 216.944C74.3238 217.413 69.818 217.674 66.4425 213.834C65.8811 213.196 65.5044 213.289 64.8815 213.603C60.0527 216.084 53.8399 215.17 49.8646 219.924C48.8958 221.084 47.1196 221.798 45.2434 221.168C46.0431 219.233 48.8573 219.863 49.4878 217.774C46.9735 216.898 44.2823 217.728 41.2297 217.29C43.152 215.685 44.8128 215.178 46.6121 215.055C54.3474 214.548 61.4753 211.998 68.2494 208.435C70.9252 207.029 73.5934 205.409 75.0774 202.583C75.4311 201.914 75.3542 200.931 76.4461 201.492C77.1996 201.876 78.03 202.383 77.2842 203.558C76.5691 204.687 76.0078 205.916 75.3311 207.175C79.0296 207.091 82.1514 205.739 85.2655 204.126C83.6508 206.899 81.0672 208.25 78.2376 209.28C76.4845 209.464 74.7237 209.671 72.9706 209.825C71.6788 209.94 69.9564 210.04 69.9948 211.484C70.0333 212.774 71.7864 212.974 73.0244 212.989C75.3081 213.004 77.6763 213.25 79.8677 212.766C84.7119 211.683 89.9636 211.169 92.9239 206.238C94.331 204.687 95.2922 202.944 95.2691 200.77C95.2076 194.557 94.4771 188.497 92.3626 182.561C89.6022 174.796 83.3586 170.772 73.9086 172.408C68.8492 173.283 63.9588 174.72 58.3534 177.346C64.7355 170.78 78.699 167.639 86.5573 170.426C88.1874 164.759 86.8572 159.352 84.9656 154.114C82.9972 148.669 79.0988 144.906 73.2627 143.838C66.4809 142.594 59.9836 144.046 53.6707 146.595C51.2256 147.586 48.8189 148.807 45.6894 148.999C47.0119 146.334 49.9415 147.041 51.2102 145.228C58.4226 142.625 65.4044 139.023 73.4627 140.152C74.5776 140.306 75.3311 139.899 75.1235 138.77C74.6468 136.128 75.4388 133.171 73.2704 130.921C72.9629 130.521 72.5015 130.16 72.3631 129.707C70.3178 122.841 67.5881 120.591 60.3526 119.846C54.1321 119.201 48.1961 120.829 42.3292 122.38C18.2006 128.732 7.33583 140.92 4.82147 163.261C2.64544 182.607 6.82835 201.177 16.1707 218.403C19.1541 223.895 23.4523 228.195 28.7655 231.536C30.0958 232.373 33.0176 232.235 32.2487 234.731C31.5721 236.943 29.273 234.493 27.6429 235.545C36.9314 246.95 46.0969 258.416 58.7456 266.426C64.697 270.197 71.2636 272.616 77.807 275.097C78.6221 275.404 80.1445 275.527 79.7985 276.925C79.5063 278.123 78.0454 277.194 77.1227 277.8C79.8677 281.41 82.4436 285.035 86.5496 287.193C87.5953 287.746 88.8333 288.514 89.6791 287.692C90.2942 287.093 90.771 285.711 89.8252 284.582C89.3562 284.029 88.8102 283.261 89.879 282.708C90.8786 282.193 91.5322 282.708 92.132 283.522C93.1777 284.958 94.0004 286.594 95.6075 287.554C96.6839 289.62 98.7062 290.311 100.721 290.826C102.482 291.271 104.066 291.033 103.581 288.491C103.174 287.569 102.728 286.663 102.359 285.718C101.974 284.751 100.575 283.745 101.882 282.731C103.012 281.855 103.996 283.015 104.904 283.645C107.103 285.181 109.41 286.44 112.047 287.062C113.377 287.377 114.692 287.339 115.522 286.195C116.607 284.697 115.046 283.967 114.3 283.084C111.878 280.197 108.648 279.014 104.988 278.607C104.373 278.538 102.92 278.714 103.166 277.309C103.197 277.132 103.266 277.002 103.366 276.91L103.812 277.493L108.425 278.522C108.425 278.522 114.561 278.085 114.753 278.085C114.946 278.085 120.643 278.038 121.774 277.839C122.904 277.639 128.056 276.372 130.216 275.681C132.377 274.997 135.176 274.844 136.452 274.306C137.729 273.768 139.774 273.177 140.766 272.639C141.758 272.102 142.25 271.802 142.834 271.119C143.426 270.435 143.749 270.236 144.395 269.015C145.041 267.786 146.171 263.523 146.417 262.54C146.663 261.557 152.6 246.366 152.6 246.366L156.921 237.742L159.474 228.195V225.584L144.395 233.018Z" fill="#F2ECE2"/>
<path d="M193.129 405.235C193.99 403.945 191.806 401.264 194.228 401.195C196.75 401.126 199.249 402.716 201.018 404.52C204.116 407.685 203.355 411.655 202.01 415.319C200.203 420.241 196.435 423.567 191.891 425.894C174.336 434.856 156.19 442.352 136.69 445.816C130.839 446.853 124.703 447.006 118.874 444.817C117.921 444.456 116.944 444.119 116.075 443.604C113.584 442.129 111.001 440.271 111.523 437.122C112.031 434.073 115.176 433.973 117.682 433.674C125.133 432.775 132.73 432.821 139.996 430.725C144.018 429.565 148.247 428.351 149.562 423.482C149.762 422.745 150 422 149.216 421.263C145.51 427.491 138.974 427.522 132.984 428.359C126.925 429.212 120.773 429.358 114.668 429.895C113.553 429.995 112.277 430.225 111.4 430.848C106.187 434.557 100.974 432.483 95.776 430.986C91.7161 429.818 90.5397 426.209 89.2248 422.784C88.702 421.409 89.5401 420.579 90.5474 419.942C92.1083 418.944 93.8153 418.636 95.6761 419.005C105.603 420.971 115.46 419.888 125.41 418.821C130.323 418.298 134.752 416.755 139.243 415.196C141.265 414.489 143.272 413.122 144.587 410.396C140.496 411.386 136.605 411.809 133.161 413.283C127.348 415.772 121.235 415.273 115.245 415.925C112.077 416.263 108.848 416.11 105.649 416.025C104.257 415.987 102.827 415.756 101.512 415.319C98.7748 414.397 97.037 412.201 97.8213 409.505C98.5672 406.924 101.689 406.064 103.88 406.656C111.608 408.745 119.382 408.768 127.255 408.384C134.26 408.038 140.981 406.164 147.755 404.674C156.19 402.816 164.579 400.642 172.683 397.547C174.959 396.679 175.843 397.271 175.436 399.682C175.297 400.512 175.136 401.341 175.29 402.278C177.912 399.866 177.935 396.457 178.173 393.277C178.504 388.946 178.527 384.591 178.465 380.244C178.442 378.24 178.442 376.788 181.095 376.972C182.033 377.034 183.102 376.512 183.971 376.012C187.146 374.185 187.439 374.377 187.762 377.879C188.6 386.972 190.445 395.896 192.429 404.797C192.46 404.935 192.806 405.027 193.129 405.235Z" fill="#FBBC1B"/>
<path d="M314.271 456.023C314.679 457.52 313.963 457.528 313.418 458.12C307.789 458.258 302.568 461.698 296.84 460.546C287.39 458.649 278.555 455.155 270.566 449.641C265.414 446.085 260.224 442.568 254.88 439.319C251.497 437.268 247.814 435.602 243.723 437.437C243.538 436.93 243.462 436.708 243.377 436.485C242.954 435.31 245.607 433.559 243.239 433.075C241.439 432.714 241.562 435.11 241.362 436.416C240.509 441.953 244 445.785 247.006 449.672C249.905 453.419 253.504 456.53 257.225 459.479C258.694 460.639 260.593 462.167 259.517 464.256C258.517 466.199 256.256 465.838 254.365 465.423C245.461 463.48 238.102 458.864 232.082 452.137C221.424 440.233 215.281 426.639 216.803 410.273C216.819 410.143 216.803 410.02 216.819 409.889C216.995 408.537 216.819 406.594 218.418 406.402C220.686 406.141 219.079 408.722 220.64 409.92C222.47 399.007 222.362 388.339 221.378 377.372C224.016 378.332 226.422 379.384 229.19 378.171C230.951 377.395 231.736 378.547 232.258 380.406C234.088 386.834 234.496 393.515 235.98 400.005C236.664 402.993 237.572 405.834 239.363 409.09C240.271 404.168 242.846 405.734 245.076 407.071C247.483 408.514 249.759 410.189 251.973 411.917C260.178 418.306 269.766 421.041 279.747 423.26C289.343 425.395 298.939 424.305 308.535 424.627C311.18 424.719 314.302 424.765 314.732 427.545C315.209 430.633 312.264 431.915 309.458 432.484C301.876 434.027 294.464 432.507 287.021 431.286C281.238 430.341 275.464 428.866 269.551 430.464C266.814 431.209 267.444 428.59 266.583 427.469C263.653 429.857 264.053 433.259 268.151 436.147C278.047 443.128 288.858 448.143 300.953 449.933C302.807 450.209 304.713 450.57 306.513 450.893C308.143 451.192 310.98 451.023 311.249 454.164C311.365 455.647 312.972 455.854 314.271 456.023Z" fill="#FBBC1B"/>
<path d="M126.179 126.382C132.046 124.346 138.036 123.571 144.026 124.899C140.32 127.733 125.956 131.212 121.489 130.283C114.861 128.901 111.731 122.327 114.138 115.883C117.898 105.83 125.949 102.328 135.614 101.544C145.617 100.73 154.606 103.518 163.072 109.248C174.067 116.682 185.586 123.371 197.05 130.083C199.073 131.266 201.925 131.074 204.563 130.675C192.16 124.139 180.726 116.313 169.246 107.957C174.144 104.808 177.797 100.2 182.841 97.2821C188.638 93.9336 193.629 94.3867 198.996 98.9256C204.178 103.311 208.161 108.894 213.421 113.241C217.457 116.574 222.178 118.525 227.015 119.731C230.329 120.552 233.666 118.118 237.149 117.035C234.627 125.729 227.638 129.2 220.141 132.057C202.74 138.67 185.816 136.327 169.039 129.507C160.073 125.867 151.2 121.789 141.273 121.305C136.321 121.059 131.554 121.505 127.325 124.423C126.764 124.799 125.895 125.015 126.179 126.382Z" fill="#D69D5B"/>
<path d="M185.447 177.984C193.251 184.435 202.163 185.894 212.044 184.673C225.061 183.06 235.542 176.87 243.446 166.979C248.39 160.796 251.166 153.001 252.45 145.021C254.396 132.972 254.718 120.96 250.459 109.202C249.851 107.52 248.037 106.253 248.636 103.304C252.896 109.363 256.387 114.97 257.663 121.697C259.832 133.133 260.193 144.515 256.072 155.627C253.919 161.441 250.559 166.333 245.96 170.788C242.723 173.921 240.401 178.13 236.718 181.079C230.613 185.979 224.431 190.948 216.596 192.53C202.817 195.318 190.16 193.152 179.934 182.523C177.965 180.48 176.789 177.915 175.451 175.488C173.998 172.854 172.921 170.012 175.712 167.47C177.296 166.026 182.663 166.249 184.709 168.023C186.162 169.29 187.577 170.435 189.568 170.918C192.49 159.575 191.898 148.808 184.785 138.954C194.866 139.822 197.288 142.003 198.78 152.033C198.949 153.147 199.38 154.076 199.564 155.09C199.864 156.756 200.448 158.492 199.072 160.143C191.683 169.044 191.39 171.909 196.696 181.378L196.727 181.409C193.036 180.511 189.845 178.414 186.331 177.085C185.677 176.371 184.901 175.88 183.924 175.726C183.578 175.196 182.925 174.658 182.509 175.081C181.841 175.757 182.902 175.979 183.202 176.41C183.955 176.955 184.701 177.469 185.447 177.984Z" fill="#D69D5B"/>
<path d="M182.364 139.768C181.487 138.385 180.449 137.433 178.996 137.033C171.499 134.96 164.356 131.942 157.328 128.708C152.653 126.558 148.462 125.974 143.879 129.062C141.196 130.866 137.959 131.911 134.868 133.025C133.068 133.677 132.861 134.699 133.261 136.242C136.628 159.144 157.397 178.091 176.65 184.204C175.082 181.455 173.513 178.705 171.937 175.963C171.068 172.192 169.984 168.222 173.706 165.396C178.419 161.824 182.856 164.743 187.338 166.525C189.622 156.863 187.608 148.047 182.364 139.768Z" fill="#F2ECE2"/>
<path d="M309.597 437.422C309.135 439.473 308.366 441.562 308.066 443.827C307.643 446.999 304.791 446.554 302.561 446.162C295.287 444.879 288.251 442.775 281.477 439.795C277.879 438.213 274.342 436.547 270.074 433.667C283.999 433.121 296.264 439.396 309.597 437.422Z" fill="#FBBC1B"/>
<path d="M278.809 459.778C274.211 459.924 269.759 460.108 265.453 461.536C264.746 461.775 264.108 461.828 263.485 460.999C258.764 454.724 252.389 450.07 247.099 444.356C246.315 443.512 244.792 442.659 245.823 441.208C246.638 440.056 247.968 440.731 249.029 441.039C253.358 442.298 256.726 445.362 260.102 447.981C265.976 452.543 272.035 456.614 278.809 459.778Z" fill="#FBBC1B"/>
<path d="M42.8214 110.984C42.3908 110.216 41.8679 109.486 41.5373 108.68C37.2775 98.2581 24.0213 91.6456 13.3103 94.6178C6.42853 96.5224 4.81381 100.055 8.58919 106.046C11.9878 111.445 15.1173 116.874 16.1476 123.264C15.8939 125.622 15.6402 127.972 15.3326 130.89C22.9372 124.808 31.0339 120.791 39.9456 118.418C45.5895 116.913 45.774 116.367 42.8214 110.984Z" fill="#F2ECE2"/>
<path d="M311.604 275.658C311.235 275.366 310.904 274.921 310.481 274.79C304.084 272.878 298.301 274.921 292.604 277.586C291.204 278.246 289.874 279.682 288.075 278.461C287.99 279.03 287.79 279.475 287.514 279.851C287.375 280.036 287.214 280.205 287.037 280.366C287.214 280.205 287.375 280.036 287.514 279.851C287.79 279.475 287.99 279.03 288.075 278.461C288.167 276.626 289.697 276.057 290.912 275.167C292.481 274.022 294.58 273.377 295.126 271.204C296.333 266.411 297.34 261.581 297.14 256.581C297.371 248.978 296.125 241.636 293.057 234.647C292.55 233.487 291.927 231.974 290.551 232.128C289.005 232.297 288.605 233.986 288.282 235.338C288.075 236.191 288.129 237.12 288.136 238.011C288.159 242.135 287.229 246.113 285.776 249.899C283.569 255.675 280.132 260.667 275.311 265.006C274.673 263.37 275.734 262.94 276.11 262.21C281.239 256.182 283.177 248.847 284.276 241.29C284.861 237.297 280.878 230.868 277.694 229.586C277.356 228.787 277.141 227.958 276.372 227.351C274.88 226.176 273.289 224.287 271.443 225.116C269.152 226.145 270.92 228.265 271.312 229.824C273.335 237.888 271.466 244.838 265.738 250.852C261.194 255.629 255.565 257.579 248.829 257.165C250.967 263.677 254.366 269.084 256.38 275.067C247.768 266.02 243.432 255.007 241.332 242.964C240.117 235.999 239.987 228.795 236.757 222.267C232.136 212.936 221.794 211.515 214.851 219.241C212.513 221.837 210.945 224.855 209.753 228.104C206.408 237.227 205.278 246.774 204.24 256.351C202.133 275.766 205.178 293.852 217.757 309.527C228.392 321.884 242.739 327.237 257.918 322.237C269.329 318.474 278.44 311.04 286.752 302.638C293.98 295.334 301.069 287.885 309.697 282.155C311.181 281.172 311.742 279.575 312.619 278.223C313.172 277.363 313.357 275.95 311.604 275.658Z" fill="#F2ECE2"/>
<path d="M192.637 75.1797C192.506 81.5925 193.298 87.7979 196.727 93.8651C193.798 93.0971 191.245 92.0219 188.315 92.2907C190.599 86.6613 191.614 80.9781 192.637 75.1797Z" fill="#F2ECE2"/>
<path d="M307.443 293.122C304.114 290.38 302.422 293.606 300.577 295.418C290.842 304.972 281.677 315.156 269.789 322.229C269.551 323.043 269.174 323.665 268.159 323.396L268.198 323.32C267.829 323.404 267.413 323.412 267.09 323.588C248.267 333.833 228.368 328.373 215.35 314.127C204.462 302.215 200.102 287.6 199.287 271.963C198.488 256.765 200.272 241.689 205.285 227.243C208.361 218.373 213.558 211.161 223.923 209.825C224.938 209.694 225.2 209.302 225.184 208.412C225.161 207.006 225.184 205.601 225.192 204.195C226.284 200.071 227.376 195.939 228.652 191.116C219.379 196.807 209.998 197.829 200.341 196.461C197.511 196.062 198.034 197.26 198.242 198.85C197.027 202.936 195.012 206.507 191.683 209.295C188.83 211.676 185.654 213.511 182.379 215.208C176.643 218.188 170.791 220.968 165.801 225.185C162.825 227.696 160.303 230.553 159.711 234.57C159.281 237.519 160.703 238.44 163.479 237.365C165.34 236.643 166.585 235.261 167.939 233.924C170.538 231.352 173.367 229.155 177.373 229.101C168.3 234.393 164.794 242.672 164.094 252.595C163.833 256.35 166.162 260.474 168.731 260.236C170.376 260.083 175.189 255.505 175.251 253.708C175.451 248.063 179.119 245.099 183.525 242.641C183.963 241.873 184.847 241.597 185.27 242.188C185.685 242.772 184.516 242.81 184.24 243.271C179.618 247.61 177.058 252.664 178.826 259.169C179.395 261.265 179.949 263.139 182.779 263.546C185.601 263.946 186.777 262.21 188.207 260.574C189.022 259.645 189.391 257.356 190.975 258.547C192.313 259.553 190.452 260.966 189.899 262.141C189.645 262.686 188.961 263.016 188.653 263.554C186.769 266.803 182.794 264.514 180.51 266.649L180.572 266.741C180.572 266.741 180.449 266.687 180.441 266.695C178.926 264.291 175.651 263.216 175.589 259.568C174.713 260.106 174.021 260.305 173.713 260.758C171.014 264.806 167.293 263.454 163.833 262.494C160.595 261.595 161.672 258.47 161.51 256.319C161.188 251.995 160.226 247.526 162.487 243.363C160.411 244.062 158.335 244.246 156.266 243.348C149.615 256.135 145.602 269.729 145.425 284.136C145.163 305.425 152.483 323.75 168.369 338.334C176.65 346.759 186.977 351.229 198.372 353.379C205.062 354.646 205.108 354.408 204.278 348.072C205.023 342.658 207.276 338.357 212.736 336.383C209.937 339.87 207.461 343.426 207.561 348.157C206.823 353.01 209.429 356.29 212.636 359.431C214.65 361.405 218.072 361.597 219.125 364.699C215.781 364.077 212.682 364.507 209.975 366.765C208.968 367.602 207.83 368.463 208.253 369.906C208.73 371.527 210.275 371.634 211.698 371.688C213.989 371.78 215.842 370.713 217.611 369.423C221.271 366.735 221.263 366.75 222.293 371.296C222.486 372.164 222.778 373.009 223.108 373.839C223.708 375.344 224.585 376.48 226.461 376.396C228.275 376.311 228.56 374.891 229.206 373.639C230.367 371.412 229.014 369.031 229.798 366.819C230.244 366.635 230.698 366.458 231.144 366.281C232.789 367.741 234.611 369 236.318 370.375C238.171 371.865 240.709 372.31 243.123 371.043C244.63 370.252 245.784 368.816 244.899 367.357C243.185 364.523 241.239 361.658 237.241 361.704C234.481 361.735 235.734 360.537 236.626 359.492C244.3 356.013 247.222 349.063 243.769 342.45C241.985 338.142 237.749 336.552 233.742 334.033C239.148 333.803 240.363 334.386 245.245 339.179C247.629 344.217 247.652 344.271 252.481 341.46C258.209 338.127 263.6 334.317 268.959 330.4C281.638 321.131 293.164 310.471 305.405 300.671C308.55 298.152 309.296 294.65 307.443 293.122Z" fill="#F2ECE2"/>
<path d="M161.388 339.555C161.411 339.57 161.426 339.586 161.442 339.601C161.442 339.555 161.442 339.509 161.449 339.463L161.388 339.555Z" fill="#F2ECE2"/>
<path d="M193.505 365.144C192.421 362.925 190.714 361.949 188.215 362.395C186.861 362.641 185.462 362.84 184.309 361.75C186.969 360.114 190.575 360.298 192.836 357.449C190.006 356.635 187.377 355.882 184.755 355.137C182.21 355.821 181.387 353.125 179.457 352.411C176.45 351.297 173.275 349.946 170.945 347.841C167.831 345.03 164.647 342.312 161.441 339.608C161.08 345.384 164.048 349.946 166.97 354.523C169.576 358.24 173.805 359.308 177.634 361.028C173.505 361.404 169.353 361.719 166.378 365.198C165.647 366.035 164.632 366.865 165.647 368.07C166.431 369.007 167.585 369.03 168.754 368.977C171.837 368.838 173.79 366.258 176.566 365.482C177.704 366.511 177.465 367.717 176.996 368.946C176.958 371.442 177.019 374.214 180.164 374.499C182.448 374.706 184.239 373.231 184.255 370.513C185.347 368.754 183.048 365.329 186.977 364.952C187.969 367.233 189.822 368.477 192.167 368.961C193.336 369.199 194.497 368.838 195.058 367.648C195.773 366.112 194.466 365.705 193.505 365.144Z" fill="#F2ECE2"/>
<path d="M140.481 269.452C141.05 268.316 142.073 267.717 141.074 265.804C139.866 263.5 143.157 262.679 144.395 261.143C143.711 263.393 143.803 265.774 142.942 268.039C142.388 269.521 141.719 269.698 140.481 269.452Z" fill="#F2ECE2"/>
<path d="M230.883 110.63C233.306 110.976 235.535 110.622 237.381 108.864C233.605 108.388 229.53 108.656 227.3 104.525C227.139 104.233 226.462 104.225 226.024 104.079C224.978 104.724 225.447 106.068 224.74 106.875C223.61 107.22 223.794 105.208 222.733 105.661C218.612 107.428 214.406 107.105 209.8 105.846C218.258 116.997 232.729 119.846 238.165 111.705C235.751 111.029 232.944 113.08 230.883 110.63Z" fill="#F2ECE2"/>
<path d="M171.553 9.53052C178.158 8.75484 184.602 9.55356 190.938 11.4736C190.376 9.87612 188.854 9.41532 187.562 8.77788C181.972 6.01308 175.89 5.56764 169.816 5.12988C169.293 6.0822 167.071 6.01308 168.024 7.79484C168.716 9.10044 170.039 9.70716 171.553 9.53052Z" fill="#F2ECE2"/>
<path d="M266.03 154.882C265.3 157.278 262.601 157.954 261.57 160.135C262.585 157.931 265.3 157.255 266.03 154.851C267.276 155.75 266.745 156.979 267.322 157.785C284.261 139.576 284.546 109.985 269.713 98.7107C269.529 101.514 269.36 104.325 269.152 107.128C269.106 107.765 268.914 108.51 268.068 108.318C267.668 108.226 267.176 107.735 267.068 107.328C266.83 106.475 266.745 105.569 266.73 104.678C266.615 95.3469 265.846 86.0617 264.362 76.8611C262.209 63.4826 257.903 51.0333 248.268 40.9572C239.726 32.0253 229.084 27.4097 217.043 25.8737C215.166 25.6356 213.675 26.4266 212.913 23.7924C210.814 16.4964 205.724 10.4369 199.127 6.7428C194.952 4.40809 190.277 3.09481 185.517 2.68009C183.11 2.47273 180.688 2.48809 178.281 2.68009C176.459 2.82601 174.445 2.62633 172.661 3.06409C171.469 3.35593 170.485 4.04713 169.816 5.08393C175.89 5.52168 181.98 5.96712 187.562 8.73192C188.854 9.36936 190.384 9.83016 190.938 11.4276C196.528 15.5978 196.528 15.5978 197.135 17.7559C196.474 18.0938 195.874 17.8711 195.367 17.4564C187.939 11.4199 179.381 10.483 170.469 12.5105C163.572 14.0772 157.052 16.8113 153.322 23.4084C151.354 26.8874 152.746 29.1377 156.721 29.1377C161.719 29.1377 166.448 28.1546 170.892 25.4897C176.059 22.3946 179.427 21.9338 182.726 22.9399C182.126 23.7309 181.226 23.7386 180.373 23.9537C172.791 25.8276 166.555 29.7905 162.273 36.3722C159.443 40.7268 160.189 42.0016 165.225 42.3165C166.625 42.401 168.032 42.4932 169.431 42.4164C178.251 41.9402 185.594 37.5472 193.029 33.4231C194.675 32.5092 196.128 31.1037 198.419 31.3956C194.928 33.738 192.929 37.5703 188.508 39.114C183.518 40.8573 178.766 43.5607 173.568 44.49C169.162 45.2733 165.202 46.0259 163.065 50.4573C163.034 50.5187 162.649 50.3959 162.311 50.3498C161.873 48.3069 164.649 47.5235 164.341 45.4883C162.157 46.6019 159.604 49.505 157.667 52.4464C149.316 65.1107 145.51 79.0729 145.503 94.1564C145.503 94.8169 146.064 95.7846 144.857 95.9766C142.842 96.2915 142.834 96.2608 142.312 97.5356C149.67 98.0348 156.29 100.853 162.849 103.895C163.057 103.71 163.265 103.526 163.472 103.342C161.035 100.677 159.312 97.6355 158.297 94.1564C154.937 82.6749 157.113 71.9152 162.557 61.601C163.933 58.9975 165.587 56.5475 167.947 54.5431C168.516 55.672 168.324 56.4016 167.693 57.1927C161.873 64.4963 159.035 72.952 158.812 82.1757C158.62 90.232 159.943 97.9043 166.74 103.488C168.501 104.939 169.785 105.077 171.576 103.319C175.575 99.4019 179.665 95.5004 184.956 93.304C186.37 92.7126 186.686 91.5836 187.17 90.424C189.846 84.0035 191.015 77.2067 190.938 70.3562C190.869 63.9894 190.876 57.3539 186.201 52.0701C185.894 51.7783 185.594 51.4787 185.286 51.1869C180.204 47.224 175.636 49.8506 171.1 52.7843C174.291 46.8554 181.011 45.2119 186.347 48.568C187.362 49.8199 190.161 50.1424 188.546 52.7613C188.854 53.2451 189.162 53.729 189.469 54.2128L189.608 54.1744C189.608 54.1744 189.515 54.2819 189.508 54.2819C191.799 62.968 194.836 71.4774 194.575 80.6934C194.506 83.0205 195.336 85.4473 196.097 87.7053C199.711 98.4726 209.053 105.085 218.711 103.764C220.833 103.472 223.34 103.173 224.163 100.892C225.593 96.9212 228.33 94.3254 231.729 92.1443C232.836 91.4377 233.328 90.2781 233.736 89.0109C235.174 84.5488 234.981 80.0253 234.605 75.4557C233.951 67.3994 231.052 60.2493 224.97 54.9347C219.365 50.0349 212.706 47.5466 205.255 50.7107C199.888 52.9917 197.758 57.976 196.059 63.1062C195.605 64.481 195.582 66.0323 193.629 66.8464C194.552 60.9251 197.02 55.9715 200.572 51.6938C202.618 49.2285 205.37 47.5082 208.9 47.0243C218.734 45.6957 225.308 51.1869 230.552 57.9837C237.557 67.0614 239.51 77.7213 237.065 89.2566C242.286 88.5885 247.469 86.8989 252.459 89.5254C249.637 89.103 246.853 89.6713 244.078 89.9632C235.127 90.9078 228.015 96.4681 226.047 104.025C226.485 104.163 227.169 104.179 227.323 104.471C229.553 108.603 233.636 108.334 237.403 108.81C240.702 106.644 243.178 103.357 246.792 101.652C250.214 100.032 253.674 99.9395 256.903 102.305C257.411 102.674 258.003 103.081 257.695 103.826C257.241 104.924 256.565 104.294 255.85 104.064C254.504 103.634 253.251 102.451 251.559 103.372C252.274 104.617 252.928 105.853 253.674 107.028C262.27 120.553 263.324 135.214 260.655 150.589C259.925 154.782 257.634 158.353 256.919 162.47C254.689 166.033 251.544 169.021 249.96 173.03C254.404 170.795 258.041 167.723 261.24 164.129C262.801 163.246 264.146 162.124 265.154 160.627C265.154 160.642 265.154 160.65 265.154 160.665C265.154 160.665 265.177 160.619 265.161 160.611C265.169 160.604 265.177 160.596 265.177 160.588C265.169 160.588 265.161 160.588 265.154 160.581C265.115 159.736 265.592 159.283 266.376 159.068C267.068 158.922 267.483 158.569 267.345 157.793C266.738 157.009 267.276 155.781 266.03 154.882ZM183.11 70.5021C183.618 69.6112 184.217 68.3747 185.648 68.5053C187.27 68.6512 187.201 70.3101 187.309 71.1318C188.039 76.623 187.631 82.0297 185.033 87.0601C184.479 88.1277 183.879 89.5869 182.257 89.1337C181.019 88.7881 180.765 87.5056 180.65 86.3843C180.481 84.7408 180.457 83.0819 180.365 81.4307C180.404 77.5523 181.196 73.8659 183.11 70.5021ZM213.836 68.1443C217.612 67.6605 218.396 71.6387 219.403 74.6339C220.487 77.8441 219.603 80.9469 218.803 83.9267C218.134 86.4304 213.898 86.7145 212.429 84.4336C210.768 81.8685 209.838 78.9808 209.792 75.3405C210.222 72.7446 210.115 68.6205 213.836 68.1443ZM200.557 38.6608C203.625 33.208 208.062 30.5431 213.275 30.9809C220.403 31.5799 225.777 35.2202 229.376 41.5408C220.887 32.7012 211.845 29.0916 200.557 38.6608ZM230.329 43.8986C229.699 43.0922 229.307 42.5546 229.607 41.8404C229.645 41.7482 230.068 41.7021 230.191 41.7943C230.783 42.2244 230.552 42.8157 230.329 43.8986Z" fill="#F2ECE2"/>
<path d="M269.789 322.222C269.551 323.036 269.174 323.658 268.159 323.389C268.367 322.537 269.32 322.713 269.789 322.222Z" fill="#F2ECE2"/>
<path d="M161.449 339.463C160.826 339.87 160.942 339.34 160.903 339.025C160.903 338.995 161.019 338.949 161.08 338.91C161.18 339.125 161.288 339.34 161.388 339.555L161.449 339.463Z" fill="#F2ECE2"/>
<path d="M265.13 160.688C265.053 159.79 265.545 159.321 266.353 159.099C265.945 159.621 265.537 160.158 265.13 160.688Z" fill="#F2ECE2"/>
<path d="M163.471 103.388C163.733 103.749 163.994 104.11 164.256 104.471C163.556 104.901 163.141 104.593 162.849 103.941C163.056 103.749 163.264 103.572 163.471 103.388Z" fill="#F2ECE2"/>
<path d="M189.453 54.2669L189.584 54.2285L189.492 54.336L189.346 54.3514L189.453 54.2669Z" fill="#D69D5B"/>
<path d="M196.704 181.401L196.836 181.487L196.735 181.432L196.704 181.401Z" fill="#D69D5B"/>
<path d="M43.9739 221.621C43.8817 221.598 43.7971 221.552 43.7048 221.559C43.6741 221.559 43.651 221.682 43.6279 221.744C43.7202 221.767 43.8048 221.805 43.897 221.805C43.9278 221.805 43.9509 221.69 43.9739 221.621Z" fill="#F2ECE2"/>
<path d="M209.791 75.3642C210.222 72.7684 210.114 68.6365 213.843 68.1604C217.619 67.6765 218.403 71.6548 219.41 74.65C220.494 77.8602 219.61 80.9629 218.81 83.9428C218.141 86.4464 213.905 86.7306 212.428 84.4496C210.768 81.8922 209.837 79.0045 209.791 75.3642Z" fill="#2C211C"/>
<path d="M180.364 81.4535C180.403 77.5751 181.195 73.8887 183.102 70.5249C183.609 69.634 184.209 68.3975 185.639 68.5281C187.261 68.674 187.192 70.3329 187.3 71.1547C188.03 76.6459 187.623 82.0526 185.024 87.083C184.47 88.1505 183.871 89.6097 182.248 89.1565C181.01 88.811 180.756 87.5284 180.641 86.4071C180.48 84.7636 180.457 83.1047 180.364 81.4535Z" fill="#2C211C"/>
<path d="M229.376 41.5644C220.887 32.7248 211.844 29.1152 200.557 38.6844C203.625 33.2316 208.061 30.5667 213.275 31.0044C220.402 31.6112 225.777 35.2515 229.376 41.5644Z" fill="#2C211C"/>
<path d="M186.332 48.6142C181.003 45.258 174.275 46.9016 171.084 52.8305C175.628 49.8967 180.188 47.2702 185.27 51.2331C185.578 51.5249 185.878 51.8244 186.186 52.1239C186.962 52.3543 187.739 52.5771 188.523 52.8075C190.145 50.1886 187.347 49.866 186.332 48.6142Z" fill="#2C211C"/>
<path d="M230.329 43.9221C229.699 43.1157 229.307 42.5781 229.607 41.8639C229.645 41.7717 230.068 41.7257 230.191 41.8178C230.783 42.2479 230.552 42.8469 230.329 43.9221Z" fill="#2C211C"/>
<path d="M183.532 242.641C183.971 241.873 184.855 241.597 185.278 242.188C185.693 242.772 184.524 242.81 184.247 243.271C184.001 243.064 183.771 242.849 183.532 242.641Z" fill="#2C211C"/>
<path d="M180.504 266.657L180.566 266.75C180.566 266.75 180.442 266.696 180.434 266.704C180.426 266.719 180.504 266.657 180.504 266.657Z" fill="#2C211C"/>
<path d="M243.493 157.969C241.086 154.076 237.787 152.563 232.889 153.354C228.953 154.498 224.624 154.775 221.786 158.353C220.741 158.484 220.218 159.214 219.802 160.066C216.496 163.645 214.305 167.83 213.013 172.5C212.844 173.099 212.851 173.89 211.959 173.59C211.229 173.345 211.452 172.554 211.437 171.947C212.098 167.009 214.274 162.677 217.25 158.499C215.535 158.499 214.266 158.499 213.005 158.499C203.017 158.223 196.543 163.66 196.95 171.985C196.112 173.091 196.143 174.166 196.689 175.464C198.265 179.235 202.24 182.008 206.592 182.069C214.874 182.184 222.186 179.228 229.399 175.426C232.636 173.713 234.427 170.91 235.927 168.284C237.449 165.619 238.195 161.848 235.127 158.661C239.179 158.307 239.533 160.519 239.233 163.192C239.071 164.605 238.764 166.003 238.487 167.631C240.379 165.534 242.101 163.676 243.377 161.448C244.054 160.281 244.308 159.29 243.493 157.969ZM230.66 161.587C230.667 161.548 230.667 161.51 230.675 161.471C230.667 161.502 230.667 161.548 230.66 161.587ZM230.721 160.995C230.683 160.212 230.729 159.352 229.845 159.198C230.729 159.359 230.69 160.212 230.721 160.995Z" fill="#F2ECE2"/>
<path d="M268.198 323.213C268.198 323.221 268.19 323.221 268.198 323.213C268.182 323.244 268.167 323.259 268.159 323.29L268.198 323.213Z" fill="#2C211C"/>
<path d="M318.946 424.665C316.693 420.971 313.287 420.426 309.266 420.672C299.031 421.294 288.912 420.257 278.755 418.836C263.961 416.763 252.466 407.9 239.902 401.164C239.102 400.734 238.418 400.189 238.272 399.175C236.988 390.151 235.68 381.135 234.365 371.965C240.463 375.106 244.062 374.853 246.407 371.243C248.437 368.117 247.66 365.829 242.447 361.482C240.832 360.13 241.401 359.408 242.493 358.602C244.977 356.751 246.43 354.194 247.206 351.36C247.637 349.778 248.483 349.117 249.759 348.441C272.542 336.33 290.796 318.359 310.119 301.785C312.887 299.412 313.733 295.419 311.48 293.207C306.713 288.53 310.204 286.556 313.341 284.045C313.441 283.968 313.525 283.868 313.618 283.776C316.001 281.234 317.739 278.454 316.124 274.859C314.556 271.365 311.303 270.62 307.912 270.374C304.422 270.121 300.954 270.405 297.332 271.78C297.517 270.797 297.555 270.297 297.709 269.837C301.492 258.455 300.9 247.012 298.032 235.599C297.24 232.435 296.002 229.171 292.288 228.134C288.766 227.151 286.352 228.841 284.768 232.066C282.7 227.919 280.085 224.663 276.533 222.282C274.118 220.662 271.35 219.679 268.698 221.553C266.237 223.288 266.468 225.869 267.444 228.426C267.667 229.01 267.767 229.647 267.921 230.262C270.889 242.25 263.1 252.426 250.905 252.787C248.152 252.872 247.083 252.057 246.668 249.431C245.507 242.173 244.354 234.9 242.801 227.72C241.378 221.138 239.017 214.464 232.389 211.714C227.576 209.725 227.776 207.083 228.768 203.336C228.929 202.721 228.96 202.076 229.022 201.439C229.821 192.753 232.928 185.887 241.747 182.154C248.652 179.228 254.788 174.72 260.562 169.882C275.472 157.371 285.637 142.441 284.322 121.951C283.661 111.637 279.824 102.689 271.473 96.1767C270.066 95.0785 269.659 94.0493 269.551 92.4519C269.005 84.3265 268.521 76.2318 266.821 68.1908C261.37 42.2862 242.693 23.8696 216.811 21.604C215.212 21.4658 214.835 20.5518 214.304 19.2693C210.821 10.8751 204.255 5.7141 196.02 2.48082C194.543 1.89714 193.013 1.45171 191.491 1.02163C190.414 0.714426 189.369 0.276667 188.261 0.084667C187.239 -0.0919727 186.254 0.107707 185.232 0.107707C184.101 0.107707 182.979 0.107707 181.849 0.107707C179.703 0.107707 177.55 0.107707 175.405 0.100027C173.413 0.092347 171.13 1.11379 169.338 1.92786C164.779 3.99378 164.133 6.56658 167.031 10.66C166.193 10.9749 165.355 11.2744 164.533 11.6123C158.858 13.924 153.952 17.2802 150.877 22.6946C148.093 27.5944 150.584 31.78 156.151 31.7109C158.027 31.6878 160.011 32.0027 161.803 31.0427C162.141 31.0504 162.687 30.9352 162.772 31.0888C163.033 31.5419 162.533 31.5649 162.249 31.6801C161.549 32.5787 160.842 33.4696 160.157 34.3835C158.45 36.6568 156.328 39.2987 157.874 41.9637C159.281 44.3982 158.304 45.5118 157.066 47.1169C148.947 57.6539 144.295 69.5963 143.864 82.8442C143.703 87.9207 143.195 92.1754 139.004 95.5623C137.69 96.6298 136.721 97.6129 134.86 97.6743C128.893 97.874 123.426 99.7325 118.467 103.081C110.954 108.142 107.387 116.59 109.624 124.047C112.023 132.05 116.229 134.577 127.371 134.569C128.77 134.569 128.932 135.076 129.147 136.297C133.538 160.358 148.124 176.164 169.938 185.887C177.658 189.327 186.001 191.147 193.736 194.657C195.897 195.64 196.312 196.308 195.52 198.451C194.097 202.283 192.006 205.617 188.569 207.775C179.334 213.542 169.723 218.688 160.28 224.079C151.292 229.217 141.334 232.52 131.4 235.553C123.465 237.972 115.353 239.616 106.971 238.863C103.45 238.548 99.7744 238.318 97.3369 235.192C93.1002 229.762 89.6708 223.841 86.7489 217.613C85.9569 215.923 86.1953 215.562 88.0253 214.84C93.8383 212.567 98.4672 208.95 99.19 202.122C100.297 191.677 97.5983 182.277 91.2317 173.937C90.6319 173.153 89.7938 172.7 90.186 171.364C91.8161 165.742 90.6396 160.197 89.0634 154.829C87.687 150.152 85.3264 145.682 80.9282 143.247C77.9218 141.588 77.3835 139.63 77.6142 136.612C78.5523 124.493 69.0254 113.518 54.7543 115.922C50.8713 116.575 48.6491 115.692 47.5957 111.667C46.9344 109.133 45.6349 106.721 44.3585 104.402C37.9304 92.6977 21.9062 86.7687 9.66503 91.4765C2.46798 94.2413 0.414968 99.5021 4.0135 106.314C5.49751 109.117 7.56589 111.629 8.91919 114.486C12.7791 122.657 15.0398 130.837 8.58855 139.008C5.91272 142.403 4.28262 146.465 3.06773 150.62C1.9528 154.422 1.00703 158.277 -0.015625 162.109C-0.015625 168.507 -0.015625 174.904 -0.015625 181.302C1.26847 187.146 2.33726 193.052 3.89816 198.827C6.55092 208.666 9.81882 218.381 16.7468 226.099C20.4837 230.262 23.4825 234.801 26.6965 239.301C33.5399 248.886 41.8365 257.272 50.8251 264.914C56.8996 270.075 63.6968 274.076 71.4167 276.196C73.3467 276.726 74.3924 277.563 75.3382 279.199C78.0909 283.975 81.2127 288.438 86.7105 290.534C88.0945 291.056 89.8938 291.709 90.6935 290.742C93.154 287.762 94.4458 290.035 96.222 291.417C98.5133 293.199 101.166 294.09 104.073 293.046C106.848 292.047 106.01 289.551 106.133 287.47C112.877 290.204 115.875 290.242 117.698 287.37C120.274 283.315 115.845 282.178 113.822 279.59C124.226 280.243 133.092 276.595 141.888 272.786C142.518 274.521 141.519 275.766 141.38 277.14C139.374 297.3 143.687 315.786 155.905 332.198C156.736 333.312 157.366 334.433 157.397 336C157.582 346.084 161.188 354.509 169.83 360.376C163.956 363.026 161.895 365.583 163.264 368.586C163.725 369.6 164.363 370.483 165.571 370.959C168.746 372.211 171.422 370.537 174.482 369.477C174.098 372.318 176.22 374.285 176.066 376.996C175.813 381.458 175.836 385.958 176.059 390.42C176.174 392.763 175.328 393.853 173.206 394.544C162.702 397.954 151.915 400.189 141.119 402.393C131.984 404.26 122.803 405.726 113.438 403.96C110.185 403.346 106.902 402.555 103.627 402.516C95.7991 402.416 91.5546 408.069 94.3766 414.405C87.0334 416.294 84.7267 418.636 85.3264 423.905C85.6801 427.046 87.2256 429.665 89.5093 431.831C93.6615 435.755 98.7902 436.922 104.288 436.938C106.156 436.946 107.648 436.777 107.702 439.541C107.748 441.853 109.486 443.642 111.3 445.14C119.751 452.137 129.585 451.637 139.335 449.74C157.482 446.215 174.452 439.157 191.076 431.27C194.036 429.865 196.873 428.037 199.441 425.994C203.901 422.453 206.6 417.73 207.384 412.047C208.176 406.325 204.708 401.026 199.026 398.484C196.673 397.432 193.052 397.708 192.552 394.199C191.468 386.542 190.676 378.839 189.722 370.767C193.121 372.196 195.835 371.735 197.342 368.809C199.595 364.454 195.289 363.018 193.182 360.821C196.066 357.166 199.649 358.587 203.032 359.109C208.922 360.023 208.914 360.077 212.336 363.072C210.906 363.855 209.406 364.539 208.053 365.453C206.315 366.628 205.423 368.386 206.092 370.429C206.8 372.618 208.307 374.131 210.86 374.008C212.128 373.947 213.589 374.162 214.612 373.609C217.865 371.85 218.088 374.085 218.149 376.181C218.341 382.702 219.256 389.176 219.072 395.719C218.995 398.538 219.395 401.118 215.935 402.508C214.212 403.2 213.497 405.358 212.905 407.193C211.413 411.84 211.175 416.44 211.967 421.378C214.604 437.836 222.57 450.985 235.334 461.506C240.309 465.607 246.23 467.65 252.066 469.969C254.373 469.969 256.679 469.969 258.986 469.969C261.401 468.579 264.422 467.765 264.384 464.102C264.369 462.689 265.645 463.034 266.375 462.904C273.426 461.66 280.462 460.7 287.575 462.704C295.51 464.947 303.46 466.352 311.057 461.483C311.126 461.437 311.203 461.391 311.273 461.345L311.319 461.414C311.319 461.414 314.794 461.161 315.025 452.828C315.056 450.862 314.264 448.98 312.634 448.274C308.797 446.615 309.473 443.965 310.258 441.047C310.873 438.766 312.088 436.807 313.91 435.363C315.855 433.812 317.516 432.053 318.931 430.041C320.653 427.829 319.231 425.986 318.946 424.665ZM236.765 221.683C239.994 228.203 240.125 235.407 241.34 242.381C243.439 254.423 247.775 265.444 256.387 274.483C254.373 268.5 250.974 263.094 248.837 256.581C255.565 256.996 261.193 255.037 265.745 250.268C271.481 244.247 273.35 237.304 271.32 229.24C270.927 227.681 269.159 225.561 271.45 224.532C273.288 223.703 274.88 225.592 276.379 226.767C277.148 227.374 277.356 228.203 277.702 229.002C280.885 230.285 284.86 236.713 284.276 240.706C283.176 248.256 281.239 255.59 276.11 261.627C275.733 262.356 274.672 262.786 275.31 264.422C280.131 260.083 283.568 255.099 285.775 249.316C287.221 245.522 288.151 241.551 288.136 237.427C288.128 236.536 288.082 235.607 288.282 234.754C288.605 233.403 289.005 231.721 290.55 231.544C291.927 231.391 292.549 232.911 293.057 234.063C296.125 241.06 297.371 248.394 297.14 256.005C297.34 260.997 296.332 265.828 295.125 270.62C294.579 272.793 292.473 273.446 290.912 274.583C289.697 275.466 288.159 276.034 288.074 277.878C289.874 279.106 291.196 277.663 292.603 277.002C298.301 274.329 304.083 272.294 310.481 274.207C310.903 274.329 311.234 274.775 311.603 275.074C313.356 275.366 313.172 276.779 312.618 277.632C311.742 278.983 311.173 280.581 309.696 281.564C301.069 287.293 293.98 294.735 286.752 302.047C278.44 310.448 269.328 317.89 257.917 321.646C242.739 326.646 228.399 321.293 217.757 308.935C205.177 293.261 202.133 275.174 204.239 255.759C205.277 246.182 206.408 236.628 209.753 227.512C210.944 224.264 212.513 221.245 214.85 218.65C221.801 210.923 232.136 212.344 236.765 221.683ZM144.848 95.9233C146.055 95.7313 145.494 94.7713 145.494 94.1031C145.502 79.0196 149.308 65.0574 157.658 52.3931C159.596 49.4516 162.149 46.5486 164.333 45.435C164.648 47.4625 161.872 48.2459 162.303 50.2964C162.641 50.3502 163.025 50.4654 163.056 50.404C165.194 45.9726 169.154 45.22 173.56 44.4366C178.757 43.5073 183.509 40.804 188.5 39.0606C192.913 37.5169 194.912 33.6923 198.411 31.3422C196.12 31.0504 194.666 32.4558 193.021 33.3697C185.578 37.4939 178.242 41.8792 169.423 42.363C168.031 42.4398 166.616 42.3477 165.217 42.2632C160.188 41.9483 159.435 40.6734 162.264 36.3189C166.547 29.7371 172.783 25.7742 180.365 23.9003C181.218 23.6853 182.118 23.6853 182.717 22.8866C179.426 21.8882 176.051 22.3413 170.884 25.4363C166.439 28.1013 161.711 29.0843 156.713 29.0843C152.737 29.0843 151.346 26.8341 153.314 23.355C157.043 16.7502 163.571 14.0238 170.461 12.4571C179.373 10.4296 187.931 11.3666 195.358 17.403C195.858 17.8101 196.458 18.0405 197.127 17.6949C196.519 15.5368 196.519 15.5368 190.922 11.3666C184.594 9.44658 178.15 8.64786 171.545 9.43122C170.03 9.60785 168.708 9.00114 168.008 7.68786C167.055 5.9061 169.277 5.97522 169.8 5.0229C171.73 1.9893 175.09 3.04146 177.689 2.69586C193.013 0.668346 208.607 8.80146 212.897 23.716C213.659 26.3502 215.15 25.5592 217.026 25.7973C229.068 27.3333 239.717 31.9489 248.252 40.8808C257.894 50.9646 262.2 63.4139 264.353 76.7924C265.837 85.993 266.606 95.2781 266.722 104.609C266.729 105.5 266.821 106.406 267.06 107.259C267.175 107.666 267.66 108.157 268.059 108.25C268.905 108.442 269.097 107.697 269.144 107.059C269.351 104.256 269.52 101.445 269.697 98.642C284.53 109.916 284.245 139.515 267.306 157.716C267.452 158.492 267.037 158.845 266.337 158.991C265.93 159.521 265.522 160.051 265.115 160.581L265.138 160.535C264.13 162.056 262.769 163.185 261.193 164.075C257.994 167.67 254.357 170.742 249.913 172.977C251.497 168.968 254.642 165.98 256.872 162.417C257.594 158.3 259.886 154.729 260.609 150.536C263.277 135.16 262.223 120.499 253.627 106.975C252.881 105.8 252.227 104.563 251.512 103.319C253.204 102.397 254.457 103.58 255.803 104.01C256.518 104.241 257.202 104.87 257.648 103.772C257.956 103.027 257.364 102.62 256.856 102.252C253.627 99.8861 250.167 99.9783 246.745 101.599C243.131 103.311 240.655 106.598 237.357 108.764C235.511 110.523 233.281 110.876 230.859 110.531C232.92 112.981 235.734 110.93 238.141 111.606C232.705 119.747 218.234 116.897 209.776 105.746C214.381 107.005 218.587 107.328 222.709 105.562C223.77 105.109 223.585 107.121 224.716 106.775C225.423 105.969 224.954 104.625 226 103.972C227.976 96.4225 235.088 90.8622 244.031 89.9175C246.807 89.6257 249.59 89.0574 252.412 89.4798C247.422 86.8609 242.239 88.5428 237.018 89.211C239.463 77.6756 237.51 67.0081 230.506 57.938C225.262 51.1412 218.68 45.6424 208.853 46.9787C205.316 47.4548 202.571 49.1828 200.525 51.6481C196.973 55.9259 194.505 60.8795 193.582 66.8007C195.535 65.9867 195.558 64.4353 196.012 63.0606C197.711 57.9304 199.841 52.946 205.208 50.6651C212.659 47.5009 219.318 49.9816 224.923 54.8891C231.005 60.2036 233.904 67.3537 234.558 75.41C234.927 79.9796 235.119 84.5031 233.689 88.9652C233.281 90.2324 232.789 91.3921 231.682 92.0986C228.283 94.2721 225.546 96.8756 224.116 100.846C223.293 103.127 220.786 103.427 218.664 103.718C209.014 105.039 199.672 98.4269 196.05 87.6596C195.289 85.394 194.459 82.9671 194.528 80.6478C194.789 71.4395 191.752 62.9223 189.461 54.2363L189.322 54.2593L189.422 54.1672C189.115 53.6833 188.807 53.1918 188.492 52.708C187.715 52.4852 186.939 52.2548 186.162 52.0321C190.837 57.3083 190.829 63.9438 190.899 70.3105C190.976 77.161 189.807 83.9502 187.131 90.3783C186.647 91.538 186.331 92.6746 184.917 93.2583C179.626 95.4548 175.536 99.3562 171.537 103.273C169.746 105.032 168.462 104.886 166.701 103.442C159.904 97.8586 158.581 90.1863 158.773 82.13C158.996 72.9063 161.834 64.4507 167.654 57.147C168.285 56.3483 168.477 55.6264 167.908 54.4974C165.547 56.5019 163.894 58.9518 162.518 61.5553C157.074 71.8695 154.898 82.6215 158.258 94.1108C159.273 97.5898 161.003 100.631 163.433 103.296C163.694 103.657 163.956 104.018 164.217 104.379C163.518 104.809 163.102 104.502 162.81 103.849C156.251 100.815 149.631 97.9892 142.272 97.49C142.834 96.1997 142.834 96.2381 144.848 95.9233ZM235.119 158.569C238.187 161.756 237.441 165.527 235.919 168.192C234.419 170.819 232.628 173.629 229.391 175.334C222.178 179.136 214.866 182.093 206.585 181.978C202.225 181.916 198.25 179.151 196.681 175.373C196.135 174.067 196.104 173 196.942 171.894C196.535 163.569 203.009 158.131 213.005 158.408C214.266 158.408 215.535 158.408 217.249 158.408C214.266 162.586 212.09 166.925 211.436 171.855C211.444 172.462 211.221 173.245 211.959 173.499C212.851 173.798 212.844 173.007 213.013 172.408C214.304 167.739 216.496 163.546 219.802 159.974C220.217 159.122 220.74 158.385 221.786 158.262C224.623 154.683 228.952 154.406 232.889 153.262C237.787 152.471 241.086 153.984 243.493 157.878C244.308 159.199 244.054 160.189 243.377 161.364C242.101 163.584 240.378 165.45 238.487 167.547C238.764 165.911 239.071 164.521 239.233 163.108C239.533 160.428 239.171 158.216 235.119 158.569ZM196.727 93.7652C193.797 92.9972 191.245 91.922 188.315 92.1908C190.599 86.569 191.614 80.8782 192.636 75.0798C192.506 81.4926 193.298 87.6903 196.727 93.7652ZM121.489 130.176C114.861 128.794 111.731 122.22 114.138 115.776C117.898 105.723 125.948 102.221 135.614 101.437C145.617 100.623 154.606 103.411 163.072 109.141C174.067 116.575 185.585 123.264 197.05 129.976C199.072 131.159 201.925 130.967 204.562 130.568C192.16 124.032 180.726 116.206 169.246 107.85C174.144 104.701 177.796 100.093 182.84 97.1751C188.638 93.8266 193.628 94.2797 198.995 98.8186C204.178 103.204 208.161 108.787 213.42 113.134C217.457 116.467 222.178 118.418 227.015 119.624C230.329 120.445 233.666 118.011 237.149 116.928C234.627 125.622 227.637 129.093 220.141 131.95C202.74 138.563 185.816 136.22 169.038 129.4C160.073 125.76 151.2 121.682 141.273 121.198C136.321 120.952 131.554 121.398 127.325 124.316C126.748 124.716 125.879 124.931 126.164 126.29C132.03 124.255 138.02 123.479 144.01 124.808C140.319 127.634 125.956 131.113 121.489 130.176ZM133.268 136.136C132.861 134.6 133.076 133.571 134.875 132.918C137.959 131.804 141.204 130.76 143.887 128.955C148.47 125.868 152.66 126.451 157.335 128.602C164.363 131.835 171.507 134.861 179.004 136.927C180.457 137.326 181.495 138.278 182.371 139.661C187.615 147.94 189.63 156.756 187.354 166.403C182.871 164.628 178.435 161.702 173.721 165.274C170 168.092 171.084 172.063 171.953 175.841C173.521 178.591 175.097 181.332 176.666 184.082C157.405 177.984 136.644 159.037 133.268 136.136ZM179.926 182.446C177.958 180.403 176.781 177.838 175.443 175.411C173.99 172.777 172.914 169.935 175.705 167.393C177.289 165.949 182.656 166.172 184.701 167.946C186.154 169.213 187.569 170.358 189.561 170.842C192.483 159.498 191.891 148.731 184.778 138.877C194.859 139.745 197.281 141.926 198.772 151.956C198.942 153.07 199.372 153.999 199.557 155.013C199.857 156.68 200.441 158.415 199.065 160.067C191.675 168.968 191.383 171.832 196.689 181.302L196.819 181.386L196.719 181.332C193.029 180.434 189.838 178.337 186.324 177.016C186.024 177.308 185.724 177.6 185.432 177.892C193.236 184.343 202.148 185.802 212.028 184.581C225.046 182.968 235.527 176.778 243.431 166.886C248.375 160.704 251.151 152.909 252.435 144.929C254.38 132.879 254.703 120.868 250.444 109.11C249.836 107.428 248.021 106.161 248.621 103.212C252.881 109.271 256.372 114.877 257.648 121.605C259.817 133.041 260.178 144.422 256.057 155.535C253.904 161.349 250.544 166.241 245.945 170.696C242.708 173.829 240.386 178.038 236.703 180.987C230.598 185.887 224.416 190.856 216.58 192.438C202.809 195.233 190.161 193.067 179.926 182.446ZM8.58855 105.946C4.81317 99.9476 6.4279 96.4225 13.3097 94.5178C24.0207 91.5457 37.2768 98.1658 41.5366 108.58C41.8673 109.386 42.3901 110.116 42.8207 110.884C45.7734 116.268 45.5888 116.813 39.945 118.318C31.0332 120.691 22.9442 124.708 15.332 130.79C15.6472 127.872 15.8933 125.514 16.147 123.164C15.1167 116.767 11.9949 111.345 8.58855 105.946ZM144.395 261.043C143.71 263.293 143.803 265.674 142.941 267.94C142.38 269.422 141.711 269.599 140.473 269.353C130.608 274.13 120.281 277.102 109.247 277.194C107.748 277.209 106.187 277.409 104.757 276.656C104.119 276.557 103.296 276.449 103.165 277.202C102.919 278.607 104.38 278.431 104.988 278.5C108.648 278.907 111.877 280.089 114.299 282.977C115.045 283.868 116.614 284.59 115.522 286.087C114.691 287.232 113.377 287.27 112.046 286.955C109.417 286.333 107.102 285.074 104.903 283.538C103.996 282.908 103.012 281.741 101.881 282.624C100.574 283.638 101.973 284.644 102.358 285.611C102.727 286.548 103.173 287.462 103.588 288.392C104.08 290.926 102.489 291.164 100.728 290.719C98.7133 290.204 96.691 289.513 95.6145 287.447C94.0075 286.487 93.1847 284.851 92.139 283.415C91.547 282.601 90.8857 282.086 89.8861 282.601C88.8173 283.146 89.3632 283.922 89.8323 284.475C90.778 285.604 90.3013 286.986 89.6862 287.585C88.8404 288.407 87.6101 287.639 86.5567 287.086C82.4507 284.928 79.8748 281.303 77.1298 277.693C78.0525 277.087 79.5057 278.016 79.8056 276.818C80.1516 275.42 78.6292 275.297 77.8141 274.99C71.2706 272.509 64.7041 270.09 58.7527 266.319C46.104 258.309 36.9385 246.843 27.65 235.438C29.2801 234.386 31.5715 236.836 32.2558 234.624C33.0247 232.128 30.1105 232.266 28.7726 231.429C23.4517 228.088 19.1535 223.787 16.1778 218.296C6.84311 201.055 2.6602 182.484 4.83624 163.139C7.3506 140.797 18.2154 128.609 42.344 122.258C48.2108 120.714 54.1469 119.086 60.3674 119.724C67.5952 120.469 70.3249 122.719 72.3779 129.585C72.5163 130.038 72.9776 130.399 73.2929 130.806C75.4535 133.056 74.6615 136.005 75.1383 138.655C75.3459 139.784 74.5847 140.191 73.4774 140.037C65.4192 138.908 58.4374 142.51 51.225 145.114C49.9563 146.926 47.019 146.22 45.7042 148.884C48.8336 148.692 51.2403 147.464 53.6855 146.481C59.9983 143.931 66.5033 142.479 73.2775 143.724C79.1059 144.791 83.0043 148.554 84.9804 153.999C86.8719 159.229 88.2022 164.644 86.5721 170.312C78.7214 167.531 64.7579 170.673 58.3682 177.231C63.9736 174.612 68.8639 173.169 73.9234 172.293C83.3657 170.657 89.617 174.689 92.3774 182.446C94.4842 188.383 95.2224 194.442 95.2839 200.655C95.307 202.829 94.3458 204.572 92.9387 206.123C89.9784 211.054 84.7344 211.569 79.8825 212.651C77.6911 213.143 75.3228 212.889 73.0391 212.874C71.8012 212.866 70.048 212.667 70.0096 211.369C69.9635 209.925 71.6935 209.825 72.9853 209.71C74.7461 209.556 76.4993 209.349 78.2524 209.165C81.082 208.143 83.6656 206.784 85.2803 204.011C82.1662 205.624 79.0444 206.976 75.3459 207.06C76.0148 205.801 76.5761 204.572 77.2989 203.443C78.0448 202.268 77.2144 201.761 76.4608 201.377C75.3689 200.824 75.4458 201.8 75.0921 202.468C73.6081 205.286 70.94 206.914 68.2642 208.32C61.49 211.883 54.3622 214.433 46.6269 214.94C44.8276 215.055 43.1667 215.562 41.2444 217.175C44.297 217.613 46.9805 216.783 49.5026 217.659C48.8721 219.748 46.0655 219.118 45.2582 221.053C47.1343 221.683 48.9105 220.969 49.8794 219.809C53.847 215.063 60.0675 215.977 64.8963 213.489C65.5191 213.166 65.8959 213.074 66.4572 213.719C69.8327 217.559 74.3386 217.298 78.7983 216.829C81.1358 216.584 82.4737 216.806 83.704 219.402C87.8023 228.05 92.708 236.244 100.174 242.55C100.805 243.08 101.297 243.947 102.373 243.525C103.434 243.103 101.535 242.212 101.858 241.121C117.244 244.339 131.354 239.132 145.525 234.248C149.523 232.466 153.529 230.684 157.566 228.879C156.551 235.415 154.583 241.344 150.431 246.367L144.395 261.043ZM160.903 338.934C160.903 338.903 161.019 338.857 161.08 338.818C161.172 339.018 161.272 339.218 161.365 339.425C160.842 339.709 160.942 339.233 160.903 338.934ZM192.421 404.667C192.46 404.835 192.806 404.928 193.129 405.135C193.99 403.845 191.806 401.164 194.228 401.095C196.75 401.026 199.249 402.616 201.018 404.421C204.116 407.585 203.355 411.556 202.01 415.219C200.203 420.142 196.435 423.467 191.891 425.794C174.336 434.757 156.19 442.252 136.69 445.716C130.839 446.753 124.703 446.906 118.874 444.718C117.921 444.357 116.944 444.019 116.075 443.504C113.584 442.03 111.001 440.171 111.523 437.022C112.031 433.973 115.176 433.874 117.682 433.574C125.133 432.675 132.73 432.722 139.996 430.625C144.018 429.465 148.247 428.252 149.562 423.383C149.762 422.645 150 421.9 149.216 421.163C145.51 427.392 138.974 427.422 132.984 428.259C126.925 429.112 120.773 429.258 114.668 429.795C113.553 429.895 112.277 430.126 111.4 430.748C106.187 434.457 100.974 432.384 95.776 430.886C91.7161 429.719 90.5397 426.109 89.2248 422.684C88.702 421.309 89.5401 420.48 90.5474 419.842C92.1083 418.844 93.8153 418.537 95.676 418.905C105.603 420.871 115.46 419.788 125.41 418.721C130.323 418.199 134.752 416.655 139.243 415.096C141.265 414.389 143.272 413.022 144.587 410.296C140.496 411.287 136.605 411.709 133.161 413.184C127.348 415.672 121.235 415.173 115.245 415.826C112.077 416.163 108.848 416.01 105.649 415.925C104.257 415.887 102.827 415.657 101.512 415.219C98.7748 414.297 97.037 412.101 97.8213 409.405C98.5672 406.825 101.689 405.964 103.88 406.556C111.608 408.645 119.382 408.668 127.255 408.284C134.26 407.938 140.981 406.064 147.755 404.574C156.19 402.716 164.579 400.542 172.683 397.447C174.959 396.58 175.843 397.171 175.436 399.582C175.297 400.412 175.136 401.241 175.29 402.178C177.912 399.767 177.935 396.357 178.173 393.177C178.504 388.846 178.527 384.491 178.465 380.144C178.442 378.14 178.442 376.688 181.095 376.873C182.033 376.934 183.102 376.412 183.971 375.913C187.146 374.085 187.439 374.277 187.761 377.779C188.6 386.841 190.437 395.773 192.421 404.667ZM193.505 365.045C194.466 365.606 195.774 366.013 195.059 367.541C194.505 368.732 193.336 369.093 192.167 368.855C189.83 368.371 187.977 367.134 186.977 364.846C183.048 365.23 185.347 368.647 184.255 370.414C184.24 373.133 182.448 374.599 180.165 374.392C177.02 374.108 176.958 371.335 176.997 368.839C177.466 367.611 177.704 366.405 176.566 365.376C173.79 366.151 171.837 368.74 168.754 368.87C167.585 368.924 166.432 368.893 165.647 367.964C164.632 366.758 165.655 365.936 166.378 365.092C169.354 361.613 173.506 361.298 177.635 360.921C173.798 359.201 169.569 358.133 166.962 354.409C164.04 349.847 161.08 345.285 161.434 339.51C164.64 342.213 167.823 344.924 170.938 347.735C173.267 349.839 176.435 351.191 179.45 352.304C181.379 353.019 182.202 355.722 184.747 355.031C187.369 355.783 189.999 356.536 192.829 357.342C190.568 360.192 186.962 360.007 184.301 361.643C185.455 362.734 186.854 362.534 188.207 362.288C190.714 361.851 192.421 362.826 193.505 365.045ZM163.833 262.402C167.424 262.425 170.076 264.683 173.713 260.667C174.082 260.26 174.713 260.014 175.59 259.476C175.651 263.132 178.927 264.207 180.434 266.619L180.511 266.557C183.479 266.25 185.585 266.749 188.653 263.462C189.076 263.009 189.645 262.594 189.899 262.049C190.453 260.874 192.313 259.461 190.976 258.455C189.392 257.264 189.023 259.553 188.207 260.482C186.777 262.118 185.593 263.854 182.779 263.455C179.949 263.048 179.396 261.166 178.827 259.077C177.058 252.572 179.619 247.519 184.24 243.179C184.001 242.972 183.763 242.757 183.525 242.55C179.119 245 175.451 247.964 175.251 253.617C175.19 255.414 170.376 259.999 168.731 260.145C166.163 260.383 163.825 256.258 164.094 252.503C164.794 242.58 168.3 234.301 177.373 229.01C173.367 229.064 170.545 231.26 167.939 233.833C166.586 235.169 165.34 236.552 163.479 237.273C160.703 238.349 159.281 237.427 159.711 234.478C160.303 230.461 162.818 227.604 165.801 225.093C170.792 220.877 176.651 218.097 182.379 215.117C185.655 213.419 188.83 211.584 191.683 209.203C195.012 206.415 197.027 202.844 198.242 198.758C198.034 197.176 197.511 195.97 200.341 196.37C209.999 197.737 219.379 196.708 228.652 191.025C227.376 195.855 226.284 199.979 225.192 204.104C225.185 205.509 225.162 206.914 225.185 208.32C225.2 209.211 224.939 209.602 223.924 209.733C213.559 211.069 208.361 218.281 205.285 227.151C200.272 241.597 198.488 256.673 199.288 271.872C200.11 287.508 204.462 302.123 215.35 314.035C228.368 328.281 248.268 333.742 267.091 323.497C267.414 323.32 267.821 323.312 268.19 323.228C268.436 322.468 269.336 322.606 269.789 322.137C281.685 315.064 290.85 304.88 300.577 295.327C302.415 293.522 304.114 290.288 307.443 293.03C309.296 294.559 308.551 298.061 305.398 300.587C293.165 310.387 281.638 321.047 268.951 330.317C263.592 334.233 258.202 338.035 252.473 341.376C247.652 344.187 247.622 344.133 245.238 339.095C240.355 334.302 239.14 333.726 233.735 333.949C237.741 336.468 241.985 338.058 243.769 342.366C247.214 348.971 244.3 355.922 236.618 359.401C235.727 360.445 234.473 361.643 237.234 361.62C241.232 361.574 243.177 364.439 244.892 367.273C245.776 368.732 244.623 370.168 243.116 370.959C240.709 372.226 238.164 371.781 236.311 370.291C234.604 368.916 232.782 367.657 231.128 366.19C230.682 366.374 230.229 366.551 229.783 366.735C228.991 368.955 230.352 371.328 229.191 373.555C228.537 374.799 228.26 376.228 226.446 376.312C224.57 376.396 223.693 375.26 223.093 373.755C222.763 372.925 222.47 372.08 222.278 371.212C221.248 366.666 221.255 366.651 217.595 369.339C215.827 370.637 213.974 371.696 211.682 371.604C210.26 371.55 208.714 371.443 208.238 369.822C207.815 368.379 208.961 367.518 209.96 366.681C212.667 364.431 215.765 363.993 219.11 364.615C218.057 361.52 214.635 361.321 212.621 359.347C209.406 356.206 206.8 352.926 207.546 348.073C207.446 343.349 209.922 339.786 212.721 336.299C207.261 338.273 205.008 342.574 204.262 347.988C205.093 354.316 205.047 354.555 198.357 353.295C186.969 351.145 176.643 346.675 168.354 338.25C152.476 323.666 145.148 305.341 145.41 284.052C145.586 269.637 149.592 256.051 156.251 243.256C156.82 237.565 161.195 242.373 163.287 240.276C163.487 241.728 163.056 242.527 162.472 243.272L163.833 262.402ZM265.453 461.445C264.745 461.683 264.107 461.737 263.484 460.907C258.763 454.633 252.389 449.978 247.099 444.265C246.314 443.42 244.792 442.567 245.822 441.116C246.637 439.964 247.968 440.64 249.029 440.947C253.358 442.206 256.726 445.271 260.101 447.89C265.976 452.451 272.035 456.522 278.809 459.686C274.211 459.824 269.759 460.009 265.453 461.445ZM309.45 432.391C301.869 433.935 294.456 432.414 287.013 431.193C281.231 430.249 275.456 428.774 269.543 430.371C266.806 431.116 267.437 428.498 266.575 427.376C263.646 429.765 264.046 433.167 268.144 436.055C278.04 443.036 288.851 448.051 300.946 449.84C302.799 450.117 304.706 450.478 306.505 450.8C307.974 451.069 310.404 450.969 311.08 453.227H311.057C311.057 453.227 311.042 455.746 310.627 458.327C306.029 459.179 301.607 461.406 296.832 460.439C287.382 458.542 278.547 455.047 270.558 449.533C265.407 445.977 260.216 442.46 254.873 439.211C251.489 437.161 247.806 435.494 243.716 437.33C243.531 436.823 243.454 436.6 243.37 436.377C242.947 435.202 245.599 433.451 243.231 432.967C241.432 432.606 241.555 435.002 241.355 436.308C240.501 441.845 243.992 445.678 246.999 449.564C249.898 453.312 253.496 456.422 257.218 459.371C258.686 460.531 260.586 462.059 259.509 464.148C258.509 466.091 256.249 465.73 254.357 465.315C245.453 463.372 238.095 458.757 232.074 452.029C221.417 440.125 215.273 426.531 216.796 410.165C216.811 410.035 216.796 409.912 216.811 409.781C216.988 408.43 216.811 406.487 218.41 406.295C220.679 406.034 219.072 408.614 220.633 409.812C222.463 398.899 222.355 388.231 221.371 377.264C224.008 378.224 226.415 379.276 229.183 378.063C230.944 377.287 231.728 378.439 232.251 380.298C234.081 386.726 234.489 393.408 235.973 399.897C236.657 402.885 237.564 405.726 239.356 408.983C240.263 404.06 242.839 405.627 245.069 406.963C247.476 408.407 249.752 410.081 251.966 411.809C260.17 418.199 269.759 420.933 279.739 423.152C289.335 425.287 298.931 424.197 308.527 424.519C311.173 424.611 314.294 424.658 314.725 427.438C315.202 430.533 312.264 431.815 309.45 432.391ZM309.596 437.322C309.135 439.372 308.366 441.461 308.066 443.727C307.643 446.899 304.791 446.453 302.561 446.062C295.287 444.779 288.251 442.675 281.477 439.695C277.879 438.113 274.341 436.446 270.074 433.566C283.999 433.021 296.263 439.296 309.596 437.322Z" fill="#2C211C"/>
</g>
<defs>
<clipPath id="clip0">
<rect width="320" height="470" fill="white"/>
</clipPath>
</defs>
</svg>
