<svg width="113" height="23" viewBox="0 0 113 23" fill="none" xmlns="http://www.w3.org/2000/svg"><path d="M44.463 19h-3.848l-6.21-10.8h-.089c.124 1.907.186 3.267.186 4.081V19h-2.705V4.723h3.818l6.201 10.693h.069c-.098-1.856-.147-3.167-.147-3.936V4.723h2.725V19zM55.666 19l-.4-1.396h-.156c-.32.507-.772.901-1.358 1.181-.586.274-1.253.41-2.002.41-1.282 0-2.249-.341-2.9-1.025-.651-.69-.977-1.68-.977-2.969V8.082h2.979v6.377c0 .788.14 1.38.42 1.777.28.391.726.586 1.338.586.833 0 1.435-.276 1.806-.83.372-.56.557-1.484.557-2.773V8.082h2.979V19h-2.286zM64.155 19h-2.978V3.805h2.978V19zM70.368 19H67.39V3.805h2.978V19zM78.037 19.195c-3.399 0-5.098-1.865-5.098-5.595 0-1.856.462-3.272 1.387-4.248.924-.984 2.25-1.475 3.974-1.475 1.263 0 2.396.247 3.399.742l-.88 2.305a13.9 13.9 0 00-1.308-.46 4.113 4.113 0 00-1.21-.185c-1.55 0-2.325 1.1-2.325 3.301 0 2.136.775 3.203 2.324 3.203.573 0 1.104-.075 1.592-.224a5.877 5.877 0 001.465-.723v2.549a4.79 4.79 0 01-1.465.634c-.488.118-1.107.176-1.855.176zM90.93 19l-.577-1.484h-.078c-.5.631-1.019 1.07-1.552 1.318-.528.24-1.218.361-2.07.361-1.049 0-1.876-.3-2.481-.898-.6-.6-.899-1.452-.899-2.559 0-1.159.404-2.011 1.211-2.558.814-.554 2.038-.86 3.672-.918l1.895-.059v-.478c0-1.107-.567-1.66-1.7-1.66-.872 0-1.897.263-3.076.79l-.986-2.011c1.257-.658 2.65-.987 4.18-.987 1.465 0 2.588.32 3.369.957.781.638 1.172 1.608 1.172 2.91V19h-2.08zm-.88-5.059l-1.152.04c-.865.026-1.51.182-1.933.468-.423.287-.635.723-.635 1.309 0 .84.482 1.26 1.445 1.26.69 0 1.24-.199 1.65-.596.417-.397.626-.925.626-1.582v-.899zM103.803 15.758c0 1.12-.391 1.973-1.172 2.558-.774.586-1.937.88-3.486.88-.794 0-1.471-.056-2.031-.167a7.478 7.478 0 01-1.573-.468V16.1c.554.26 1.175.478 1.866.654.696.176 1.308.264 1.836.264 1.08 0 1.621-.313 1.621-.938a.767.767 0 00-.215-.566c-.143-.15-.391-.316-.742-.498-.352-.19-.82-.407-1.407-.655-.84-.351-1.458-.677-1.855-.976-.39-.3-.677-.642-.86-1.026-.175-.39-.263-.869-.263-1.435 0-.97.374-1.719 1.123-2.246.755-.534 1.823-.801 3.203-.801a9.08 9.08 0 013.838.86l-.899 2.148a16.336 16.336 0 00-1.533-.576 4.813 4.813 0 00-1.455-.225c-.879 0-1.318.238-1.318.713 0 .267.14.498.42.693.286.195.908.485 1.865.87.853.344 1.478.667 1.875.966.397.3.69.645.879 1.035.189.391.283.856.283 1.397zM110.827 16.822c.521 0 1.146-.114 1.875-.341v2.216c-.742.332-1.654.498-2.734.498-1.192 0-2.061-.3-2.608-.898-.54-.606-.81-1.51-.81-2.715v-5.264h-1.426v-1.26l1.64-.995.86-2.305h1.904v2.324h3.057v2.236h-3.057v5.264c0 .423.117.736.352.938.241.201.556.302.947.302z" fill="#262626"/><circle cx="11.5" cy="11.5" r="10.5" stroke="#FF590F" stroke-width="2"/><path stroke="#FF590F" stroke-width="2" d="M2.316 18.27l16-15"/></svg>