<svg width="14" height="14" viewBox="0 0 14 14" fill="none" xmlns="http://www.w3.org/2000/svg">
<g clip-path="url(#clip0)">
<path d="M11.0833 7.02705C10.7607 7.02705 10.5 7.28842 10.5 7.61035V12.2771C10.5 12.5984 10.2386 12.8603 9.9167 12.8603H1.75C1.42796 12.8603 1.1667 12.5984 1.1667 12.2771V4.11035C1.1667 3.78896 1.42796 3.52705 1.75 3.52705H6.4167C6.73927 3.52705 7 3.26569 7 2.94376C7 2.62172 6.73927 2.36035 6.4167 2.36035H1.75C0.785172 2.36035 0 3.14552 0 4.11035V12.2771C0 13.2419 0.785172 14.0271 1.75 14.0271H9.9167C10.8815 14.0271 11.6667 13.2419 11.6667 12.2771V7.61035C11.6667 7.28778 11.4059 7.02705 11.0833 7.02705Z" fill="#555555"/>
<path d="M5.46916 6.4957C5.42836 6.5365 5.40091 6.58841 5.38927 6.64438L4.97687 8.70712C4.95764 8.80272 4.98798 8.90131 5.05676 8.97073C5.1122 9.02617 5.18686 9.05586 5.26334 9.05586C5.28192 9.05586 5.30126 9.05415 5.32048 9.05009L7.38259 8.63769C7.43973 8.62595 7.49164 8.5986 7.53191 8.55769L12.1472 3.94237L10.0851 1.88037L5.46916 6.4957Z" fill="#555555"/>
<path d="M13.573 0.453922C13.0043 -0.114849 12.0791 -0.114849 11.5109 0.453922L10.7036 1.2612L12.7657 3.32331L13.573 2.51592C13.8483 2.2412 14 1.87484 14 1.48519C14 1.09554 13.8483 0.729176 13.573 0.453922Z" fill="#555555"/>
</g>
<defs>
<clipPath id="clip0">
<rect width="14" height="14" fill="white"/>
</clipPath>
</defs>
</svg>
