<svg width="268" height="268" viewBox="0 0 268 268" fill="none" xmlns="http://www.w3.org/2000/svg"><path d="M134.131 257.673c68.295 0 123.66-55.358 123.66-123.647 0-68.288-55.365-123.647-123.66-123.647-68.296 0-123.66 55.359-123.66 123.647 0 68.289 55.364 123.647 123.66 123.647z" fill="#F9F9F9"/><path d="M134.131 257.673c68.295 0 123.66-55.358 123.66-123.647 0-68.288-55.365-123.647-123.66-123.647-68.296 0-123.66 55.359-123.66 123.647 0 68.289 55.364 123.647 123.66 123.647z" stroke="#fff" stroke-width="19" stroke-miterlimit="10" stroke-linecap="round" stroke-linejoin="round"/><path d="M134.131 257.673c68.295 0 123.66-55.358 123.66-123.647 0-68.288-55.365-123.647-123.66-123.647-68.296 0-123.66 55.359-123.66 123.647 0 68.289 55.364 123.647 123.66 123.647z" fill="#135FD1"/><g clip-path="url(#clip0)"><path d="M220 87.15c-6.099 2.675-12.597 4.448-19.373 5.31 6.97-4.162 12.29-10.702 14.791-18.584-6.498 3.874-13.673 6.611-21.32 8.138-6.17-6.57-14.965-10.639-24.559-10.639-18.614 0-33.599 15.109-33.599 33.63 0 2.665.225 5.228.779 7.667-27.952-1.363-52.685-14.76-69.3-35.168-2.901 5.033-4.603 10.794-4.603 16.995 0 11.644 5.996 21.966 14.934 27.941-5.401-.102-10.7-1.67-15.19-4.14v.368c0 16.339 11.654 29.91 26.937 33.036-2.737.748-5.72 1.107-8.815 1.107-2.153 0-4.326-.123-6.365-.574 4.356 13.315 16.718 23.104 31.416 23.421a67.552 67.552 0 01-41.687 14.34c-2.757 0-5.402-.123-8.046-.461 14.893 9.604 32.544 15.088 51.578 15.088 61.869 0 95.694-51.25 95.694-95.674a85.43 85.43 0 00-.123-4.345c6.673-4.736 12.279-10.65 16.851-17.456z" fill="#fff"/></g><defs><clipPath id="clip0"><path fill="#fff" transform="translate(56 56)" d="M0 0h164v164H0z"/></clipPath></defs></svg>