<svg version="1.2" baseProfile="tiny-ps" xmlns="http://www.w3.org/2000/svg" viewBox="0 0 96 96" width="96" height="96">
	<title>Group 780-svg</title>
	<style>
		tspan { white-space:pre }
		.shp0 { fill: #c7defe } 
		.shp1 { fill: #86b2f0 } 
	</style>
	<path id="Layer" class="shp0" d="M48 96C21.46 96 0 74.54 0 48C0 21.46 21.46 0 48 0C74.54 0 96 21.46 96 48C96 74.54 74.54 96 48 96Z" />
	<path id="Layer" fill-rule="evenodd" class="shp1" d="M46.29 23.13C43.53 23.56 41.08 24.84 39.15 26.87C37.03 29.09 35.94 31.66 35.79 34.74C35.58 39.05 37.71 43.17 41.4 45.55C43.21 46.72 44.96 47.32 47.07 47.49C51 47.79 54.34 46.57 57.04 43.85C59.18 41.7 60.27 39.35 60.54 36.35C60.89 32.34 59.37 28.61 56.31 26C54.34 24.32 52.52 23.49 50.01 23.13C48.81 22.96 47.39 22.96 46.29 23.13ZM37.13 47.71C32.58 48.19 29.42 51.42 27.95 57.12C26.97 60.92 26.71 65.49 27.35 67.98C27.86 69.99 29.54 72.02 31.48 72.99C32.36 73.43 33.62 73.8 34.68 73.92C35.3 73.99 40.06 74.01 49.16 73.99L62.71 73.96L63.57 73.73C66.75 72.86 68.93 70.76 69.72 67.78C70.13 66.23 70.08 62.55 69.6 59.64C68.54 53.16 65.86 49.27 61.62 48.06C60.65 47.78 58.92 47.57 58.41 47.67C57.91 47.76 57.23 48.12 55.68 49.11C54.02 50.16 53.79 50.28 52.56 50.74C51.12 51.27 49.94 51.49 48.57 51.49C47.15 51.49 46.06 51.3 44.63 50.8C43.28 50.32 43.22 50.29 41.11 48.96C40 48.26 39.17 47.82 38.85 47.73C38.29 47.59 38.29 47.59 37.13 47.71Z" />
</svg>