<svg width="214" height="110" viewBox="0 0 214 110" fill="none" xmlns="http://www.w3.org/2000/svg">
<path d="M16.2517 109.946C16.2517 109.946 -8.18004 83.7505 12.1195 55.391C30.1318 30.2284 51.1317 31.9478 66.5388 42.1591C73.101 46.5083 92.0203 42.6955 108.123 17.091C130.083 -17.8253 206.203 3.35196 192.324 57.0718C185.607 83.0684 212.765 84.0136 198.927 110L16.2517 109.946Z" fill="#EBF3FA"/>
<path d="M63.1718 59.3044C63.1718 59.3044 51.0853 42.1242 46.3616 44.3516C41.6379 46.5782 63.1718 59.3044 63.1718 59.3044Z" fill="#A8D29F"/>
<path d="M62.4026 54.6874C62.4026 54.6874 60.5561 41.7698 57.6457 42.2762C54.7353 42.7835 62.4026 54.6874 62.4026 54.6874Z" fill="#A8D29F"/>
<path d="M52.1837 94.9504C52.1837 94.9504 53.3456 89.2024 48.834 88.4801C48.834 88.4801 45.7737 88.3738 43.9723 89.5261C43.9723 89.5261 49.0896 92.4765 48.4807 93.3933C47.8718 94.31 43.0163 89.6954 43.0163 89.6954C43.0163 89.6954 37.5307 92.0945 36.3066 93.8319C36.3066 93.8319 42.7892 94.985 41.9728 95.7246C41.1573 96.4634 34.3561 95.5765 34.3561 95.5765C34.3561 95.5765 29.9731 99.1019 31.8818 101.908C33.7906 104.714 35.969 104.695 36.6592 104.206C37.3485 103.719 40.7243 99.6894 41.1534 100.238C41.5824 100.786 40.0972 104.187 38.34 105.289C38.34 105.289 43.8587 107.144 45.5206 104.792C47.1824 102.441 46.4142 100.613 47.4679 99.1783C48.5217 97.744 49.73 97.0714 49.5139 98.0559C49.2978 99.0396 47.0956 101.108 47.0862 102.988C47.0767 104.868 46.8898 106.237 49.0407 104.574C51.1915 102.912 54.0475 99.0672 53.116 97.0092C52.1837 94.9504 52.1837 94.9504 52.1837 94.9504Z" fill="#82B378"/>
<path d="M34.3057 100.659C34.3057 100.659 47.177 92.8146 52.1838 94.9506C52.1838 94.9506 53.9017 96.5132 56.857 97.1606L57.6347 97.827C57.6347 97.827 54.0129 96.6983 53.1153 97.0086C53.1153 97.0078 51.7871 91.6419 34.3057 100.659Z" fill="#82B378"/>
<path d="M56.8571 97.1596C56.8571 97.1596 60.8473 97.6691 63.1275 101.286L62.6409 101.617C62.6409 101.617 59.5837 98.2685 57.1111 97.6707C54.6384 97.0737 56.8571 97.1596 56.8571 97.1596Z" fill="#82B378"/>
<path d="M56.1236 78.1789C56.1236 78.1789 65.47 72.9523 61.1083 65.8591C61.1083 65.8591 57.619 61.5036 53.8804 60.3836C53.8804 60.3836 55.8743 70.9612 53.8804 71.2101C51.8865 71.459 52.5096 59.2636 52.5096 59.2636C52.5096 59.2636 42.6647 54.5348 38.8015 54.9081C38.8015 54.9081 44.9078 65.2368 42.9139 64.988C40.92 64.7391 34.0659 54.2859 34.0659 54.2859C34.0659 54.2859 23.9718 52.4193 22.3517 58.3925C20.7317 64.3657 23.3487 67.3524 24.8441 67.7257C26.3395 68.099 35.9352 67.9746 35.686 69.219C35.4367 70.4634 28.9565 72.4545 25.3426 71.3345C25.3426 71.3345 29.3304 81.1655 34.5644 80.6677C39.7984 80.1699 41.4185 76.9344 44.6586 76.6856C47.8987 76.4367 50.2665 77.3078 48.6464 78.1789C47.0263 79.05 41.5431 78.464 38.9261 80.6858C36.3091 82.9077 34.1905 84.2766 39.0507 85.2721C43.9109 86.2676 52.6342 85.6454 54.3789 81.9121C56.1236 78.1789 56.1236 78.1789 56.1236 78.1789Z" fill="#A8D29F"/>
<path d="M26.9626 60.2588C26.9626 60.2588 53.1327 68.7209 56.1235 78.1785C56.1235 78.1785 55.9989 82.4096 58.6159 87.2628V89.1295C58.6159 89.1295 55.8743 82.7829 54.3789 81.9118C54.3789 81.9118 60.236 73.6986 26.9626 60.2588Z" fill="#82B378"/>
<path d="M58.6161 87.2633C58.6161 87.2633 62.652 93.383 60.3513 100.833L59.3133 100.554C59.3133 100.554 60.3213 92.3489 58.2099 88.2218C56.0977 84.0955 58.6161 87.2633 58.6161 87.2633Z" fill="#82B378"/>
<path d="M65.6231 34.4482L51.6389 106.642C51.3542 108.11 52.4813 109.474 53.9791 109.474H61.3545L65.6231 34.4482Z" fill="#ED7D2B"/>
<path d="M158.579 55.1151C158.579 55.1151 152.289 51.1085 155.606 46.3497C155.606 46.3497 158.206 43.46 160.851 42.8307C160.851 42.8307 159.042 50.1066 160.418 50.3587C161.794 50.6115 161.849 42.1061 161.849 42.1061C161.849 42.1061 168.883 39.21 171.555 39.6235C171.555 39.6235 166.896 46.5624 168.292 46.4686C169.689 46.3749 174.872 39.3793 174.872 39.3793C174.872 39.3793 181.966 38.4838 182.854 42.7023C183.741 46.9207 181.803 48.8929 180.748 49.093C179.694 49.293 173.026 48.8236 173.15 49.6994C173.273 50.5745 177.7 52.2174 180.258 51.5826C180.258 51.5826 177.092 58.26 173.472 57.7047C169.853 57.1502 168.855 54.8355 166.613 54.533C164.369 54.2306 162.688 54.7425 163.78 55.4128C164.872 56.083 168.708 55.8948 170.439 57.5433C172.171 59.1925 173.589 60.229 170.17 60.7276C166.751 61.2261 160.709 60.4456 159.646 57.7803C158.579 55.1151 158.579 55.1151 158.579 55.1151Z" fill="#C7DCFB"/>
<path d="M179.573 43.8164C179.573 43.8164 161.037 48.6579 158.58 55.1147C158.58 55.1147 158.498 58.0619 156.483 61.3321L156.408 62.6301C156.408 62.6301 158.569 58.3258 159.643 57.78C159.644 57.78 155.899 51.8359 179.573 43.8164Z" fill="#C7DCFB"/>
<path d="M156.483 61.3318C156.483 61.3318 153.432 65.4265 154.734 70.6988L155.467 70.5468C155.467 70.5468 155.094 64.8012 156.728 62.0154C158.361 59.2296 156.483 61.3318 156.483 61.3318Z" fill="#C7DCFB"/>
<path d="M141.643 37.7236C141.643 37.7236 131.979 35.6042 133.931 28.1668C133.931 28.1668 135.847 23.3828 138.851 21.3925C138.851 21.3925 139.927 31.2763 141.756 30.9628C143.585 30.6493 139.762 20.0355 139.762 20.0355C139.762 20.0355 147.196 13.2211 150.712 12.5169C150.712 12.5169 148.085 23.2812 149.781 22.5275C151.477 21.7737 154.73 10.6991 154.73 10.6991C154.73 10.6991 163.152 6.34837 166.187 11.1945C169.222 16.0415 167.71 19.3818 166.489 20.1119C165.267 20.842 156.751 23.2993 157.305 24.3327C157.86 25.366 164.122 25.392 167.016 23.4348C167.016 23.4348 166.129 33.1925 161.369 34.1526C156.609 35.1135 154.308 32.6869 151.377 33.3335C148.446 33.9801 146.587 35.3844 148.253 35.7208C149.919 36.0571 154.609 34.0723 157.518 35.3364C160.428 36.5997 162.668 37.2432 158.639 39.4241C154.61 41.605 146.732 43.3889 144.188 40.5559C141.643 37.7236 141.643 37.7236 141.643 37.7236Z" fill="#DFEBFD"/>
<path d="M162.613 14.0801C162.613 14.0801 141.749 28.5635 141.644 37.7242C141.644 37.7242 142.889 41.4307 141.878 46.4217L142.379 48.0718C142.379 48.0718 143.099 41.7276 144.187 40.558C144.188 40.5572 136.806 34.8643 162.613 14.0801Z" fill="#DFEBFD"/>
<path d="M141.879 46.4206C141.879 46.4206 139.953 52.9106 143.986 58.8799L144.829 58.3561C144.829 58.3561 141.737 51.3724 142.495 47.1594C143.254 42.9465 141.879 46.4206 141.879 46.4206Z" fill="#DFEBFD"/>
<path d="M65.791 34.1572L56.5218 105.04C56.2142 107.39 58.0472 109.474 60.4205 109.474H74.0182L66.3517 33.9004L65.791 34.1572Z" fill="#78ACEA"/>
<path d="M65.7912 34.1562L61.6417 104.588C61.4855 107.239 63.5962 109.474 66.2558 109.474H86.5356L65.7912 34.1562Z" fill="#699DEE"/>
<path d="M65.6355 34.7314L67.6531 104.588C67.4969 107.239 69.6075 109.474 72.2671 109.474H92.547L65.6355 34.7314Z" fill="#5288D8"/>
<path d="M162.731 109.475H82.7694C80.7731 109.475 79.0616 108.05 78.7027 106.089L66.535 39.6447C65.9829 36.6281 68.3025 33.8486 71.3738 33.8486H150.394C152.39 33.8486 154.101 35.2734 154.46 37.2346L166.797 104.604C167.261 107.14 165.312 109.475 162.731 109.475Z" fill="#D7E9FF"/>
<path d="M68.1179 48.2737H156.538L154.271 35.7287C154.074 34.6402 153.126 33.8486 152.018 33.8486H66.3732C65.9055 33.8486 65.5514 34.2724 65.6358 34.7315L68.1179 48.2737Z" fill="#F99746"/>
<path d="M70.1853 30.0713C68.0715 30.0713 66.3521 31.7875 66.3521 33.8983H67.0887C67.0887 32.1931 68.4777 30.8053 70.1861 30.8053C71.8945 30.8053 73.2842 32.1923 73.2842 33.8983C73.2842 34.2409 73.2282 34.5701 73.1249 34.8773C72.8205 35.7862 72.1051 36.5084 71.1988 36.8211C70.9338 36.9125 70.6538 36.9707 70.3628 36.9865V37.7221C70.7027 37.7072 71.0308 37.6473 71.3424 37.5489C72.5854 37.1558 73.5571 36.1445 73.8931 34.8781C73.976 34.5654 74.0201 34.237 74.0201 33.8991C74.0193 31.7875 72.2991 30.0713 70.1853 30.0713Z" fill="#78ACEA"/>
<path d="M71.3707 37.3278C71.3707 37.4042 71.3596 37.479 71.3407 37.5491C71.2437 37.8996 70.9219 38.1571 70.5402 38.1571C70.0819 38.1571 69.7104 37.7862 69.7104 37.3286C69.7104 36.871 70.0819 36.5 70.5402 36.5C70.8075 36.5 71.045 36.6268 71.1972 36.8229C71.3068 36.9623 71.3707 37.1372 71.3707 37.3278Z" fill="#78ACEA"/>
<path d="M83.9297 30.0713C81.8159 30.0713 80.0964 31.7875 80.0964 33.8983H80.8323C80.8323 32.1931 82.2221 30.8053 83.9305 30.8053C85.6381 30.8053 87.0278 32.1923 87.0278 33.8983C87.0278 34.2409 86.9718 34.5701 86.8685 34.8773C86.564 35.7862 85.8486 36.5084 84.944 36.8211C84.679 36.9125 84.3982 36.9707 84.1063 36.9865V37.7221C84.4463 37.7072 84.7744 37.6473 85.0859 37.5489C86.3306 37.1558 87.3015 36.1445 87.6375 34.8781C87.7203 34.5654 87.7645 34.237 87.7645 33.8991C87.7629 31.7875 86.0435 30.0713 83.9297 30.0713Z" fill="#78ACEA"/>
<path d="M85.1141 37.3278C85.1141 37.4042 85.1031 37.479 85.0842 37.5491C84.9871 37.8996 84.6661 38.1571 84.2836 38.1571C83.8253 38.1571 83.4539 37.7862 83.4539 37.3286C83.4539 36.871 83.8253 36.5 84.2836 36.5C84.5518 36.5 84.79 36.6268 84.9414 36.8229C85.0502 36.9623 85.1141 37.1372 85.1141 37.3278Z" fill="#78ACEA"/>
<path d="M97.6733 30.0713C95.5595 30.0713 93.8401 31.7875 93.8401 33.8983H94.576C94.576 32.1931 95.9649 30.8053 97.6741 30.8053C99.3817 30.8053 100.771 32.1923 100.771 33.8983C100.771 34.2409 100.715 34.5701 100.612 34.8773C100.308 35.7862 99.5923 36.5084 98.6876 36.8211C98.4226 36.9125 98.1418 36.9707 97.85 36.9865V37.7221C98.1891 37.7072 98.5181 37.6473 98.8296 37.5489C100.074 37.155 101.044 36.1445 101.38 34.8781C101.463 34.5654 101.507 34.237 101.507 33.8991C101.507 31.7875 99.7863 30.0713 97.6733 30.0713Z" fill="#78ACEA"/>
<path d="M98.8588 37.3278C98.8588 37.4042 98.8477 37.479 98.8288 37.5491C98.7318 37.8996 98.41 38.1571 98.0282 38.1571C97.57 38.1571 97.1985 37.7862 97.1985 37.3286C97.1985 36.871 97.57 36.5 98.0282 36.5C98.2956 36.5 98.533 36.6268 98.686 36.8229C98.7949 36.9623 98.8588 37.1372 98.8588 37.3278Z" fill="#78ACEA"/>
<path d="M111.417 30.0713C109.303 30.0713 107.585 31.7875 107.585 33.8983H108.321C108.321 32.1931 109.71 30.8053 111.418 30.8053C113.126 30.8053 114.516 32.1923 114.516 33.8983C114.516 34.2409 114.46 34.5701 114.357 34.8773C114.052 35.7862 113.337 36.5084 112.431 36.8211C112.166 36.9125 111.886 36.9707 111.595 36.9865V37.7221C111.934 37.7072 112.263 37.6473 112.574 37.5489C113.819 37.155 114.789 36.1445 115.125 34.8781C115.208 34.5654 115.252 34.237 115.252 33.8991C115.25 31.7875 113.531 30.0713 111.417 30.0713Z" fill="#78ACEA"/>
<path d="M112.603 37.3278C112.603 37.4042 112.592 37.479 112.573 37.5491C112.476 37.8996 112.154 38.1571 111.772 38.1571C111.314 38.1571 110.942 37.7862 110.942 37.3286C110.942 36.871 111.314 36.5 111.772 36.5C112.04 36.5 112.277 36.6268 112.429 36.8229C112.539 36.9623 112.603 37.1372 112.603 37.3278Z" fill="#78ACEA"/>
<path d="M125.161 30.0713C123.047 30.0713 121.328 31.7875 121.328 33.8983H122.064C122.064 32.1931 123.454 30.8053 125.162 30.8053C126.869 30.8053 128.259 32.1923 128.259 33.8983C128.259 34.2409 128.203 34.5701 128.1 34.8773C127.795 35.7862 127.08 36.5084 126.174 36.8211C125.91 36.9125 125.629 36.9707 125.338 36.9865V37.7221C125.679 37.7072 126.006 37.6473 126.317 37.5489C127.562 37.1558 128.533 36.1445 128.869 34.8781C128.952 34.5654 128.996 34.237 128.996 33.8991C128.994 31.7875 127.275 30.0713 125.161 30.0713Z" fill="#78ACEA"/>
<path d="M126.346 37.3278C126.346 37.4042 126.335 37.479 126.316 37.5491C126.219 37.8996 125.898 38.1571 125.515 38.1571C125.057 38.1571 124.686 37.7862 124.686 37.3286C124.686 36.871 125.057 36.5 125.515 36.5C125.783 36.5 126.022 36.6268 126.172 36.8229C126.282 36.9623 126.346 37.1372 126.346 37.3278Z" fill="#78ACEA"/>
<path d="M138.905 30.0713C136.791 30.0713 135.071 31.7875 135.071 33.8983H135.807C135.807 32.1931 137.196 30.8053 138.905 30.8053C140.613 30.8053 142.003 32.1923 142.003 33.8983C142.003 34.2409 141.947 34.5701 141.843 34.8773C141.539 35.7862 140.823 36.5084 139.917 36.8211C139.654 36.9125 139.372 36.9707 139.081 36.9865V37.7221C139.421 37.7072 139.749 37.6473 140.061 37.5489C141.304 37.1558 142.276 36.1445 142.612 34.8781C142.694 34.5654 142.739 34.237 142.739 33.8991C142.737 31.7875 141.018 30.0713 138.905 30.0713Z" fill="#78ACEA"/>
<path d="M140.089 37.3278C140.089 37.4042 140.078 37.479 140.059 37.5491C139.962 37.8996 139.64 38.1571 139.259 38.1571C138.8 38.1571 138.429 37.7862 138.429 37.3286C138.429 36.871 138.8 36.5 139.259 36.5C139.526 36.5 139.763 36.6268 139.916 36.8229C140.025 36.9623 140.089 37.1372 140.089 37.3278Z" fill="#78ACEA"/>
<path d="M152.648 30.0713C150.535 30.0713 148.816 31.7875 148.816 33.8983H149.552C149.552 32.1931 150.941 30.8053 152.649 30.8053C154.357 30.8053 155.747 32.1923 155.747 33.8983C155.747 34.2409 155.691 34.5701 155.588 34.8773C155.284 35.7862 154.568 36.5084 153.662 36.8211C153.397 36.9125 153.117 36.9707 152.826 36.9865V37.7221C153.166 37.7072 153.494 37.6473 153.805 37.5489C155.048 37.1558 156.02 36.1445 156.356 34.8781C156.439 34.5654 156.483 34.237 156.483 33.8991C156.482 31.7875 154.762 30.0713 152.648 30.0713Z" fill="#78ACEA"/>
<path d="M153.834 37.3278C153.834 37.4042 153.823 37.479 153.804 37.5491C153.707 37.8996 153.385 38.1571 153.003 38.1571C152.545 38.1571 152.174 37.7862 152.174 37.3286C152.174 36.871 152.545 36.5 153.003 36.5C153.271 36.5 153.508 36.6268 153.66 36.8229C153.77 36.9623 153.834 37.1372 153.834 37.3278Z" fill="#78ACEA"/>
<path d="M119.25 71.8405H114.781C114.264 71.8405 113.759 71.4183 113.66 70.9024L112.798 66.439C112.698 65.9231 113.039 65.501 113.556 65.501H118.025C118.542 65.501 119.047 65.9231 119.146 66.439L120.008 70.9024C120.109 71.4183 119.767 71.8405 119.25 71.8405Z" fill="#AFCDFB"/>
<path d="M130.529 71.8405H126.06C125.543 71.8405 125.038 71.4183 124.939 70.9024L124.077 66.439C123.977 65.9231 124.318 65.501 124.835 65.501H129.304C129.821 65.501 130.326 65.9231 130.425 66.439L131.287 70.9024C131.388 71.4183 131.046 71.8405 130.529 71.8405Z" fill="#AFCDFB"/>
<path d="M141.808 71.8405H137.338C136.822 71.8405 136.317 71.4183 136.217 70.9024L135.355 66.439C135.256 65.9231 135.597 65.501 136.113 65.501H140.583C141.1 65.501 141.605 65.9231 141.704 66.439L142.566 70.9024C142.666 71.4183 142.325 71.8405 141.808 71.8405Z" fill="#78ACEA"/>
<path d="M85.4132 71.8405H80.9435C80.4268 71.8405 79.922 71.4183 79.8227 70.9024L78.9606 66.439C78.8612 65.9231 79.2019 65.501 79.7186 65.501H84.1883C84.7049 65.501 85.2097 65.9231 85.3091 66.439L86.1711 70.9024C86.2713 71.4183 85.9298 71.8405 85.4132 71.8405Z" fill="#AFCDFB"/>
<path d="M80.5142 58.4402H78.5936C78.3712 58.4402 78.1551 58.259 78.1117 58.0369L77.741 56.1191C77.6984 55.897 77.8451 55.7158 78.0668 55.7158H79.9874C80.2098 55.7158 80.4259 55.897 80.4693 56.1191L80.84 58.0369C80.8834 58.259 80.7367 58.4402 80.5142 58.4402Z" fill="#F99746"/>
<path d="M96.692 71.8405H92.2223C91.7057 71.8405 91.2017 71.4183 91.1015 70.9024L90.2394 66.439C90.14 65.9231 90.4808 65.501 90.9974 65.501H95.4671C95.9837 65.501 96.4885 65.9231 96.5879 66.439L97.45 70.9024C97.5501 71.4183 97.2094 71.8405 96.692 71.8405Z" fill="#AFCDFB"/>
<path d="M107.972 71.8405H103.502C102.985 71.8405 102.481 71.4183 102.381 70.9024L101.519 66.439C101.42 65.9231 101.761 65.501 102.277 65.501H106.747C107.264 65.501 107.768 65.9231 107.868 66.439L108.73 70.9024C108.829 71.4183 108.488 71.8405 107.972 71.8405Z" fill="#AFCDFB"/>
<path d="M153.087 71.8405H148.617C148.1 71.8405 147.596 71.4183 147.496 70.9024L146.634 66.439C146.535 65.9231 146.876 65.501 147.392 65.501H151.862C152.379 65.501 152.883 65.9231 152.983 66.439L153.845 70.9024C153.945 71.4183 153.603 71.8405 153.087 71.8405Z" fill="#78ACEA"/>
<path d="M117.378 62.1471H112.908C112.392 62.1471 111.887 61.7249 111.788 61.2091L110.925 56.7457C110.826 56.2298 111.167 55.8076 111.683 55.8076H116.153C116.67 55.8076 117.175 56.2298 117.274 56.7457L118.136 61.2091C118.235 61.7249 117.895 62.1471 117.378 62.1471Z" fill="#AFCDFB"/>
<path d="M128.657 62.1471H124.187C123.67 62.1471 123.166 61.7249 123.066 61.2091L122.204 56.7457C122.105 56.2298 122.446 55.8076 122.962 55.8076H127.432C127.949 55.8076 128.453 56.2298 128.553 56.7457L129.415 61.2091C129.514 61.7249 129.173 62.1471 128.657 62.1471Z" fill="#AFCDFB"/>
<path d="M139.936 62.1471H135.466C134.949 62.1471 134.445 61.7249 134.345 61.2091L133.483 56.7457C133.384 56.2298 133.724 55.8076 134.241 55.8076H138.711C139.227 55.8076 139.732 56.2298 139.832 56.7457L140.694 61.2091C140.794 61.7249 140.452 62.1471 139.936 62.1471Z" fill="#78ACEA"/>
<path d="M151.214 62.1471H146.745C146.228 62.1471 145.723 61.7249 145.624 61.2091L144.762 56.7457C144.662 56.2298 145.003 55.8076 145.52 55.8076H149.99C150.506 55.8076 151.011 56.2298 151.11 56.7457L151.972 61.2091C152.073 61.7249 151.731 62.1471 151.214 62.1471Z" fill="#78ACEA"/>
<path d="M121.235 82.1148H116.765C116.249 82.1148 115.745 81.6927 115.644 81.1768L114.782 76.7134C114.683 76.1976 115.024 75.7754 115.54 75.7754H120.01C120.527 75.7754 121.031 76.1976 121.131 76.7134L121.993 81.1768C122.093 81.6927 121.752 82.1148 121.235 82.1148Z" fill="#AFCDFB"/>
<path d="M132.514 82.1148H128.044C127.527 82.1148 127.022 81.6927 126.923 81.1768L126.061 76.7134C125.962 76.1976 126.302 75.7754 126.819 75.7754H131.289C131.805 75.7754 132.31 76.1976 132.409 76.7134L133.271 81.1768C133.372 81.6927 133.031 82.1148 132.514 82.1148Z" fill="#AFCDFB"/>
<path d="M143.793 82.1148H139.324C138.807 82.1148 138.302 81.6927 138.203 81.1768L137.341 76.7134C137.241 76.1976 137.582 75.7754 138.099 75.7754H142.568C143.085 75.7754 143.59 76.1976 143.689 76.7134L144.551 81.1768C144.651 81.6927 144.31 82.1148 143.793 82.1148Z" fill="#78ACEA"/>
<path d="M87.3983 82.1148H82.9286C82.412 82.1148 81.9072 81.6927 81.8078 81.1768L80.9457 76.7134C80.8463 76.1976 81.187 75.7754 81.7037 75.7754H86.1734C86.69 75.7754 87.1948 76.1976 87.2942 76.7134L88.1563 81.1768C88.2557 81.6927 87.9149 82.1148 87.3983 82.1148Z" fill="#AFCDFB"/>
<path d="M98.6771 82.1148H94.2074C93.6908 82.1148 93.186 81.6927 93.0866 81.1768L92.2245 76.7134C92.1251 76.1976 92.4659 75.7754 92.9825 75.7754H97.4522C97.9688 75.7754 98.4736 76.1976 98.573 76.7134L99.4351 81.1768C99.5352 81.6927 99.1937 82.1148 98.6771 82.1148Z" fill="#AFCDFB"/>
<path d="M109.956 82.1148H105.486C104.97 82.1148 104.465 81.6927 104.366 81.1768L103.504 76.7134C103.404 76.1976 103.745 75.7754 104.262 75.7754H108.731C109.248 75.7754 109.753 76.1976 109.852 76.7134L110.714 81.1768C110.814 81.6927 110.473 82.1148 109.956 82.1148Z" fill="#AFCDFB"/>
<path d="M155.072 82.1148H150.602C150.086 82.1148 149.581 81.6927 149.482 81.1768L148.62 76.7134C148.52 76.1976 148.861 75.7754 149.377 75.7754H153.847C154.364 75.7754 154.868 76.1976 154.968 76.7134L155.83 81.1768C155.929 81.6927 155.589 82.1148 155.072 82.1148Z" fill="#78ACEA"/>
<path d="M123.22 92.3903H118.75C118.234 92.3903 117.729 91.9681 117.63 91.4522L116.767 86.9888C116.668 86.4729 117.009 86.0508 117.525 86.0508H121.995C122.512 86.0508 123.017 86.4729 123.116 86.9888L123.978 91.4522C124.077 91.9681 123.737 92.3903 123.22 92.3903Z" fill="#AFCDFB"/>
<path d="M134.499 92.3903H130.029C129.513 92.3903 129.008 91.9681 128.909 91.4522L128.047 86.9888C127.947 86.4729 128.288 86.0508 128.805 86.0508H133.274C133.791 86.0508 134.296 86.4729 134.395 86.9888L135.257 91.4522C135.357 91.9681 135.016 92.3903 134.499 92.3903Z" fill="#AFCDFB"/>
<path d="M145.778 92.3903H141.308C140.791 92.3903 140.287 91.9681 140.187 91.4522L139.325 86.9888C139.226 86.4729 139.566 86.0508 140.083 86.0508H144.553C145.069 86.0508 145.574 86.4729 145.674 86.9888L146.536 91.4522C146.636 91.9681 146.294 92.3903 145.778 92.3903Z" fill="#78ACEA"/>
<path d="M89.3829 92.3903H84.9132C84.3966 92.3903 83.8918 91.9681 83.7924 91.4522L82.9303 86.9888C82.8309 86.4729 83.1717 86.0508 83.6883 86.0508H88.158C88.6746 86.0508 89.1786 86.4729 89.2788 86.9888L90.1409 91.4522C90.241 91.9681 89.8995 92.3903 89.3829 92.3903Z" fill="#AFCDFB"/>
<path d="M100.662 92.3903H96.192C95.6754 92.3903 95.1714 91.9681 95.0712 91.4522L94.2091 86.9888C94.1097 86.4729 94.4505 86.0508 94.9671 86.0508H99.4368C99.9534 86.0508 100.458 86.4729 100.558 86.9888L101.42 91.4522C101.52 91.9681 101.178 92.3903 100.662 92.3903Z" fill="#F99746"/>
<path d="M111.941 92.3903H107.471C106.954 92.3903 106.449 91.9681 106.35 91.4522L105.488 86.9888C105.389 86.4729 105.729 86.0508 106.246 86.0508H110.716C111.232 86.0508 111.737 86.4729 111.836 86.9888L112.699 91.4522C112.799 91.9681 112.458 92.3903 111.941 92.3903Z" fill="#AFCDFB"/>
<path d="M157.057 92.3903H152.587C152.07 92.3903 151.565 91.9681 151.466 91.4522L150.604 86.9888C150.505 86.4729 150.845 86.0508 151.362 86.0508H155.832C156.348 86.0508 156.853 86.4729 156.952 86.9888L157.814 91.4522C157.915 91.9681 157.573 92.3903 157.057 92.3903Z" fill="#78ACEA"/>
<path d="M125.093 102.084H120.623C120.106 102.084 119.601 101.661 119.502 101.146L118.64 96.6822C118.541 96.1663 118.881 95.7441 119.398 95.7441H123.868C124.384 95.7441 124.889 96.1663 124.988 96.6822L125.851 101.146C125.951 101.661 125.609 102.084 125.093 102.084Z" fill="#AFCDFB"/>
<path d="M136.371 102.084H131.902C131.385 102.084 130.88 101.661 130.781 101.146L129.919 96.6822C129.819 96.1663 130.16 95.7441 130.677 95.7441H135.147C135.663 95.7441 136.168 96.1663 136.267 96.6822L137.129 101.146C137.23 101.661 136.888 102.084 136.371 102.084Z" fill="#AFCDFB"/>
<path d="M147.65 102.084H143.181C142.664 102.084 142.159 101.661 142.06 101.146L141.198 96.6822C141.098 96.1663 141.439 95.7441 141.956 95.7441H146.425C146.942 95.7441 147.447 96.1663 147.546 96.6822L148.408 101.146C148.508 101.661 148.167 102.084 147.65 102.084Z" fill="#78ACEA"/>
<path d="M91.2552 102.084H86.7855C86.2689 102.084 85.7641 101.661 85.6647 101.146L84.8026 96.6822C84.7033 96.1663 85.044 95.7441 85.5606 95.7441H90.0303C90.547 95.7441 91.0517 96.1663 91.1511 96.6822L92.0132 101.146C92.1134 101.661 91.7726 102.084 91.2552 102.084Z" fill="#AFCDFB"/>
<path d="M102.535 102.084H98.0651C97.5484 102.084 97.0436 101.661 96.9443 101.146L96.0822 96.6822C95.9828 96.1663 96.3235 95.7441 96.8402 95.7441H101.31C101.827 95.7441 102.331 96.1663 102.431 96.6822L103.293 101.146C103.392 101.661 103.051 102.084 102.535 102.084Z" fill="#AFCDFB"/>
<path d="M113.814 102.084H109.344C108.827 102.084 108.323 101.661 108.223 101.146L107.361 96.6822C107.262 96.1663 107.603 95.7441 108.119 95.7441H112.589C113.106 95.7441 113.61 96.1663 113.71 96.6822L114.572 101.146C114.672 101.661 114.33 102.084 113.814 102.084Z" fill="#AFCDFB"/>
<path d="M94.0616 56.6791H82.2204C82.0461 56.6791 81.9033 56.5366 81.9033 56.3625C81.9033 56.1885 82.0461 56.0459 82.2204 56.0459H94.0616C94.2359 56.0459 94.3787 56.1885 94.3787 56.3625C94.3795 56.5366 94.2367 56.6791 94.0616 56.6791Z" fill="#AFCDFB"/>
<path d="M94.422 58.1118H82.5807C82.4064 58.1118 82.2637 57.9692 82.2637 57.7951C82.2637 57.6211 82.4064 57.4785 82.5807 57.4785H94.422C94.5963 57.4785 94.739 57.6211 94.739 57.7951C94.739 57.9692 94.5963 58.1118 94.422 58.1118Z" fill="#AFCDFB"/>
<path d="M81.3621 46.0148H77.2986C76.9657 46.0148 76.6936 45.7431 76.6936 45.4107C76.6936 45.0784 76.9657 44.8066 77.2986 44.8066H81.3621C81.695 44.8066 81.9671 45.0784 81.9671 45.4107C81.9671 45.7431 81.695 46.0148 81.3621 46.0148Z" fill="white"/>
<path d="M92.5115 46.0148H88.448C88.1151 46.0148 87.843 45.7431 87.843 45.4107C87.843 45.0784 88.1151 44.8066 88.448 44.8066H92.5115C92.8444 44.8066 93.1165 45.0784 93.1165 45.4107C93.1173 45.7431 92.8444 46.0148 92.5115 46.0148Z" fill="white"/>
<path d="M103.662 46.0148H99.5984C99.2655 46.0148 98.9934 45.7431 98.9934 45.4107C98.9934 45.0784 99.2655 44.8066 99.5984 44.8066H103.662C103.995 44.8066 104.267 45.0784 104.267 45.4107C104.267 45.7431 103.995 46.0148 103.662 46.0148Z" fill="white"/>
<path d="M114.812 46.0148H110.749C110.416 46.0148 110.144 45.7431 110.144 45.4107C110.144 45.0784 110.416 44.8066 110.749 44.8066H114.812C115.145 44.8066 115.417 45.0784 115.417 45.4107C115.417 45.7431 115.145 46.0148 114.812 46.0148Z" fill="white"/>
<path d="M125.963 46.0148H121.899C121.566 46.0148 121.294 45.7431 121.294 45.4107C121.294 45.0784 121.566 44.8066 121.899 44.8066H125.963C126.296 44.8066 126.568 45.0784 126.568 45.4107C126.568 45.7431 126.296 46.0148 125.963 46.0148Z" fill="white"/>
<path d="M137.112 46.0148H133.048C132.715 46.0148 132.443 45.7431 132.443 45.4107C132.443 45.0784 132.715 44.8066 133.048 44.8066H137.112C137.445 44.8066 137.717 45.0784 137.717 45.4107C137.718 45.7431 137.445 46.0148 137.112 46.0148Z" fill="white"/>
<path d="M148.262 46.0148H144.199C143.866 46.0148 143.594 45.7431 143.594 45.4107C143.594 45.0784 143.866 44.8066 144.199 44.8066H148.262C148.595 44.8066 148.867 45.0784 148.867 45.4107C148.867 45.7431 148.595 46.0148 148.262 46.0148Z" fill="white"/>
<path d="M122.562 62.235C121.665 62.235 121.012 61.9507 120.655 61.3986C119.972 60.34 120.5 58.8562 122.222 56.9888C123.48 55.6246 124.949 54.544 124.963 54.533C125.021 54.4905 125.102 54.5031 125.145 54.5606C125.187 54.618 125.175 54.6992 125.117 54.7417C125.06 54.7834 119.397 58.9704 120.874 61.2584C121.342 61.983 122.342 62.031 123.1 61.9436C124.504 61.7814 126.333 61.0268 127.994 59.9257C129.713 58.7853 130.924 57.5007 131.317 56.3996C131.574 55.6774 131.494 55.1662 131.08 54.8795C130.544 54.5094 129.425 54.5094 128.087 54.8787C126.804 55.2324 125.514 55.8696 124.719 56.5422C124.664 56.5886 124.582 56.5816 124.536 56.5272C124.489 56.4729 124.496 56.391 124.551 56.3445C125.373 55.6498 126.701 54.9929 128.017 54.6299C129.45 54.2345 130.62 54.2479 131.227 54.6677C131.587 54.9158 131.936 55.4332 131.561 56.487C131.15 57.6393 129.902 58.9712 128.137 60.1416C126.444 61.2647 124.572 62.035 123.13 62.2012C122.932 62.224 122.742 62.235 122.562 62.235Z" fill="#C65447"/>
<path d="M146.025 54.8764L145.563 54.0076C145.563 54.0076 145.792 52.4592 143.849 51.4794C143.849 51.4794 143.14 51.1903 142.738 51.7692C142.369 52.3017 143.442 52.2056 143.384 53.1168C143.327 54.0281 143.76 54.5629 144.363 54.8598L144.861 55.4363L146.025 54.8764Z" fill="#FFB27D"/>
<path d="M164.389 52.7991C164.389 52.7991 162.72 60.9777 153.537 63.6501C150.671 64.4841 144.158 55.0604 144.158 55.0604C144.158 55.0604 144.387 54.1916 145.822 54.3909C145.822 54.3909 152.162 58.5826 152.961 59.0378C153.669 59.4418 158.327 53.8435 160.45 52.9409C162.575 52.0375 164.389 52.7991 164.389 52.7991Z" fill="#061E1F"/>
<path d="M137.541 52.6516L137.909 54.6357L147.905 52.7873L147.537 50.8031L137.541 52.6516Z" fill="#C65447"/>
<path d="M135.398 54.0759L137.905 54.6383L137.538 52.6543L135.398 54.0759Z" fill="#FFB27D"/>
<path d="M148.817 51.249L148.934 51.8759C149.005 52.2618 148.75 52.6328 148.363 52.7037L147.901 52.7895L147.533 50.8055L148.036 50.7126C148.4 50.6449 148.75 50.8851 148.817 51.249Z" fill="#FFB27D"/>
<path d="M175.351 104.212C175.351 104.212 176.49 105.25 176.268 105.988C176.045 106.726 175.018 107.218 174.879 108.12C174.74 109.021 174.184 109.513 173.684 109.513C173.184 109.513 171.299 109.513 171.299 109.513C171.299 109.513 170.931 108.879 171.821 108.687C172.71 108.496 173.045 107.437 172.99 106.453C172.935 105.469 173.073 104.158 173.073 104.158L174.963 103.721L175.351 104.212Z" fill="#233862"/>
<path d="M161.376 106.897C161.376 106.897 161.58 109.26 161.08 109.506L154.679 109.492C154.679 109.492 154.679 108.754 155.707 108.59C156.735 108.427 158.541 107.826 158.847 106.487C159.153 105.149 161.376 106.897 161.376 106.897Z" fill="#233862"/>
<path d="M155.972 73.5228C155.972 73.5228 156.31 77.6641 156.706 82.6426C157.246 89.405 157.894 97.7119 157.958 99.2856C158.069 102.018 158.514 106.389 158.514 106.389C158.514 106.389 159.57 107.427 161.682 106.99C161.682 106.99 163.564 100.751 164.102 94.1488C164.11 94.0409 164.118 93.9314 164.127 93.8227C164.627 87.102 165.405 72.9502 165.405 72.9502L155.972 73.5228Z" fill="#F99746"/>
<path d="M155.972 73.5226C155.972 73.5226 156.31 77.6639 156.706 82.6424L164.102 94.1478C164.11 94.0399 164.118 93.9304 164.127 93.8217C164.627 87.101 165.405 72.9492 165.405 72.9492L155.972 73.5226Z" fill="#ED7D2B"/>
<path d="M157.513 74.0142C157.513 74.0142 163.598 89.0127 167.6 96.061C171.601 103.109 172.851 105.077 172.851 105.077C172.851 105.077 175.143 104.175 175.352 103.561C175.352 103.561 173.822 89.9531 171.143 86.6357C169.628 84.7612 167.85 79.1368 167.767 77.1694C167.683 75.2027 167.225 71.3096 167.225 71.3096L157.513 74.0142Z" fill="#F99746"/>
<path d="M165.52 50.9014C165.52 50.9014 161.403 52.8854 159.029 52.149C159.029 52.149 159.614 51.4133 160.636 50.8651C160.554 50.3894 160.49 49.9767 160.454 49.6262C160.354 48.8181 160.354 48.3605 160.354 48.3605L161.942 47.113L163.449 45.9189C163.329 49.2765 165.52 50.9014 165.52 50.9014Z" fill="#FFB27D"/>
<path d="M155.712 73.8652C155.784 73.9282 155.867 73.9636 155.959 73.9636C156.853 73.9455 159.455 74.4393 161.654 74.2149C163.516 74.0353 165.16 73.4974 166.922 72.7255C167.159 72.6176 167.699 72.3301 167.689 72.0789C167.679 71.7914 167.652 71.3873 167.616 70.8667C167.542 69.8413 167.439 68.385 167.405 66.6585C167.381 65.3787 167.394 63.9507 167.488 62.4377C167.493 62.3361 167.498 62.2337 167.502 62.1313C167.529 61.5768 167.542 61.0184 167.542 60.4726C167.551 58.7131 167.424 57.0347 167.169 55.5359C166.721 52.9328 165.881 50.8953 164.64 49.9887C164.475 49.8627 163.452 50.3565 162.503 50.8141C161.636 51.2363 160.769 51.2812 159.948 51.1197L159.126 51.8372C158.13 52.743 157.034 53.9906 156.551 55.8761C156.149 57.4742 155.912 60.3639 155.784 63.3624C155.721 64.7265 155.675 66.0907 155.657 67.3918V67.4367C155.648 67.5714 155.648 67.7068 155.648 67.8415C155.603 71.1723 155.648 73.8203 155.712 73.8652Z" fill="#0B2A2B"/>
<path d="M163.475 47.2031C163.475 47.2031 162.434 49.0973 160.453 49.6266C160.353 48.8185 160.353 48.3609 160.353 48.3609L161.941 47.1133L163.475 47.2031Z" fill="#ED985F"/>
<path d="M159.629 48.306C159.629 48.306 163.557 48.9479 163.925 46.5362C164.293 44.1254 165.049 42.584 162.556 42.0728C160.064 41.5609 159.435 42.4092 159.113 43.1842C158.791 43.96 158.616 48.0768 159.629 48.306Z" fill="#FFB27D"/>
<path d="M165.352 41.7839C165.388 41.7429 165.471 41.7099 165.654 41.7004C165.654 41.7004 165.508 41.609 165.312 41.6043C165.274 41.3499 165.139 40.9002 164.701 40.7907C164.701 40.7907 164.936 40.9159 164.967 41.1861C164.459 40.6655 163.373 40.2874 160.362 40.5245C156.395 40.8372 157.702 43.3733 158.216 43.6757C158.729 43.9782 160.022 43.1496 160.979 43.2252C161.936 43.3008 162.118 44.6815 162.442 44.8713C162.767 45.0612 162.639 44.7256 163.078 44.5279C163.518 44.3302 163.56 45.0564 163.433 45.529C163.306 46.0016 163.909 46.6246 163.909 46.6246C163.909 46.6246 163.909 46.6246 164.519 45.9685C165.128 45.3124 165.703 42.5345 165.426 41.943C165.401 41.8902 165.377 41.8375 165.352 41.7839Z" fill="#262626"/>
<path d="M145.555 53.9663C145.555 53.9663 145.69 53.4331 145.32 53.1937C144.949 52.9542 144.609 52.3021 144.453 52.3911C144.13 52.5738 144.63 53.1425 144.538 53.8521C144.506 54.0994 145.085 54.75 145.555 53.9663Z" fill="#FFB27D"/>
<path d="M167.405 66.6585C167.381 65.3786 167.394 63.9507 167.487 62.4377C167.493 62.3361 167.498 62.2337 167.502 62.1313C167.129 60.2844 166.565 58.6454 165.733 58.5918C165.733 58.5918 163.257 62.4779 167.405 66.6585Z" fill="#0C172C"/>
<path d="M170.682 73.3604C170.682 73.3604 170.475 75.3641 170.249 75.7437C170.023 76.1226 169.058 77.3339 168.647 77.5718C168.236 77.8096 168.898 75.9761 168.814 75.6193C168.731 75.2625 168.476 76.2706 168.295 76.2943C168.114 76.3179 168.16 75.4106 168.154 75.0806C168.148 74.7505 169.035 73.9354 169.348 73.232C169.661 72.5279 170.682 73.3604 170.682 73.3604Z" fill="#FFB27D"/>
<path d="M164.639 49.9688C164.639 49.9688 167.124 51.1439 168.315 52.9506C170.163 55.753 172.305 65.9651 172.345 66.9111C172.385 67.857 170.781 74.5336 170.781 74.5336C170.781 74.5336 169.155 74.4264 168.736 73.6073C168.736 73.6073 169.061 66.7472 168.855 66.3062C168.649 65.8651 162.076 57.1045 162.816 55.2347C163.554 53.3641 164.639 49.9688 164.639 49.9688Z" fill="#0B2A2B"/>
<path d="M136.683 53.2207L136.814 54.3919L135.398 54.0745L136.683 53.2207Z" fill="#C65447"/>
<path d="M190.456 109.475H183.294C182.91 109.15 183.56 108.412 184.239 108.363C184.534 108.341 184.906 108.402 185.332 108.492C185.43 107.184 185.993 101.309 188.114 101.545C190.5 101.81 188.114 104.132 187.44 105.508C186.941 106.527 186.414 107.988 186.173 108.678C186.367 108.719 186.568 108.76 186.772 108.798C187.088 107.829 188.264 104.569 189.76 104.758C191.516 104.981 190.81 106.288 189.566 107.064C188.652 107.634 187.532 108.445 186.998 108.837C187.45 108.91 187.921 108.96 188.399 108.949C189.626 108.92 190.224 109.282 190.456 109.475Z" fill="#82B378"/>
<path d="M26.9767 109.135C26.5973 108.54 25.4552 106.995 23.9338 107.199C22.2759 107.422 25.7644 108.513 26.8324 109.14C26.595 109.143 26.3915 109.124 26.2416 109.071C25.5278 108.816 24.3053 109.304 23.9141 109.475H30.7114C30.664 109.312 30.5418 109.047 30.2255 108.854C30.1135 108.786 29.8895 108.776 29.6 108.798C30.0039 108.322 30.2847 106.802 29.1599 107.194C28.3381 107.48 28.3404 108.408 28.4209 108.957C28.2458 108.985 28.0691 109.012 27.8932 109.038C27.5549 107.315 26.3576 102.268 23.9322 102.133C21.4729 101.997 26.0176 107.368 27.5312 109.086C27.3356 109.109 27.1494 109.127 26.9767 109.135Z" fill="#82B378"/>
<path d="M213 109.967H0.241352C0.108845 109.967 0 109.859 0 109.726V109.644C0 109.512 0.108845 109.403 0.241352 109.403H213C213.132 109.403 213.241 109.512 213.241 109.644V109.726C213.242 109.859 213.133 109.967 213 109.967Z" fill="#2E3552"/>
</svg>
