<svg width="16" height="20" viewBox="0 0 16 20" fill="none" xmlns="http://www.w3.org/2000/svg">
<path d="M10.4578 6.96179C10.2093 6.96179 10.0078 7.16324 10.0078 7.41179V15.9168C10.0078 16.1652 10.2093 16.3668 10.4578 16.3668C10.7064 16.3668 10.9078 16.1652 10.9078 15.9168V7.41179C10.9078 7.16324 10.7064 6.96179 10.4578 6.96179Z" fill="white"/>
<path d="M5.14824 6.96179C4.89969 6.96179 4.69824 7.16324 4.69824 7.41179V15.9168C4.69824 16.1652 4.89969 16.3668 5.14824 16.3668C5.3968 16.3668 5.59824 16.1652 5.59824 15.9168V7.41179C5.59824 7.16324 5.3968 6.96179 5.14824 6.96179Z" fill="white"/>
<path fill-rule="evenodd" clip-rule="evenodd" d="M1.27807 16.8076V5.72051C0.44364 5.49902 -0.0970633 4.69289 0.0145577 3.83666C0.126355 2.98061 0.855671 2.34023 1.71911 2.34006H4.02307V1.77756C4.02044 1.30453 4.20747 0.850313 4.54233 0.516153C4.87719 0.182168 5.33212 -0.00380806 5.80514 5.91263e-05H9.801C10.274 -0.00380806 10.729 0.182168 11.0638 0.516153C11.3987 0.850313 11.5857 1.30453 11.5831 1.77756V2.34006H13.887C14.7505 2.34023 15.4798 2.98061 15.5916 3.83666C15.7032 4.69289 15.1625 5.49902 14.3281 5.72051V16.8076C14.3281 17.4629 14.0878 18.0783 13.668 18.5198C13.2504 18.9626 12.6689 19.214 12.0601 19.2151H3.546C2.93745 19.214 2.35596 18.9626 1.93813 18.5198C1.51837 18.0783 1.27807 17.4629 1.27807 16.8076ZM3.546 18.3151H12.0601C12.8295 18.3151 13.4281 17.6541 13.4281 16.8076V5.76006H2.17807V16.8076C2.17807 17.6541 2.77661 18.3151 3.546 18.3151ZM4.92307 1.77756C4.92008 1.54324 5.01219 1.31772 5.17848 1.15231C5.3446 0.986895 5.57065 0.896016 5.80514 0.900059H9.801C10.0355 0.896016 10.2615 0.986895 10.4277 1.15231C10.594 1.31754 10.6861 1.54324 10.6831 1.77756V2.34006H4.92307V1.77756ZM13.887 3.24006H1.71911C1.27175 3.24006 0.909109 3.6027 0.909109 4.05006C0.909109 4.49742 1.27175 4.86006 1.71911 4.86006H13.887C14.3344 4.86006 14.697 4.49742 14.697 4.05006C14.697 3.6027 14.3344 3.24006 13.887 3.24006Z" fill="white"/>
<path d="M7.80352 6.96179C7.55496 6.96179 7.35352 7.16324 7.35352 7.41179V15.9168C7.35352 16.1652 7.55496 16.3668 7.80352 16.3668C8.05207 16.3668 8.25352 16.1652 8.25352 15.9168V7.41179C8.25352 7.16324 8.05207 6.96179 7.80352 6.96179Z" fill="white"/>
</svg>
