<svg width="7" height="14" viewBox="0 0 7 14" fill="none" xmlns="http://www.w3.org/2000/svg">
<path fill-rule="evenodd" clip-rule="evenodd" d="M4.53906 0.0338906C3.18732 0.25243 2.34043 1.12092 2.08729 2.54823C2.05302 2.74138 2.04066 3.06255 2.03068 4.01975L2.01789 5.2442H1.00896H0V6.48916V7.73413H1.01172H2.02344V10.8671V14H3.28125H4.53906V10.8671V7.73413H5.50977C6.04365 7.73413 6.48047 7.72701 6.48047 7.71834C6.48047 7.70967 6.54814 7.1627 6.63086 6.50284C6.71357 5.84298 6.78125 5.28986 6.78125 5.27366C6.78125 5.25309 6.44216 5.2442 5.65873 5.2442H4.53619L4.54511 4.14288C4.55295 3.16787 4.55952 3.02745 4.60234 2.91844C4.70928 2.6461 4.87093 2.4932 5.161 2.39008C5.30329 2.33949 5.39891 2.33306 6.15918 2.32293L7 2.31171V1.20509C7 0.344202 6.9924 0.0958653 6.96582 0.0868633C6.87515 0.0561085 6.14827 0.01471 5.50977 0.00390202C4.95532 -0.00548311 4.74165 0.00113847 4.53906 0.0338906Z" fill="#3C8CEB"/>
</svg>
