<svg width="17" height="16" viewBox="0 0 17 16" fill="none" xmlns="http://www.w3.org/2000/svg">
<path fill-rule="evenodd" clip-rule="evenodd" d="M7.74282 0.011653C7.69711 0.0192972 7.52507 0.0415436 7.36051 0.0611113C5.92103 0.23232 4.48548 0.82056 3.24596 1.74707C2.8336 2.05532 2.08338 2.7821 1.78571 3.16176C0.158203 5.23747 -0.377928 7.72721 0.264319 10.227C0.855069 12.5263 2.52666 14.5114 4.76745 15.5747C5.34511 15.8489 5.77702 16 5.98273 16C6.1329 16 6.16754 15.9864 6.26677 15.8889L6.3798 15.7779V14.9884C6.3798 14.2517 6.37591 14.2 6.32162 14.216C6.14457 14.2682 5.62705 14.3075 5.34923 14.2898C4.73102 14.2503 4.2665 14.0543 3.90919 13.6822C3.73761 13.5034 3.65224 13.3715 3.46205 12.9911C3.1816 12.4301 2.97233 12.167 2.6117 11.9221C2.21911 11.6555 2.16031 11.5141 2.40758 11.4312C2.51 11.3968 2.58736 11.3943 2.74836 11.4201C3.21382 11.4948 3.62216 11.7859 3.96534 12.2874C4.37763 12.8901 4.80479 13.1338 5.44614 13.1324C5.73436 13.1318 6.06411 13.0726 6.28286 12.9822C6.39523 12.9357 6.40623 12.9172 6.47658 12.6555C6.55137 12.3773 6.71115 12.0726 6.86597 11.9129L6.94874 11.8274L6.73907 11.8049C6.38532 11.7668 5.88134 11.657 5.52639 11.5408C4.88427 11.3306 4.45682 11.0719 4.04319 10.6434C3.61165 10.1962 3.34191 9.66238 3.18406 8.94302C3.1192 8.64748 3.10883 8.50296 3.10793 7.88218C3.10694 7.18669 3.10989 7.15399 3.19949 6.86949C3.32977 6.45573 3.49144 6.14147 3.73598 5.82649L3.94689 5.55493L3.87993 5.36285C3.83273 5.22738 3.80786 5.04944 3.79562 4.75896C3.77654 4.30603 3.80896 4.0542 3.93808 3.65255C4.03415 3.35374 4.05606 3.34264 4.44721 3.39491C4.88431 3.45331 5.52147 3.71344 6.11817 4.07713L6.37668 4.23468L6.55277 4.18823C7.13106 4.03567 8.21688 3.92624 8.80663 3.96109C9.31095 3.99089 9.90326 4.06779 10.2903 4.15367L10.627 4.22841L10.8887 4.06831C11.4838 3.7042 12.0932 3.45586 12.5463 3.39281C12.9206 3.34071 12.9479 3.35518 13.0451 3.65729C13.0908 3.79962 13.145 4.02195 13.1656 4.15141C13.2183 4.48374 13.1856 5.1197 13.1028 5.37343C13.0387 5.56979 13.0385 5.57777 13.0975 5.63026C13.2096 5.72996 13.4979 6.16601 13.6117 6.40817C13.856 6.92768 13.9407 7.47034 13.8912 8.1985C13.857 8.7022 13.7922 9.06728 13.6737 9.42421C13.2368 10.7393 12.2183 11.4891 10.5002 11.7604L10.042 11.8328L10.1547 11.9554C10.2922 12.1049 10.4437 12.3934 10.5215 12.6537C10.5712 12.8202 10.5822 13.0531 10.5989 14.3013C10.6136 15.3928 10.6291 15.7732 10.661 15.8282C10.7283 15.9438 10.89 16.0095 11.0645 15.992C11.4541 15.9528 12.5688 15.4461 13.2631 14.9925C15.3128 13.6533 16.6221 11.6014 16.9558 9.2052C17.0211 8.73692 17.0124 7.54385 16.9405 7.08183C16.5698 4.70091 15.2489 2.67306 13.2115 1.35719C12.7445 1.05557 11.9675 0.672512 11.4496 0.48853C11.0221 0.336725 10.2601 0.145948 9.78734 0.0724142C9.47162 0.0232826 7.94501 -0.0220596 7.74282 0.011653Z" fill="black"/>
</svg>
