<svg width="14" height="14" viewBox="0 0 14 14" fill="none" xmlns="http://www.w3.org/2000/svg">
<path d="M3.0625 3.9375H0V14H3.0625V3.9375Z" fill="#007BB5"/>
<path d="M10.5013 3.9375C8.75 3.9375 8.26437 4.5115 7.875 5.25V3.9375H4.8125V14H7.875V8.3125C7.875 7.4375 7.875 6.5625 9.40625 6.5625C10.9375 6.5625 10.9375 7.4375 10.9375 8.3125V14H14V8.3125C14 5.6875 13.5625 3.9375 10.5013 3.9375Z" fill="#007BB5"/>
<path d="M1.53125 3.0625C2.37694 3.0625 3.0625 2.37694 3.0625 1.53125C3.0625 0.685564 2.37694 0 1.53125 0C0.685564 0 0 0.685564 0 1.53125C0 2.37694 0.685564 3.0625 1.53125 3.0625Z" fill="#007BB5"/>
</svg>
