<svg width="17" height="14" viewBox="0 0 17 14" fill="none" xmlns="http://www.w3.org/2000/svg">
<path fill-rule="evenodd" clip-rule="evenodd" d="M11.1971 0.0519869C9.8364 0.30014 8.7617 1.3042 8.40187 2.66359C8.33989 2.89773 8.32718 3.03669 8.32534 3.49997C8.32414 3.80553 8.33478 4.12119 8.34899 4.2014L8.37485 4.34729L8.14884 4.32638C6.67971 4.19059 5.49053 3.85021 4.30701 3.22673C3.214 2.65093 2.07511 1.74687 1.37679 0.900657C1.27245 0.774224 1.17214 0.675771 1.15386 0.681932C1.13561 0.68806 1.06326 0.824157 0.993041 0.984396C0.513883 2.07765 0.603317 3.34158 1.22928 4.32322C1.41252 4.61053 1.71098 4.95003 1.95349 5.14694L2.20588 5.35186H2.06904C1.77639 5.35186 1.1644 5.18515 0.835823 5.01596C0.763002 4.97848 0.691215 4.94781 0.676304 4.94781C0.629203 4.94781 0.691549 5.56499 0.768473 5.86012C1.0714 7.02256 1.9262 7.94178 3.06148 8.32596C3.24989 8.38973 3.38272 8.45014 3.35667 8.46024C3.20616 8.51852 2.71166 8.55792 2.32757 8.54219L1.89635 8.52452L1.91786 8.61102C1.95449 8.75843 2.20074 9.23059 2.35399 9.4474C2.9436 10.2814 3.90611 10.8543 4.84555 10.9303C4.98775 10.9418 5.10407 10.9627 5.10407 10.9768C5.10407 11.0337 4.35632 11.5015 3.89897 11.7307C2.85786 12.2524 1.82906 12.4781 0.61756 12.4506L0 12.4365L0.175264 12.5476C0.430521 12.7094 1.20383 13.1035 1.55142 13.249C3.42239 14.032 5.60671 14.2103 7.66859 13.7483C10.7029 13.0683 13.1991 10.9416 14.4599 7.96231C14.999 6.68838 15.2694 5.43735 15.297 4.08921L15.3095 3.48313L15.551 3.2872C15.8598 3.03663 16.2069 2.70271 16.4681 2.40466C16.6915 2.14984 17.0186 1.70987 16.9992 1.69027C16.9925 1.6836 16.8916 1.71751 16.7749 1.76566C16.333 1.94788 15.3077 2.21045 15.1545 2.18065C15.1167 2.17328 15.1441 2.14038 15.2432 2.07415C15.495 1.90596 15.9447 1.4408 16.1358 1.15093C16.3017 0.899209 16.5445 0.405731 16.5455 0.317952C16.5458 0.299366 16.3412 0.385428 16.0909 0.509168C15.6386 0.732842 15.0486 0.948369 14.5861 1.05884L14.3443 1.11659L14.142 0.927594C13.3611 0.197815 12.2344 -0.137175 11.1971 0.0519869Z" fill="#2DC7F8"/>
</svg>
