<svg width="14" height="14" viewBox="0 0 14 14" fill="none" xmlns="http://www.w3.org/2000/svg">
<path fill-rule="evenodd" clip-rule="evenodd" d="M6.3721 0.0165659C5.01928 0.149015 3.76895 0.647397 2.67269 1.49114C2.13884 1.90202 1.44555 2.6742 1.04491 3.3041C0.871879 3.57615 0.535059 4.26551 0.4144 4.5945C0.279491 4.96237 0.135704 5.52454 0.064947 5.96075C-0.021649 6.49466 -0.021649 7.50835 0.064947 8.04225C0.187387 8.79702 0.381077 9.40717 0.712609 10.0827C1.07483 10.8206 1.45147 11.3438 2.0546 11.9466C2.65776 12.5494 3.18117 12.9258 3.91957 13.2878C4.59545 13.6191 5.20596 13.8127 5.96115 13.9351C6.49536 14.0216 7.50963 14.0216 8.04384 13.9351C8.79903 13.8127 9.40953 13.6191 10.0854 13.2878C10.8238 12.9258 11.3472 12.5494 11.9504 11.9466C12.5535 11.3438 12.9302 10.8206 13.2924 10.0827C13.533 9.59248 13.654 9.27122 13.7836 8.77859C13.9562 8.12253 14 7.7629 14 7.0015C14 6.24011 13.9562 5.88048 13.7836 5.22442C13.654 4.73179 13.533 4.41053 13.2924 3.92034C12.9302 3.18236 12.5535 2.65925 11.9504 2.05644C11.3472 1.45365 10.8238 1.07723 10.0854 0.71521C9.41019 0.38417 8.78761 0.186674 8.05754 0.07189C7.65473 0.00856859 6.75528 -0.0209558 6.3721 0.0165659ZM7.15661 1.34659C7.42435 1.55069 7.76531 2.22443 7.99183 2.997C8.11394 3.41349 8.26562 4.16204 8.23207 4.18274C8.128 4.24705 5.87699 4.24705 5.77291 4.18274C5.73937 4.16204 5.89105 3.41349 6.01316 2.997C6.29084 2.04989 6.73333 1.27891 6.99992 1.27768C7.03617 1.27752 7.10668 1.30852 7.15661 1.34659ZM5.16644 1.58665C5.16644 1.59103 5.11824 1.71258 5.05932 1.85672C4.85428 2.35847 4.65722 3.05558 4.53604 3.70808C4.49853 3.91018 4.46101 4.04358 4.44172 4.04358C4.38472 4.04358 3.84552 3.94003 3.53591 3.86961C3.22532 3.79898 2.67069 3.63706 2.51731 3.57221L2.43042 3.53548L2.55351 3.38556C3.15645 2.65128 4.01025 2.02209 4.86157 1.68467C5.11111 1.58577 5.16644 1.56797 5.16644 1.58665ZM9.12048 1.67593C9.96575 2.00169 10.8441 2.64588 11.4515 3.38558L11.5746 3.53553L11.4466 3.58508C11.2478 3.66198 10.7157 3.81604 10.428 3.87999C10.1406 3.94386 9.61347 4.04358 9.56327 4.04358C9.54398 4.04358 9.50646 3.91018 9.46895 3.70808C9.34777 3.05558 9.15071 2.35847 8.94567 1.85672C8.88675 1.71258 8.83855 1.59103 8.83855 1.58665C8.83855 1.56983 8.87552 1.58155 9.12048 1.67593ZM2.55817 4.92389C2.95344 5.04758 3.35412 5.14319 3.90586 5.24551L4.30322 5.31921L4.29971 5.40034C4.29779 5.44495 4.28116 5.82348 4.26274 6.24148C4.23638 6.84013 4.23638 7.16288 4.26274 7.76153C4.28116 8.17955 4.29779 8.55797 4.29971 8.60248C4.30297 8.67752 4.29429 8.68505 4.1799 8.70614C3.25176 8.8774 2.63331 9.03398 2.10327 9.23197C1.9266 9.29797 1.77426 9.34382 1.76472 9.33388C1.71841 9.28565 1.53483 8.75955 1.45309 8.44075C1.32338 7.93503 1.2751 7.5445 1.2751 7.0015C1.2751 6.19837 1.42204 5.46322 1.72518 4.74954L1.7685 4.64755L1.99453 4.73289C2.11883 4.77983 2.37246 4.86578 2.55817 4.92389ZM12.3589 4.94572C12.4895 5.27934 12.6322 5.83773 12.6868 6.22902C12.7121 6.41047 12.7299 6.72899 12.7299 7.0015C12.7299 7.5445 12.6816 7.93503 12.5519 8.44075C12.4702 8.75955 12.2866 9.28565 12.2403 9.33388C12.2307 9.34382 12.0784 9.29797 11.9017 9.23197C11.3717 9.03398 10.7532 8.8774 9.82509 8.70614C9.7107 8.68505 9.70201 8.67752 9.70528 8.60248C9.70719 8.55797 9.72383 8.17955 9.74224 7.76153C9.76861 7.16288 9.76861 6.84013 9.74224 6.24148C9.72383 5.82348 9.70719 5.44504 9.70528 5.40053C9.70201 5.32549 9.7107 5.31795 9.82509 5.29687C10.7532 5.12561 11.3717 4.96903 11.9017 4.77104C12.0784 4.70503 12.2307 4.65919 12.2403 4.66913C12.2498 4.67907 12.3032 4.80355 12.3589 4.94572ZM8.44599 5.74165C8.47531 6.07899 8.47531 7.92402 8.44599 8.26136L8.42341 8.52155H7.00249H5.58158L5.559 8.26136C5.54656 8.11826 5.53639 7.55132 5.53639 7.0015C5.53639 6.45169 5.54656 5.88475 5.559 5.74165L5.58158 5.48146H7.00249H8.42341L8.44599 5.74165ZM7.81606 9.78568C8.02992 9.79545 8.21711 9.81104 8.23207 9.82027C8.26562 9.84097 8.11394 10.5895 7.99183 11.006C7.71335 11.9558 7.27045 12.7256 7.00249 12.7256C6.73454 12.7256 6.29164 11.9558 6.01316 11.006C5.91634 10.6758 5.73822 9.8445 5.75965 9.8229C5.80108 9.7811 7.17311 9.75629 7.81606 9.78568ZM4.53604 10.2949C4.65717 10.947 4.85428 11.6445 5.05899 12.1455C5.11771 12.2892 5.16112 12.4114 5.15542 12.4171C5.13418 12.4384 4.62239 12.2247 4.35096 12.0813C3.67562 11.7245 3.03231 11.2005 2.55351 10.6175L2.43042 10.4675L2.51731 10.4307C2.77962 10.3194 3.54359 10.12 4.1525 10.0038C4.49891 9.93776 4.46493 9.91196 4.53604 10.2949ZM9.88146 10.0121C10.4704 10.1206 11.2098 10.3133 11.4877 10.4308L11.5746 10.4675L11.4515 10.6175C10.9727 11.2005 10.3294 11.7245 9.65403 12.0813C9.3826 12.2247 8.8708 12.4384 8.84957 12.4171C8.84387 12.4114 8.88727 12.2892 8.946 12.1455C9.15071 11.6445 9.34782 10.947 9.46895 10.2949C9.50646 10.0928 9.54398 9.95942 9.56327 9.95942C9.58089 9.95942 9.72408 9.98314 9.88146 10.0121Z" fill="#4678F8"/>
</svg>
